<?xml version="1.0" standalone="no"?>
 <!DOCTYPE svg PUBLIC "-//W3C//DTD SVG 1.1//EN" 
 "http://www.w3.org/Graphics/SVG/1.1/DTD/svg11.dtd"> 
<svg
  xmlns:svg="http://www.w3.org/2000/svg"
  xmlns="http://www.w3.org/2000/svg"
  xmlns:xlink="http://www.w3.org/1999/xlink"
  xmlns:inkscape="http://www.inkscape.org/namespaces/inkscape"
  version="1.1"
  width="210.0072mm" height="148.0058mm" viewBox="0.0000 0.0000 210.0072 148.0058">
<title>SVG Image created as PCBv2-In2_Cu.svg date 2026-08-26T18:26:15 </title>
  <desc>Image generated by PCBNEW </desc>
<g style="fill:#000000; fill-opacity:1.0000;stroke:#000000; stroke-opacity:1.0000;
stroke-linecap:round; stroke-linejoin:round;"
 transform="translate(0 0) scale(1 1)">
</g>
<g style="fill:#CE7D2C; fill-opacity:1.0000; stroke:none;">
<circle cx="135.0000" cy="34.0000" r="2.8000" /> 
<circle cx="55.0000" cy="34.0000" r="2.8000" /> 
<circle cx="135.0000" cy="85.0000" r="2.8000" /> 
<circle cx="55.0000" cy="85.0000" r="2.8000" /> 
<path style="fill:#CE7D2C; fill-opacity:1.0000; stroke:none;fill-rule:evenodd;"
d="M 94.8500,65.8500
93.1500,65.8500
93.1500,64.1500
94.8500,64.1500
Z" /> 
<circle cx="96.5400" cy="65.0000" r="0.8500" /> 
<circle cx="99.0800" cy="65.0000" r="0.8500" /> 
<circle cx="101.6200" cy="65.0000" r="0.8500" /> 
<circle cx="104.1600" cy="65.0000" r="0.8500" /> 
<circle cx="88.7500" cy="44.3200" r="0.2000" /> 
<circle cx="87.3500" cy="44.3200" r="0.2000" /> 
<circle cx="90.1500" cy="44.3200" r="0.2000" /> 
<circle cx="87.3500" cy="45.7200" r="0.2000" /> 
<circle cx="88.7500" cy="45.7200" r="0.2000" /> 
<circle cx="90.1500" cy="45.7200" r="0.2000" /> 
<circle cx="88.0500" cy="43.6200" r="0.2000" /> 
<circle cx="89.4500" cy="43.6200" r="0.2000" /> 
<circle cx="88.0500" cy="45.0200" r="0.2000" /> 
<circle cx="89.4500" cy="45.0200" r="0.2000" /> 
<circle cx="88.0500" cy="46.4200" r="0.2000" /> 
<circle cx="89.4500" cy="46.4200" r="0.2000" /> 
</g>
<g style="fill:none; 
stroke:#CE7D2C; stroke-width:1.0000; stroke-opacity:1; 
stroke-linecap:round; stroke-linejoin:round;">
<path d="M68.0000 82.2700
L68.0000 83.3700
" />
<path d="M76.6400 82.2700
L76.6400 83.3700
" />
<path d="M68.0000 86.6000
L68.0000 87.4000
" />
<path d="M76.6400 86.6000
L76.6400 87.4000
" />
</g>
<g style="fill:#CE7D2C; fill-opacity:1.0000; stroke:none;">
<circle cx="101.5000" cy="55.7500" r="0.3000" /> 
<circle cx="68.7500" cy="62.0000" r="0.3000" /> 
<circle cx="77.0000" cy="38.5000" r="0.3000" /> 
<circle cx="67.0000" cy="68.5000" r="0.3000" /> 
<circle cx="70.7500" cy="63.5000" r="0.3000" /> 
<circle cx="69.2500" cy="72.7500" r="0.3000" /> 
<circle cx="80.7500" cy="74.0000" r="0.3000" /> 
<circle cx="68.5000" cy="81.0000" r="0.3000" /> 
<circle cx="100.5000" cy="36.7500" r="0.3000" /> 
<circle cx="70.5000" cy="75.0000" r="0.3000" /> 
<circle cx="74.0000" cy="80.5000" r="0.3000" /> 
<circle cx="80.0000" cy="82.0000" r="0.3000" /> 
<circle cx="64.7500" cy="73.7500" r="0.3000" /> 
<circle cx="64.2500" cy="65.7500" r="0.3000" /> 
<circle cx="64.7388" cy="77.9854" r="0.3000" /> 
<circle cx="69.7500" cy="67.0000" r="0.3000" /> 
<circle cx="80.0000" cy="36.5000" r="0.3000" /> 
<circle cx="64.2500" cy="63.0000" r="0.3000" /> 
<circle cx="63.5000" cy="83.0000" r="0.3000" /> 
<circle cx="72.5000" cy="40.7500" r="0.3000" /> 
<circle cx="84.5000" cy="60.7500" r="0.3000" /> 
<circle cx="76.5000" cy="81.0000" r="0.3000" /> 
<circle cx="70.7500" cy="80.0000" r="0.3000" /> 
<circle cx="83.5000" cy="71.0000" r="0.3000" /> 
<circle cx="74.5000" cy="65.7500" r="0.3000" /> 
<circle cx="104.2500" cy="67.2500" r="0.3000" /> 
<circle cx="75.0000" cy="72.5000" r="0.3000" /> 
<circle cx="74.0000" cy="70.5000" r="0.3000" /> 
<circle cx="75.0000" cy="81.0000" r="0.3000" /> 
<circle cx="70.0000" cy="81.0000" r="0.3000" /> 
<circle cx="69.7500" cy="72.0000" r="0.3000" /> 
<circle cx="71.5000" cy="70.5000" r="0.3000" /> 
<circle cx="75.0000" cy="73.5000" r="0.3000" /> 
<circle cx="69.2500" cy="75.0000" r="0.3000" /> 
<circle cx="75.5000" cy="77.0000" r="0.3000" /> 
<circle cx="72.7500" cy="79.7500" r="0.3000" /> 
<circle cx="80.0000" cy="54.2500" r="0.3000" /> 
<circle cx="72.0000" cy="79.7500" r="0.3000" /> 
<circle cx="79.7500" cy="52.7500" r="0.3000" /> 
</g>
<g style="fill:none; 
stroke:#CE7D2C; stroke-width:0.2000; stroke-opacity:1; 
stroke-linecap:round; stroke-linejoin:round;">
<path d="M67.0000 67.2500
L67.0000 68.5000
" />
<path d="M68.7500 62.0000
L95.2500 62.0000
" />
<path d="M77.0000 38.5000
L77.0000 53.7500
" />
<path d="M77.0000 53.7500
L68.7500 62.0000
" />
<path d="M70.7500 63.5000
L67.0000 67.2500
" />
<path d="M95.2500 62.0000
L101.5000 55.7500
" />
<path d="M76.5000 73.0000
L76.5000 76.0000
" />
<path d="M69.8500 74.4000
L69.8500 72.1000
" />
<path d="M93.2500 78.2500
L76.7500 78.2500
" />
<path d="M75.0000 72.5000
L75.0000 71.5000
" />
<path d="M104.2500 67.2500
L93.2500 78.2500
" />
<path d="M75.0000 71.5000
L74.0000 70.5000
" />
<path d="M75.0000 72.5000
L76.0000 72.5000
" />
<path d="M75.0000 73.5000
L74.5000 73.5000
" />
<path d="M75.5000 74.0000
L75.5000 77.0000
" />
<path d="M74.5000 73.5000
L71.5000 70.5000
" />
<path d="M69.2500 75.0000
L69.8500 74.4000
" />
<path d="M76.5000 76.0000
L75.5000 77.0000
" />
<path d="M76.7500 78.2500
L75.5000 77.0000
" />
<path d="M75.5000 80.5000
L75.5000 77.0000
" />
<path d="M75.0000 81.0000
L75.5000 80.5000
" />
<path d="M76.0000 72.5000
L76.5000 73.0000
" />
<path d="M70.0000 81.0000
L75.0000 81.0000
" />
<path d="M69.8500 72.1000
L69.7500 72.0000
" />
<path d="M75.0000 73.5000
L75.5000 74.0000
" />
</g> 
</svg>
