G04 #@! TF.GenerationSoftware,KiCad,Pcbnew,10.0.2*
G04 #@! TF.CreationDate,2026-07-28T18:36:04-05:00*
G04 #@! TF.ProjectId,PCBv2,50434276-322e-46b6-9963-61645f706362,v2*
G04 #@! TF.SameCoordinates,Original*
G04 #@! TF.FileFunction,Paste,Top*
G04 #@! TF.FilePolarity,Positive*
%FSLAX46Y46*%
G04 Gerber Fmt 4.6, Leading zero omitted, Abs format (unit mm)*
G04 Created by KiCad (PCBNEW 10.0.2) date 2026-07-28 18:36:04*
%MOMM*%
%LPD*%
G01*
G04 APERTURE LIST*
G04 Aperture macros list*
%AMRoundRect*
0 Rectangle with rounded corners*
0 $1 Rounding radius*
0 $2 $3 $4 $5 $6 $7 $8 $9 X,Y pos of 4 corners*
0 Add a 4 corners polygon primitive as box body*
4,1,4,$2,$3,$4,$5,$6,$7,$8,$9,$2,$3,0*
0 Add four circle primitives for the rounded corners*
1,1,$1+$1,$2,$3*
1,1,$1+$1,$4,$5*
1,1,$1+$1,$6,$7*
1,1,$1+$1,$8,$9*
0 Add four rect primitives between the rounded corners*
20,1,$1+$1,$2,$3,$4,$5,0*
20,1,$1+$1,$4,$5,$6,$7,0*
20,1,$1+$1,$6,$7,$8,$9,0*
20,1,$1+$1,$8,$9,$2,$3,0*%
G04 Aperture macros list end*
%ADD10RoundRect,0.250000X0.350000X0.450000X-0.350000X0.450000X-0.350000X-0.450000X0.350000X-0.450000X0*%
%ADD11R,2.794000X1.244600*%
%ADD12RoundRect,0.250000X0.337500X0.475000X-0.337500X0.475000X-0.337500X-0.475000X0.337500X-0.475000X0*%
%ADD13RoundRect,0.250000X-0.337500X-0.475000X0.337500X-0.475000X0.337500X0.475000X-0.337500X0.475000X0*%
%ADD14R,0.203200X0.508000*%
%ADD15R,1.003300X0.457200*%
%ADD16RoundRect,0.250000X-0.350000X-0.450000X0.350000X-0.450000X0.350000X0.450000X-0.350000X0.450000X0*%
%ADD17RoundRect,0.250000X0.450000X-0.350000X0.450000X0.350000X-0.450000X0.350000X-0.450000X-0.350000X0*%
%ADD18RoundRect,0.250000X0.475000X-0.337500X0.475000X0.337500X-0.475000X0.337500X-0.475000X-0.337500X0*%
%ADD19RoundRect,0.250000X-0.450000X0.350000X-0.450000X-0.350000X0.450000X-0.350000X0.450000X0.350000X0*%
%ADD20RoundRect,0.250000X-0.475000X0.337500X-0.475000X-0.337500X0.475000X-0.337500X0.475000X0.337500X0*%
%ADD21R,1.500000X0.900000*%
%ADD22R,0.900000X1.500000*%
%ADD23R,0.900000X0.900000*%
%ADD24R,0.600000X1.150000*%
%ADD25R,0.300000X1.150000*%
%ADD26R,0.939800X1.752600*%
G04 APERTURE END LIST*
D10*
G04 #@! TO.C,R3*
X75712500Y-38500000D03*
X73712500Y-38500000D03*
G04 #@! TD*
D11*
G04 #@! TO.C,L1*
X67000000Y-73000000D03*
X67000000Y-70028200D03*
G04 #@! TD*
D12*
G04 #@! TO.C,C9*
X67500000Y-63000000D03*
X65425000Y-63000000D03*
G04 #@! TD*
D13*
G04 #@! TO.C,C3*
X65925000Y-75000000D03*
X68000000Y-75000000D03*
G04 #@! TD*
D12*
G04 #@! TO.C,C8*
X67500000Y-65750000D03*
X65425000Y-65750000D03*
G04 #@! TD*
D14*
G04 #@! TO.C,CR1*
X73284100Y-80750000D03*
X72674500Y-80750000D03*
G04 #@! TD*
D15*
G04 #@! TO.C,U2*
X71000000Y-72000000D03*
X71000000Y-72649998D03*
X71000000Y-73300000D03*
X71000000Y-73949998D03*
X73705100Y-73949998D03*
X73705100Y-73300000D03*
X73705100Y-72649998D03*
X73705100Y-72000000D03*
G04 #@! TD*
D14*
G04 #@! TO.C,CR2*
X71195200Y-80750000D03*
X71804800Y-80750000D03*
G04 #@! TD*
D16*
G04 #@! TO.C,R10*
X80000000Y-69000000D03*
X82000000Y-69000000D03*
G04 #@! TD*
D10*
G04 #@! TO.C,R8*
X82000000Y-71000000D03*
X80000000Y-71000000D03*
G04 #@! TD*
D17*
G04 #@! TO.C,R5*
X71000000Y-69000000D03*
X71000000Y-67000000D03*
G04 #@! TD*
G04 #@! TO.C,R2*
X78500000Y-84500000D03*
X78500000Y-82500000D03*
G04 #@! TD*
D13*
G04 #@! TO.C,C2*
X65925000Y-77000000D03*
X68000000Y-77000000D03*
G04 #@! TD*
D18*
G04 #@! TO.C,C4*
X73500000Y-69000000D03*
X73500000Y-66925000D03*
G04 #@! TD*
D10*
G04 #@! TO.C,R1*
X66000000Y-84500000D03*
X64000000Y-84500000D03*
G04 #@! TD*
D19*
G04 #@! TO.C,R11*
X84500000Y-57500000D03*
X84500000Y-59500000D03*
G04 #@! TD*
D20*
G04 #@! TO.C,C6*
X79250000Y-74425000D03*
X79250000Y-76500000D03*
G04 #@! TD*
D21*
G04 #@! TO.C,U1*
X81500000Y-37300000D03*
X81500000Y-38570000D03*
X81500000Y-39840000D03*
X81500000Y-41110000D03*
X81500000Y-42380000D03*
X81500000Y-43650000D03*
X81500000Y-44920000D03*
X81500000Y-46190000D03*
X81500000Y-47460000D03*
X81500000Y-48730000D03*
X81500000Y-50000000D03*
X81500000Y-51270000D03*
X81500000Y-52540000D03*
X81500000Y-53810000D03*
D22*
X83265000Y-55060000D03*
X84535000Y-55060000D03*
X85805000Y-55060000D03*
X87075000Y-55060000D03*
X88345000Y-55060000D03*
X89615000Y-55060000D03*
X90885000Y-55060000D03*
X92155000Y-55060000D03*
X93425000Y-55060000D03*
X94695000Y-55060000D03*
X95965000Y-55060000D03*
X97235000Y-55060000D03*
D21*
X99000000Y-53810000D03*
X99000000Y-52540000D03*
X99000000Y-51270000D03*
X99000000Y-50000000D03*
X99000000Y-48730000D03*
X99000000Y-47460000D03*
X99000000Y-46190000D03*
X99000000Y-44920000D03*
X99000000Y-43650000D03*
X99000000Y-42380000D03*
X99000000Y-41110000D03*
X99000000Y-39840000D03*
X99000000Y-38570000D03*
X99000000Y-37300000D03*
D23*
X88750000Y-45020000D03*
X87350000Y-45020000D03*
X90150000Y-45020000D03*
X87350000Y-46420000D03*
X88750000Y-46420000D03*
X90150000Y-46420000D03*
X87350000Y-43620000D03*
X88750000Y-43620000D03*
X90150000Y-43620000D03*
G04 #@! TD*
D24*
G04 #@! TO.C,J1*
X69120000Y-82255000D03*
X69920000Y-82255000D03*
D25*
X71070000Y-82255000D03*
X72070000Y-82255000D03*
X72570000Y-82255000D03*
X73570000Y-82255000D03*
D24*
X75520000Y-82255000D03*
X74720000Y-82255000D03*
D25*
X74070000Y-82255000D03*
X73070000Y-82255000D03*
X71570000Y-82255000D03*
X70570000Y-82255000D03*
G04 #@! TD*
D17*
G04 #@! TO.C,R12*
X101500000Y-54500000D03*
X101500000Y-52500000D03*
G04 #@! TD*
D10*
G04 #@! TO.C,R7*
X78000000Y-71000000D03*
X76000000Y-71000000D03*
G04 #@! TD*
G04 #@! TO.C,R9*
X78000000Y-69000000D03*
X76000000Y-69000000D03*
G04 #@! TD*
D19*
G04 #@! TO.C,R6*
X77000000Y-74500000D03*
X77000000Y-76500000D03*
G04 #@! TD*
D13*
G04 #@! TO.C,C1*
X73712500Y-40750000D03*
X75787500Y-40750000D03*
G04 #@! TD*
D26*
G04 #@! TO.C,U3*
X69968000Y-77000000D03*
X74032000Y-77000000D03*
G04 #@! TD*
D12*
G04 #@! TO.C,C7*
X74000000Y-63750000D03*
X71925000Y-63750000D03*
G04 #@! TD*
M02*
