%TF.GenerationSoftware,KiCad,Pcbnew,10.0.2*%
%TF.CreationDate,2026-07-28T18:36:04-05:00*%
%TF.ProjectId,PCBv2,50434276-322e-46b6-9963-61645f706362,v2*%
%TF.SameCoordinates,Original*%
%TF.FileFunction,Drillmap*%
%TF.FilePolarity,Positive*%
%FSLAX45Y45*%
G04 Gerber Fmt 4.5, Leading zero omitted, Abs format (unit mm)*
G04 Created by KiCad (PCBNEW 10.0.2) date 2026-07-28 18:36:04*
%MOMM*%
%LPD*%
G01*
G04 APERTURE LIST*
%ADD10C,0.050000*%
%ADD11C,0.200000*%
%ADD12C,0.100000*%
%ADD13C,0.320000*%
G04 APERTURE END LIST*
D10*
X5000000Y-2950000D02*
X14000000Y-2950000D01*
X14000000Y-9000000D01*
X5000000Y-9000000D01*
X5000000Y-2950000D01*
D11*
D12*
X8725000Y-4422000D02*
X8745000Y-4442000D01*
X8745000Y-4422000D02*
X8725000Y-4442000D01*
X8725000Y-4562000D02*
X8745000Y-4582000D01*
X8745000Y-4562000D02*
X8725000Y-4582000D01*
X8795000Y-4352000D02*
X8815000Y-4372000D01*
X8815000Y-4352000D02*
X8795000Y-4372000D01*
X8795000Y-4492000D02*
X8815000Y-4512000D01*
X8815000Y-4492000D02*
X8795000Y-4512000D01*
X8795000Y-4632000D02*
X8815000Y-4652000D01*
X8815000Y-4632000D02*
X8795000Y-4652000D01*
X8865000Y-4422000D02*
X8885000Y-4442000D01*
X8885000Y-4422000D02*
X8865000Y-4442000D01*
X8865000Y-4562000D02*
X8885000Y-4582000D01*
X8885000Y-4562000D02*
X8865000Y-4582000D01*
X8935000Y-4352000D02*
X8955000Y-4372000D01*
X8955000Y-4352000D02*
X8935000Y-4372000D01*
X8935000Y-4492000D02*
X8955000Y-4512000D01*
X8955000Y-4492000D02*
X8935000Y-4512000D01*
X8935000Y-4632000D02*
X8955000Y-4652000D01*
X8955000Y-4632000D02*
X8935000Y-4652000D01*
X9005000Y-4422000D02*
X9025000Y-4442000D01*
X9025000Y-4422000D02*
X9005000Y-4442000D01*
X9005000Y-4562000D02*
X9025000Y-4582000D01*
X9025000Y-4562000D02*
X9005000Y-4582000D01*
X6365000Y-8300000D02*
G75*
G02*
X6335000Y-8300000I-15000J0D01*
G01*
X6335000Y-8300000D02*
G75*
G02*
X6365000Y-8300000I15000J0D01*
G01*
X6440000Y-6300000D02*
G75*
G02*
X6410000Y-6300000I-15000J0D01*
G01*
X6410000Y-6300000D02*
G75*
G02*
X6440000Y-6300000I15000J0D01*
G01*
X6440000Y-6575000D02*
G75*
G02*
X6410000Y-6575000I-15000J0D01*
G01*
X6410000Y-6575000D02*
G75*
G02*
X6440000Y-6575000I15000J0D01*
G01*
X6488884Y-7798544D02*
G75*
G02*
X6458884Y-7798544I-15000J0D01*
G01*
X6458884Y-7798544D02*
G75*
G02*
X6488884Y-7798544I15000J0D01*
G01*
X6490000Y-7375000D02*
G75*
G02*
X6460000Y-7375000I-15000J0D01*
G01*
X6460000Y-7375000D02*
G75*
G02*
X6490000Y-7375000I15000J0D01*
G01*
X6715000Y-6850000D02*
G75*
G02*
X6685000Y-6850000I-15000J0D01*
G01*
X6685000Y-6850000D02*
G75*
G02*
X6715000Y-6850000I15000J0D01*
G01*
X6865000Y-8100000D02*
G75*
G02*
X6835000Y-8100000I-15000J0D01*
G01*
X6835000Y-8100000D02*
G75*
G02*
X6865000Y-8100000I15000J0D01*
G01*
X6890000Y-6200000D02*
G75*
G02*
X6860000Y-6200000I-15000J0D01*
G01*
X6860000Y-6200000D02*
G75*
G02*
X6890000Y-6200000I15000J0D01*
G01*
X6940000Y-7275000D02*
G75*
G02*
X6910000Y-7275000I-15000J0D01*
G01*
X6910000Y-7275000D02*
G75*
G02*
X6940000Y-7275000I15000J0D01*
G01*
X6940000Y-7500000D02*
G75*
G02*
X6910000Y-7500000I-15000J0D01*
G01*
X6910000Y-7500000D02*
G75*
G02*
X6940000Y-7500000I15000J0D01*
G01*
X6990000Y-6700000D02*
G75*
G02*
X6960000Y-6700000I-15000J0D01*
G01*
X6960000Y-6700000D02*
G75*
G02*
X6990000Y-6700000I15000J0D01*
G01*
X6990000Y-7200000D02*
G75*
G02*
X6960000Y-7200000I-15000J0D01*
G01*
X6960000Y-7200000D02*
G75*
G02*
X6990000Y-7200000I15000J0D01*
G01*
X7015000Y-8100000D02*
G75*
G02*
X6985000Y-8100000I-15000J0D01*
G01*
X6985000Y-8100000D02*
G75*
G02*
X7015000Y-8100000I15000J0D01*
G01*
X7065000Y-7500000D02*
G75*
G02*
X7035000Y-7500000I-15000J0D01*
G01*
X7035000Y-7500000D02*
G75*
G02*
X7065000Y-7500000I15000J0D01*
G01*
X7090000Y-6350000D02*
G75*
G02*
X7060000Y-6350000I-15000J0D01*
G01*
X7060000Y-6350000D02*
G75*
G02*
X7090000Y-6350000I15000J0D01*
G01*
X7090000Y-8000000D02*
G75*
G02*
X7060000Y-8000000I-15000J0D01*
G01*
X7060000Y-8000000D02*
G75*
G02*
X7090000Y-8000000I15000J0D01*
G01*
X7165000Y-7050000D02*
G75*
G02*
X7135000Y-7050000I-15000J0D01*
G01*
X7135000Y-7050000D02*
G75*
G02*
X7165000Y-7050000I15000J0D01*
G01*
X7215000Y-7975000D02*
G75*
G02*
X7185000Y-7975000I-15000J0D01*
G01*
X7185000Y-7975000D02*
G75*
G02*
X7215000Y-7975000I15000J0D01*
G01*
X7265000Y-4075000D02*
G75*
G02*
X7235000Y-4075000I-15000J0D01*
G01*
X7235000Y-4075000D02*
G75*
G02*
X7265000Y-4075000I15000J0D01*
G01*
X7290000Y-7975000D02*
G75*
G02*
X7260000Y-7975000I-15000J0D01*
G01*
X7260000Y-7975000D02*
G75*
G02*
X7290000Y-7975000I15000J0D01*
G01*
X7415000Y-7050000D02*
G75*
G02*
X7385000Y-7050000I-15000J0D01*
G01*
X7385000Y-7050000D02*
G75*
G02*
X7415000Y-7050000I15000J0D01*
G01*
X7415000Y-8050000D02*
G75*
G02*
X7385000Y-8050000I-15000J0D01*
G01*
X7385000Y-8050000D02*
G75*
G02*
X7415000Y-8050000I15000J0D01*
G01*
X7465000Y-6575000D02*
G75*
G02*
X7435000Y-6575000I-15000J0D01*
G01*
X7435000Y-6575000D02*
G75*
G02*
X7465000Y-6575000I15000J0D01*
G01*
X7515000Y-7250000D02*
G75*
G02*
X7485000Y-7250000I-15000J0D01*
G01*
X7485000Y-7250000D02*
G75*
G02*
X7515000Y-7250000I15000J0D01*
G01*
X7515000Y-7350000D02*
G75*
G02*
X7485000Y-7350000I-15000J0D01*
G01*
X7485000Y-7350000D02*
G75*
G02*
X7515000Y-7350000I15000J0D01*
G01*
X7515000Y-8100000D02*
G75*
G02*
X7485000Y-8100000I-15000J0D01*
G01*
X7485000Y-8100000D02*
G75*
G02*
X7515000Y-8100000I15000J0D01*
G01*
X7565000Y-7700000D02*
G75*
G02*
X7535000Y-7700000I-15000J0D01*
G01*
X7535000Y-7700000D02*
G75*
G02*
X7565000Y-7700000I15000J0D01*
G01*
X7665000Y-8100000D02*
G75*
G02*
X7635000Y-8100000I-15000J0D01*
G01*
X7635000Y-8100000D02*
G75*
G02*
X7665000Y-8100000I15000J0D01*
G01*
X7715000Y-3850000D02*
G75*
G02*
X7685000Y-3850000I-15000J0D01*
G01*
X7685000Y-3850000D02*
G75*
G02*
X7715000Y-3850000I15000J0D01*
G01*
X7990000Y-5275000D02*
G75*
G02*
X7960000Y-5275000I-15000J0D01*
G01*
X7960000Y-5275000D02*
G75*
G02*
X7990000Y-5275000I15000J0D01*
G01*
X8015000Y-3650000D02*
G75*
G02*
X7985000Y-3650000I-15000J0D01*
G01*
X7985000Y-3650000D02*
G75*
G02*
X8015000Y-3650000I15000J0D01*
G01*
X8015000Y-5425000D02*
G75*
G02*
X7985000Y-5425000I-15000J0D01*
G01*
X7985000Y-5425000D02*
G75*
G02*
X8015000Y-5425000I15000J0D01*
G01*
X8015000Y-8200000D02*
G75*
G02*
X7985000Y-8200000I-15000J0D01*
G01*
X7985000Y-8200000D02*
G75*
G02*
X8015000Y-8200000I15000J0D01*
G01*
X8090000Y-7400000D02*
G75*
G02*
X8060000Y-7400000I-15000J0D01*
G01*
X8060000Y-7400000D02*
G75*
G02*
X8090000Y-7400000I15000J0D01*
G01*
X8365000Y-7100000D02*
G75*
G02*
X8335000Y-7100000I-15000J0D01*
G01*
X8335000Y-7100000D02*
G75*
G02*
X8365000Y-7100000I15000J0D01*
G01*
X8465000Y-6075000D02*
G75*
G02*
X8435000Y-6075000I-15000J0D01*
G01*
X8435000Y-6075000D02*
G75*
G02*
X8465000Y-6075000I15000J0D01*
G01*
X10065000Y-3675000D02*
G75*
G02*
X10035000Y-3675000I-15000J0D01*
G01*
X10035000Y-3675000D02*
G75*
G02*
X10065000Y-3675000I15000J0D01*
G01*
X10165000Y-5575000D02*
G75*
G02*
X10135000Y-5575000I-15000J0D01*
G01*
X10135000Y-5575000D02*
G75*
G02*
X10165000Y-5575000I15000J0D01*
G01*
X10440000Y-6725000D02*
G75*
G02*
X10410000Y-6725000I-15000J0D01*
G01*
X10410000Y-6725000D02*
G75*
G02*
X10440000Y-6725000I15000J0D01*
G01*
X6800000Y-8252000D02*
X6800000Y-8312000D01*
X6770000Y-8282000D02*
X6830000Y-8282000D01*
X6770000Y-8227000D02*
X6770000Y-8337000D01*
X6830000Y-8337000D02*
G75*
G02*
X6770000Y-8337000I-30000J0D01*
G01*
X6830000Y-8337000D02*
X6830000Y-8227000D01*
X6830000Y-8227000D02*
G75*
G03*
X6770000Y-8227000I-30000J0D01*
G01*
X6800000Y-8670000D02*
X6800000Y-8730000D01*
X6770000Y-8700000D02*
X6830000Y-8700000D01*
X6770000Y-8660000D02*
X6770000Y-8740000D01*
X6830000Y-8740000D02*
G75*
G02*
X6770000Y-8740000I-30000J0D01*
G01*
X6830000Y-8740000D02*
X6830000Y-8660000D01*
X6830000Y-8660000D02*
G75*
G03*
X6770000Y-8660000I-30000J0D01*
G01*
X7664000Y-8252000D02*
X7664000Y-8312000D01*
X7634000Y-8282000D02*
X7694000Y-8282000D01*
X7634000Y-8227000D02*
X7634000Y-8337000D01*
X7694000Y-8337000D02*
G75*
G02*
X7634000Y-8337000I-30000J0D01*
G01*
X7694000Y-8337000D02*
X7694000Y-8227000D01*
X7694000Y-8227000D02*
G75*
G03*
X7634000Y-8227000I-30000J0D01*
G01*
X7664000Y-8670000D02*
X7664000Y-8730000D01*
X7634000Y-8700000D02*
X7694000Y-8700000D01*
X7634000Y-8660000D02*
X7634000Y-8740000D01*
X7694000Y-8740000D02*
G75*
G02*
X7634000Y-8740000I-30000J0D01*
G01*
X7694000Y-8740000D02*
X7694000Y-8660000D01*
X7694000Y-8660000D02*
G75*
G03*
X7634000Y-8660000I-30000J0D01*
G01*
X9435356Y-6535356D02*
X9435356Y-6464644D01*
X9364644Y-6464644D01*
X9364644Y-6535356D01*
X9435356Y-6535356D01*
X9689356Y-6535356D02*
X9689356Y-6464644D01*
X9618644Y-6464644D01*
X9618644Y-6535356D01*
X9689356Y-6535356D01*
X9943356Y-6535356D02*
X9943356Y-6464644D01*
X9872644Y-6464644D01*
X9872644Y-6535356D01*
X9943356Y-6535356D01*
X10197356Y-6535356D02*
X10197356Y-6464644D01*
X10126644Y-6464644D01*
X10126644Y-6535356D01*
X10197356Y-6535356D01*
X10451356Y-6535356D02*
X10451356Y-6464644D01*
X10380644Y-6464644D01*
X10380644Y-6535356D01*
X10451356Y-6535356D01*
D13*
X5500000Y-3560000D02*
X5660000Y-3400000D01*
X5500000Y-3240000D01*
X5340000Y-3400000D01*
X5500000Y-3560000D01*
X5500000Y-8660000D02*
X5660000Y-8500000D01*
X5500000Y-8340000D01*
X5340000Y-8500000D01*
X5500000Y-8660000D01*
X13500000Y-3560000D02*
X13660000Y-3400000D01*
X13500000Y-3240000D01*
X13340000Y-3400000D01*
X13500000Y-3560000D01*
X13500000Y-8660000D02*
X13660000Y-8500000D01*
X13500000Y-8340000D01*
X13340000Y-8500000D01*
X13500000Y-8660000D01*
D11*
X5258277Y-9313984D02*
X5258277Y-9113984D01*
X5258277Y-9113984D02*
X5305896Y-9113984D01*
X5305896Y-9113984D02*
X5334467Y-9123508D01*
X5334467Y-9123508D02*
X5353515Y-9142555D01*
X5353515Y-9142555D02*
X5363039Y-9161603D01*
X5363039Y-9161603D02*
X5372563Y-9199698D01*
X5372563Y-9199698D02*
X5372563Y-9228270D01*
X5372563Y-9228270D02*
X5363039Y-9266365D01*
X5363039Y-9266365D02*
X5353515Y-9285412D01*
X5353515Y-9285412D02*
X5334467Y-9304460D01*
X5334467Y-9304460D02*
X5305896Y-9313984D01*
X5305896Y-9313984D02*
X5258277Y-9313984D01*
X5458277Y-9313984D02*
X5458277Y-9180650D01*
X5458277Y-9218746D02*
X5467801Y-9199698D01*
X5467801Y-9199698D02*
X5477324Y-9190174D01*
X5477324Y-9190174D02*
X5496372Y-9180650D01*
X5496372Y-9180650D02*
X5515420Y-9180650D01*
X5582086Y-9313984D02*
X5582086Y-9180650D01*
X5582086Y-9113984D02*
X5572563Y-9123508D01*
X5572563Y-9123508D02*
X5582086Y-9133031D01*
X5582086Y-9133031D02*
X5591610Y-9123508D01*
X5591610Y-9123508D02*
X5582086Y-9113984D01*
X5582086Y-9113984D02*
X5582086Y-9133031D01*
X5705896Y-9313984D02*
X5686848Y-9304460D01*
X5686848Y-9304460D02*
X5677324Y-9285412D01*
X5677324Y-9285412D02*
X5677324Y-9113984D01*
X5810658Y-9313984D02*
X5791610Y-9304460D01*
X5791610Y-9304460D02*
X5782086Y-9285412D01*
X5782086Y-9285412D02*
X5782086Y-9113984D01*
X6039229Y-9313984D02*
X6039229Y-9113984D01*
X6039229Y-9113984D02*
X6105896Y-9256841D01*
X6105896Y-9256841D02*
X6172562Y-9113984D01*
X6172562Y-9113984D02*
X6172562Y-9313984D01*
X6353515Y-9313984D02*
X6353515Y-9209222D01*
X6353515Y-9209222D02*
X6343991Y-9190174D01*
X6343991Y-9190174D02*
X6324943Y-9180650D01*
X6324943Y-9180650D02*
X6286848Y-9180650D01*
X6286848Y-9180650D02*
X6267801Y-9190174D01*
X6353515Y-9304460D02*
X6334467Y-9313984D01*
X6334467Y-9313984D02*
X6286848Y-9313984D01*
X6286848Y-9313984D02*
X6267801Y-9304460D01*
X6267801Y-9304460D02*
X6258277Y-9285412D01*
X6258277Y-9285412D02*
X6258277Y-9266365D01*
X6258277Y-9266365D02*
X6267801Y-9247317D01*
X6267801Y-9247317D02*
X6286848Y-9237793D01*
X6286848Y-9237793D02*
X6334467Y-9237793D01*
X6334467Y-9237793D02*
X6353515Y-9228270D01*
X6448753Y-9180650D02*
X6448753Y-9380650D01*
X6448753Y-9190174D02*
X6467801Y-9180650D01*
X6467801Y-9180650D02*
X6505896Y-9180650D01*
X6505896Y-9180650D02*
X6524943Y-9190174D01*
X6524943Y-9190174D02*
X6534467Y-9199698D01*
X6534467Y-9199698D02*
X6543991Y-9218746D01*
X6543991Y-9218746D02*
X6543991Y-9275889D01*
X6543991Y-9275889D02*
X6534467Y-9294936D01*
X6534467Y-9294936D02*
X6524943Y-9304460D01*
X6524943Y-9304460D02*
X6505896Y-9313984D01*
X6505896Y-9313984D02*
X6467801Y-9313984D01*
X6467801Y-9313984D02*
X6448753Y-9304460D01*
X6629705Y-9294936D02*
X6639229Y-9304460D01*
X6639229Y-9304460D02*
X6629705Y-9313984D01*
X6629705Y-9313984D02*
X6620182Y-9304460D01*
X6620182Y-9304460D02*
X6629705Y-9294936D01*
X6629705Y-9294936D02*
X6629705Y-9313984D01*
X6629705Y-9190174D02*
X6639229Y-9199698D01*
X6639229Y-9199698D02*
X6629705Y-9209222D01*
X6629705Y-9209222D02*
X6620182Y-9199698D01*
X6620182Y-9199698D02*
X6629705Y-9190174D01*
X6629705Y-9190174D02*
X6629705Y-9209222D01*
D12*
X4977500Y-9632500D02*
X4997500Y-9652500D01*
X4997500Y-9632500D02*
X4977500Y-9652500D01*
D11*
X5296372Y-9533984D02*
X5315420Y-9533984D01*
X5315420Y-9533984D02*
X5334467Y-9543508D01*
X5334467Y-9543508D02*
X5343991Y-9553031D01*
X5343991Y-9553031D02*
X5353515Y-9572079D01*
X5353515Y-9572079D02*
X5363039Y-9610174D01*
X5363039Y-9610174D02*
X5363039Y-9657793D01*
X5363039Y-9657793D02*
X5353515Y-9695889D01*
X5353515Y-9695889D02*
X5343991Y-9714936D01*
X5343991Y-9714936D02*
X5334467Y-9724460D01*
X5334467Y-9724460D02*
X5315420Y-9733984D01*
X5315420Y-9733984D02*
X5296372Y-9733984D01*
X5296372Y-9733984D02*
X5277324Y-9724460D01*
X5277324Y-9724460D02*
X5267801Y-9714936D01*
X5267801Y-9714936D02*
X5258277Y-9695889D01*
X5258277Y-9695889D02*
X5248753Y-9657793D01*
X5248753Y-9657793D02*
X5248753Y-9610174D01*
X5248753Y-9610174D02*
X5258277Y-9572079D01*
X5258277Y-9572079D02*
X5267801Y-9553031D01*
X5267801Y-9553031D02*
X5277324Y-9543508D01*
X5277324Y-9543508D02*
X5296372Y-9533984D01*
X5448753Y-9714936D02*
X5458277Y-9724460D01*
X5458277Y-9724460D02*
X5448753Y-9733984D01*
X5448753Y-9733984D02*
X5439229Y-9724460D01*
X5439229Y-9724460D02*
X5448753Y-9714936D01*
X5448753Y-9714936D02*
X5448753Y-9733984D01*
X5534467Y-9553031D02*
X5543991Y-9543508D01*
X5543991Y-9543508D02*
X5563039Y-9533984D01*
X5563039Y-9533984D02*
X5610658Y-9533984D01*
X5610658Y-9533984D02*
X5629705Y-9543508D01*
X5629705Y-9543508D02*
X5639229Y-9553031D01*
X5639229Y-9553031D02*
X5648753Y-9572079D01*
X5648753Y-9572079D02*
X5648753Y-9591127D01*
X5648753Y-9591127D02*
X5639229Y-9619698D01*
X5639229Y-9619698D02*
X5524944Y-9733984D01*
X5524944Y-9733984D02*
X5648753Y-9733984D01*
X5772562Y-9533984D02*
X5791610Y-9533984D01*
X5791610Y-9533984D02*
X5810658Y-9543508D01*
X5810658Y-9543508D02*
X5820182Y-9553031D01*
X5820182Y-9553031D02*
X5829705Y-9572079D01*
X5829705Y-9572079D02*
X5839229Y-9610174D01*
X5839229Y-9610174D02*
X5839229Y-9657793D01*
X5839229Y-9657793D02*
X5829705Y-9695889D01*
X5829705Y-9695889D02*
X5820182Y-9714936D01*
X5820182Y-9714936D02*
X5810658Y-9724460D01*
X5810658Y-9724460D02*
X5791610Y-9733984D01*
X5791610Y-9733984D02*
X5772562Y-9733984D01*
X5772562Y-9733984D02*
X5753515Y-9724460D01*
X5753515Y-9724460D02*
X5743991Y-9714936D01*
X5743991Y-9714936D02*
X5734467Y-9695889D01*
X5734467Y-9695889D02*
X5724943Y-9657793D01*
X5724943Y-9657793D02*
X5724943Y-9610174D01*
X5724943Y-9610174D02*
X5734467Y-9572079D01*
X5734467Y-9572079D02*
X5743991Y-9553031D01*
X5743991Y-9553031D02*
X5753515Y-9543508D01*
X5753515Y-9543508D02*
X5772562Y-9533984D01*
X5963039Y-9533984D02*
X5982086Y-9533984D01*
X5982086Y-9533984D02*
X6001134Y-9543508D01*
X6001134Y-9543508D02*
X6010658Y-9553031D01*
X6010658Y-9553031D02*
X6020182Y-9572079D01*
X6020182Y-9572079D02*
X6029705Y-9610174D01*
X6029705Y-9610174D02*
X6029705Y-9657793D01*
X6029705Y-9657793D02*
X6020182Y-9695889D01*
X6020182Y-9695889D02*
X6010658Y-9714936D01*
X6010658Y-9714936D02*
X6001134Y-9724460D01*
X6001134Y-9724460D02*
X5982086Y-9733984D01*
X5982086Y-9733984D02*
X5963039Y-9733984D01*
X5963039Y-9733984D02*
X5943991Y-9724460D01*
X5943991Y-9724460D02*
X5934467Y-9714936D01*
X5934467Y-9714936D02*
X5924943Y-9695889D01*
X5924943Y-9695889D02*
X5915420Y-9657793D01*
X5915420Y-9657793D02*
X5915420Y-9610174D01*
X5915420Y-9610174D02*
X5924943Y-9572079D01*
X5924943Y-9572079D02*
X5934467Y-9553031D01*
X5934467Y-9553031D02*
X5943991Y-9543508D01*
X5943991Y-9543508D02*
X5963039Y-9533984D01*
X6115420Y-9733984D02*
X6115420Y-9600650D01*
X6115420Y-9619698D02*
X6124943Y-9610174D01*
X6124943Y-9610174D02*
X6143991Y-9600650D01*
X6143991Y-9600650D02*
X6172563Y-9600650D01*
X6172563Y-9600650D02*
X6191610Y-9610174D01*
X6191610Y-9610174D02*
X6201134Y-9629222D01*
X6201134Y-9629222D02*
X6201134Y-9733984D01*
X6201134Y-9629222D02*
X6210658Y-9610174D01*
X6210658Y-9610174D02*
X6229705Y-9600650D01*
X6229705Y-9600650D02*
X6258277Y-9600650D01*
X6258277Y-9600650D02*
X6277324Y-9610174D01*
X6277324Y-9610174D02*
X6286848Y-9629222D01*
X6286848Y-9629222D02*
X6286848Y-9733984D01*
X6382086Y-9733984D02*
X6382086Y-9600650D01*
X6382086Y-9619698D02*
X6391610Y-9610174D01*
X6391610Y-9610174D02*
X6410658Y-9600650D01*
X6410658Y-9600650D02*
X6439229Y-9600650D01*
X6439229Y-9600650D02*
X6458277Y-9610174D01*
X6458277Y-9610174D02*
X6467801Y-9629222D01*
X6467801Y-9629222D02*
X6467801Y-9733984D01*
X6467801Y-9629222D02*
X6477324Y-9610174D01*
X6477324Y-9610174D02*
X6496372Y-9600650D01*
X6496372Y-9600650D02*
X6524943Y-9600650D01*
X6524943Y-9600650D02*
X6543991Y-9610174D01*
X6543991Y-9610174D02*
X6553515Y-9629222D01*
X6553515Y-9629222D02*
X6553515Y-9733984D01*
X6943991Y-9524460D02*
X6772563Y-9781603D01*
X7201134Y-9533984D02*
X7220182Y-9533984D01*
X7220182Y-9533984D02*
X7239229Y-9543508D01*
X7239229Y-9543508D02*
X7248753Y-9553031D01*
X7248753Y-9553031D02*
X7258277Y-9572079D01*
X7258277Y-9572079D02*
X7267801Y-9610174D01*
X7267801Y-9610174D02*
X7267801Y-9657793D01*
X7267801Y-9657793D02*
X7258277Y-9695889D01*
X7258277Y-9695889D02*
X7248753Y-9714936D01*
X7248753Y-9714936D02*
X7239229Y-9724460D01*
X7239229Y-9724460D02*
X7220182Y-9733984D01*
X7220182Y-9733984D02*
X7201134Y-9733984D01*
X7201134Y-9733984D02*
X7182086Y-9724460D01*
X7182086Y-9724460D02*
X7172563Y-9714936D01*
X7172563Y-9714936D02*
X7163039Y-9695889D01*
X7163039Y-9695889D02*
X7153515Y-9657793D01*
X7153515Y-9657793D02*
X7153515Y-9610174D01*
X7153515Y-9610174D02*
X7163039Y-9572079D01*
X7163039Y-9572079D02*
X7172563Y-9553031D01*
X7172563Y-9553031D02*
X7182086Y-9543508D01*
X7182086Y-9543508D02*
X7201134Y-9533984D01*
X7353515Y-9714936D02*
X7363039Y-9724460D01*
X7363039Y-9724460D02*
X7353515Y-9733984D01*
X7353515Y-9733984D02*
X7343991Y-9724460D01*
X7343991Y-9724460D02*
X7353515Y-9714936D01*
X7353515Y-9714936D02*
X7353515Y-9733984D01*
X7486848Y-9533984D02*
X7505896Y-9533984D01*
X7505896Y-9533984D02*
X7524944Y-9543508D01*
X7524944Y-9543508D02*
X7534467Y-9553031D01*
X7534467Y-9553031D02*
X7543991Y-9572079D01*
X7543991Y-9572079D02*
X7553515Y-9610174D01*
X7553515Y-9610174D02*
X7553515Y-9657793D01*
X7553515Y-9657793D02*
X7543991Y-9695889D01*
X7543991Y-9695889D02*
X7534467Y-9714936D01*
X7534467Y-9714936D02*
X7524944Y-9724460D01*
X7524944Y-9724460D02*
X7505896Y-9733984D01*
X7505896Y-9733984D02*
X7486848Y-9733984D01*
X7486848Y-9733984D02*
X7467801Y-9724460D01*
X7467801Y-9724460D02*
X7458277Y-9714936D01*
X7458277Y-9714936D02*
X7448753Y-9695889D01*
X7448753Y-9695889D02*
X7439229Y-9657793D01*
X7439229Y-9657793D02*
X7439229Y-9610174D01*
X7439229Y-9610174D02*
X7448753Y-9572079D01*
X7448753Y-9572079D02*
X7458277Y-9553031D01*
X7458277Y-9553031D02*
X7467801Y-9543508D01*
X7467801Y-9543508D02*
X7486848Y-9533984D01*
X7677325Y-9533984D02*
X7696372Y-9533984D01*
X7696372Y-9533984D02*
X7715420Y-9543508D01*
X7715420Y-9543508D02*
X7724944Y-9553031D01*
X7724944Y-9553031D02*
X7734467Y-9572079D01*
X7734467Y-9572079D02*
X7743991Y-9610174D01*
X7743991Y-9610174D02*
X7743991Y-9657793D01*
X7743991Y-9657793D02*
X7734467Y-9695889D01*
X7734467Y-9695889D02*
X7724944Y-9714936D01*
X7724944Y-9714936D02*
X7715420Y-9724460D01*
X7715420Y-9724460D02*
X7696372Y-9733984D01*
X7696372Y-9733984D02*
X7677325Y-9733984D01*
X7677325Y-9733984D02*
X7658277Y-9724460D01*
X7658277Y-9724460D02*
X7648753Y-9714936D01*
X7648753Y-9714936D02*
X7639229Y-9695889D01*
X7639229Y-9695889D02*
X7629706Y-9657793D01*
X7629706Y-9657793D02*
X7629706Y-9610174D01*
X7629706Y-9610174D02*
X7639229Y-9572079D01*
X7639229Y-9572079D02*
X7648753Y-9553031D01*
X7648753Y-9553031D02*
X7658277Y-9543508D01*
X7658277Y-9543508D02*
X7677325Y-9533984D01*
X7810658Y-9533984D02*
X7943991Y-9533984D01*
X7943991Y-9533984D02*
X7858277Y-9733984D01*
X8029706Y-9733984D02*
X8067801Y-9733984D01*
X8067801Y-9733984D02*
X8086848Y-9724460D01*
X8086848Y-9724460D02*
X8096372Y-9714936D01*
X8096372Y-9714936D02*
X8115420Y-9686365D01*
X8115420Y-9686365D02*
X8124944Y-9648270D01*
X8124944Y-9648270D02*
X8124944Y-9572079D01*
X8124944Y-9572079D02*
X8115420Y-9553031D01*
X8115420Y-9553031D02*
X8105896Y-9543508D01*
X8105896Y-9543508D02*
X8086848Y-9533984D01*
X8086848Y-9533984D02*
X8048753Y-9533984D01*
X8048753Y-9533984D02*
X8029706Y-9543508D01*
X8029706Y-9543508D02*
X8020182Y-9553031D01*
X8020182Y-9553031D02*
X8010658Y-9572079D01*
X8010658Y-9572079D02*
X8010658Y-9619698D01*
X8010658Y-9619698D02*
X8020182Y-9638746D01*
X8020182Y-9638746D02*
X8029706Y-9648270D01*
X8029706Y-9648270D02*
X8048753Y-9657793D01*
X8048753Y-9657793D02*
X8086848Y-9657793D01*
X8086848Y-9657793D02*
X8105896Y-9648270D01*
X8105896Y-9648270D02*
X8115420Y-9638746D01*
X8115420Y-9638746D02*
X8124944Y-9619698D01*
X8201134Y-9533984D02*
X8201134Y-9572079D01*
X8277325Y-9533984D02*
X8277325Y-9572079D01*
X8572563Y-9810174D02*
X8563039Y-9800650D01*
X8563039Y-9800650D02*
X8543991Y-9772079D01*
X8543991Y-9772079D02*
X8534468Y-9753031D01*
X8534468Y-9753031D02*
X8524944Y-9724460D01*
X8524944Y-9724460D02*
X8515420Y-9676841D01*
X8515420Y-9676841D02*
X8515420Y-9638746D01*
X8515420Y-9638746D02*
X8524944Y-9591127D01*
X8524944Y-9591127D02*
X8534468Y-9562555D01*
X8534468Y-9562555D02*
X8543991Y-9543508D01*
X8543991Y-9543508D02*
X8563039Y-9514936D01*
X8563039Y-9514936D02*
X8572563Y-9505412D01*
X8753515Y-9733984D02*
X8639230Y-9733984D01*
X8696372Y-9733984D02*
X8696372Y-9533984D01*
X8696372Y-9533984D02*
X8677325Y-9562555D01*
X8677325Y-9562555D02*
X8658277Y-9581603D01*
X8658277Y-9581603D02*
X8639230Y-9591127D01*
X8829706Y-9553031D02*
X8839230Y-9543508D01*
X8839230Y-9543508D02*
X8858277Y-9533984D01*
X8858277Y-9533984D02*
X8905896Y-9533984D01*
X8905896Y-9533984D02*
X8924944Y-9543508D01*
X8924944Y-9543508D02*
X8934468Y-9553031D01*
X8934468Y-9553031D02*
X8943991Y-9572079D01*
X8943991Y-9572079D02*
X8943991Y-9591127D01*
X8943991Y-9591127D02*
X8934468Y-9619698D01*
X8934468Y-9619698D02*
X8820182Y-9733984D01*
X8820182Y-9733984D02*
X8943991Y-9733984D01*
X9182087Y-9733984D02*
X9182087Y-9533984D01*
X9267801Y-9733984D02*
X9267801Y-9629222D01*
X9267801Y-9629222D02*
X9258277Y-9610174D01*
X9258277Y-9610174D02*
X9239230Y-9600650D01*
X9239230Y-9600650D02*
X9210658Y-9600650D01*
X9210658Y-9600650D02*
X9191611Y-9610174D01*
X9191611Y-9610174D02*
X9182087Y-9619698D01*
X9391611Y-9733984D02*
X9372563Y-9724460D01*
X9372563Y-9724460D02*
X9363039Y-9714936D01*
X9363039Y-9714936D02*
X9353515Y-9695889D01*
X9353515Y-9695889D02*
X9353515Y-9638746D01*
X9353515Y-9638746D02*
X9363039Y-9619698D01*
X9363039Y-9619698D02*
X9372563Y-9610174D01*
X9372563Y-9610174D02*
X9391611Y-9600650D01*
X9391611Y-9600650D02*
X9420182Y-9600650D01*
X9420182Y-9600650D02*
X9439230Y-9610174D01*
X9439230Y-9610174D02*
X9448753Y-9619698D01*
X9448753Y-9619698D02*
X9458277Y-9638746D01*
X9458277Y-9638746D02*
X9458277Y-9695889D01*
X9458277Y-9695889D02*
X9448753Y-9714936D01*
X9448753Y-9714936D02*
X9439230Y-9724460D01*
X9439230Y-9724460D02*
X9420182Y-9733984D01*
X9420182Y-9733984D02*
X9391611Y-9733984D01*
X9572563Y-9733984D02*
X9553515Y-9724460D01*
X9553515Y-9724460D02*
X9543992Y-9705412D01*
X9543992Y-9705412D02*
X9543992Y-9533984D01*
X9724944Y-9724460D02*
X9705896Y-9733984D01*
X9705896Y-9733984D02*
X9667801Y-9733984D01*
X9667801Y-9733984D02*
X9648753Y-9724460D01*
X9648753Y-9724460D02*
X9639230Y-9705412D01*
X9639230Y-9705412D02*
X9639230Y-9629222D01*
X9639230Y-9629222D02*
X9648753Y-9610174D01*
X9648753Y-9610174D02*
X9667801Y-9600650D01*
X9667801Y-9600650D02*
X9705896Y-9600650D01*
X9705896Y-9600650D02*
X9724944Y-9610174D01*
X9724944Y-9610174D02*
X9734468Y-9629222D01*
X9734468Y-9629222D02*
X9734468Y-9648270D01*
X9734468Y-9648270D02*
X9639230Y-9667317D01*
X9810658Y-9724460D02*
X9829706Y-9733984D01*
X9829706Y-9733984D02*
X9867801Y-9733984D01*
X9867801Y-9733984D02*
X9886849Y-9724460D01*
X9886849Y-9724460D02*
X9896373Y-9705412D01*
X9896373Y-9705412D02*
X9896373Y-9695889D01*
X9896373Y-9695889D02*
X9886849Y-9676841D01*
X9886849Y-9676841D02*
X9867801Y-9667317D01*
X9867801Y-9667317D02*
X9839230Y-9667317D01*
X9839230Y-9667317D02*
X9820182Y-9657793D01*
X9820182Y-9657793D02*
X9810658Y-9638746D01*
X9810658Y-9638746D02*
X9810658Y-9629222D01*
X9810658Y-9629222D02*
X9820182Y-9610174D01*
X9820182Y-9610174D02*
X9839230Y-9600650D01*
X9839230Y-9600650D02*
X9867801Y-9600650D01*
X9867801Y-9600650D02*
X9886849Y-9610174D01*
X9963039Y-9810174D02*
X9972563Y-9800650D01*
X9972563Y-9800650D02*
X9991611Y-9772079D01*
X9991611Y-9772079D02*
X10001134Y-9753031D01*
X10001134Y-9753031D02*
X10010658Y-9724460D01*
X10010658Y-9724460D02*
X10020182Y-9676841D01*
X10020182Y-9676841D02*
X10020182Y-9638746D01*
X10020182Y-9638746D02*
X10010658Y-9591127D01*
X10010658Y-9591127D02*
X10001134Y-9562555D01*
X10001134Y-9562555D02*
X9991611Y-9543508D01*
X9991611Y-9543508D02*
X9972563Y-9514936D01*
X9972563Y-9514936D02*
X9963039Y-9505412D01*
D12*
X4997500Y-9906500D02*
G75*
G02*
X4967500Y-9906500I-15000J0D01*
G01*
X4967500Y-9906500D02*
G75*
G02*
X4997500Y-9906500I15000J0D01*
G01*
D11*
X5296372Y-9797984D02*
X5315420Y-9797984D01*
X5315420Y-9797984D02*
X5334467Y-9807508D01*
X5334467Y-9807508D02*
X5343991Y-9817031D01*
X5343991Y-9817031D02*
X5353515Y-9836079D01*
X5353515Y-9836079D02*
X5363039Y-9874174D01*
X5363039Y-9874174D02*
X5363039Y-9921793D01*
X5363039Y-9921793D02*
X5353515Y-9959889D01*
X5353515Y-9959889D02*
X5343991Y-9978936D01*
X5343991Y-9978936D02*
X5334467Y-9988460D01*
X5334467Y-9988460D02*
X5315420Y-9997984D01*
X5315420Y-9997984D02*
X5296372Y-9997984D01*
X5296372Y-9997984D02*
X5277324Y-9988460D01*
X5277324Y-9988460D02*
X5267801Y-9978936D01*
X5267801Y-9978936D02*
X5258277Y-9959889D01*
X5258277Y-9959889D02*
X5248753Y-9921793D01*
X5248753Y-9921793D02*
X5248753Y-9874174D01*
X5248753Y-9874174D02*
X5258277Y-9836079D01*
X5258277Y-9836079D02*
X5267801Y-9817031D01*
X5267801Y-9817031D02*
X5277324Y-9807508D01*
X5277324Y-9807508D02*
X5296372Y-9797984D01*
X5448753Y-9978936D02*
X5458277Y-9988460D01*
X5458277Y-9988460D02*
X5448753Y-9997984D01*
X5448753Y-9997984D02*
X5439229Y-9988460D01*
X5439229Y-9988460D02*
X5448753Y-9978936D01*
X5448753Y-9978936D02*
X5448753Y-9997984D01*
X5524944Y-9797984D02*
X5648753Y-9797984D01*
X5648753Y-9797984D02*
X5582086Y-9874174D01*
X5582086Y-9874174D02*
X5610658Y-9874174D01*
X5610658Y-9874174D02*
X5629705Y-9883698D01*
X5629705Y-9883698D02*
X5639229Y-9893222D01*
X5639229Y-9893222D02*
X5648753Y-9912270D01*
X5648753Y-9912270D02*
X5648753Y-9959889D01*
X5648753Y-9959889D02*
X5639229Y-9978936D01*
X5639229Y-9978936D02*
X5629705Y-9988460D01*
X5629705Y-9988460D02*
X5610658Y-9997984D01*
X5610658Y-9997984D02*
X5553515Y-9997984D01*
X5553515Y-9997984D02*
X5534467Y-9988460D01*
X5534467Y-9988460D02*
X5524944Y-9978936D01*
X5772562Y-9797984D02*
X5791610Y-9797984D01*
X5791610Y-9797984D02*
X5810658Y-9807508D01*
X5810658Y-9807508D02*
X5820182Y-9817031D01*
X5820182Y-9817031D02*
X5829705Y-9836079D01*
X5829705Y-9836079D02*
X5839229Y-9874174D01*
X5839229Y-9874174D02*
X5839229Y-9921793D01*
X5839229Y-9921793D02*
X5829705Y-9959889D01*
X5829705Y-9959889D02*
X5820182Y-9978936D01*
X5820182Y-9978936D02*
X5810658Y-9988460D01*
X5810658Y-9988460D02*
X5791610Y-9997984D01*
X5791610Y-9997984D02*
X5772562Y-9997984D01*
X5772562Y-9997984D02*
X5753515Y-9988460D01*
X5753515Y-9988460D02*
X5743991Y-9978936D01*
X5743991Y-9978936D02*
X5734467Y-9959889D01*
X5734467Y-9959889D02*
X5724943Y-9921793D01*
X5724943Y-9921793D02*
X5724943Y-9874174D01*
X5724943Y-9874174D02*
X5734467Y-9836079D01*
X5734467Y-9836079D02*
X5743991Y-9817031D01*
X5743991Y-9817031D02*
X5753515Y-9807508D01*
X5753515Y-9807508D02*
X5772562Y-9797984D01*
X5963039Y-9797984D02*
X5982086Y-9797984D01*
X5982086Y-9797984D02*
X6001134Y-9807508D01*
X6001134Y-9807508D02*
X6010658Y-9817031D01*
X6010658Y-9817031D02*
X6020182Y-9836079D01*
X6020182Y-9836079D02*
X6029705Y-9874174D01*
X6029705Y-9874174D02*
X6029705Y-9921793D01*
X6029705Y-9921793D02*
X6020182Y-9959889D01*
X6020182Y-9959889D02*
X6010658Y-9978936D01*
X6010658Y-9978936D02*
X6001134Y-9988460D01*
X6001134Y-9988460D02*
X5982086Y-9997984D01*
X5982086Y-9997984D02*
X5963039Y-9997984D01*
X5963039Y-9997984D02*
X5943991Y-9988460D01*
X5943991Y-9988460D02*
X5934467Y-9978936D01*
X5934467Y-9978936D02*
X5924943Y-9959889D01*
X5924943Y-9959889D02*
X5915420Y-9921793D01*
X5915420Y-9921793D02*
X5915420Y-9874174D01*
X5915420Y-9874174D02*
X5924943Y-9836079D01*
X5924943Y-9836079D02*
X5934467Y-9817031D01*
X5934467Y-9817031D02*
X5943991Y-9807508D01*
X5943991Y-9807508D02*
X5963039Y-9797984D01*
X6115420Y-9997984D02*
X6115420Y-9864650D01*
X6115420Y-9883698D02*
X6124943Y-9874174D01*
X6124943Y-9874174D02*
X6143991Y-9864650D01*
X6143991Y-9864650D02*
X6172563Y-9864650D01*
X6172563Y-9864650D02*
X6191610Y-9874174D01*
X6191610Y-9874174D02*
X6201134Y-9893222D01*
X6201134Y-9893222D02*
X6201134Y-9997984D01*
X6201134Y-9893222D02*
X6210658Y-9874174D01*
X6210658Y-9874174D02*
X6229705Y-9864650D01*
X6229705Y-9864650D02*
X6258277Y-9864650D01*
X6258277Y-9864650D02*
X6277324Y-9874174D01*
X6277324Y-9874174D02*
X6286848Y-9893222D01*
X6286848Y-9893222D02*
X6286848Y-9997984D01*
X6382086Y-9997984D02*
X6382086Y-9864650D01*
X6382086Y-9883698D02*
X6391610Y-9874174D01*
X6391610Y-9874174D02*
X6410658Y-9864650D01*
X6410658Y-9864650D02*
X6439229Y-9864650D01*
X6439229Y-9864650D02*
X6458277Y-9874174D01*
X6458277Y-9874174D02*
X6467801Y-9893222D01*
X6467801Y-9893222D02*
X6467801Y-9997984D01*
X6467801Y-9893222D02*
X6477324Y-9874174D01*
X6477324Y-9874174D02*
X6496372Y-9864650D01*
X6496372Y-9864650D02*
X6524943Y-9864650D01*
X6524943Y-9864650D02*
X6543991Y-9874174D01*
X6543991Y-9874174D02*
X6553515Y-9893222D01*
X6553515Y-9893222D02*
X6553515Y-9997984D01*
X6943991Y-9788460D02*
X6772563Y-10045603D01*
X7201134Y-9797984D02*
X7220182Y-9797984D01*
X7220182Y-9797984D02*
X7239229Y-9807508D01*
X7239229Y-9807508D02*
X7248753Y-9817031D01*
X7248753Y-9817031D02*
X7258277Y-9836079D01*
X7258277Y-9836079D02*
X7267801Y-9874174D01*
X7267801Y-9874174D02*
X7267801Y-9921793D01*
X7267801Y-9921793D02*
X7258277Y-9959889D01*
X7258277Y-9959889D02*
X7248753Y-9978936D01*
X7248753Y-9978936D02*
X7239229Y-9988460D01*
X7239229Y-9988460D02*
X7220182Y-9997984D01*
X7220182Y-9997984D02*
X7201134Y-9997984D01*
X7201134Y-9997984D02*
X7182086Y-9988460D01*
X7182086Y-9988460D02*
X7172563Y-9978936D01*
X7172563Y-9978936D02*
X7163039Y-9959889D01*
X7163039Y-9959889D02*
X7153515Y-9921793D01*
X7153515Y-9921793D02*
X7153515Y-9874174D01*
X7153515Y-9874174D02*
X7163039Y-9836079D01*
X7163039Y-9836079D02*
X7172563Y-9817031D01*
X7172563Y-9817031D02*
X7182086Y-9807508D01*
X7182086Y-9807508D02*
X7201134Y-9797984D01*
X7353515Y-9978936D02*
X7363039Y-9988460D01*
X7363039Y-9988460D02*
X7353515Y-9997984D01*
X7353515Y-9997984D02*
X7343991Y-9988460D01*
X7343991Y-9988460D02*
X7353515Y-9978936D01*
X7353515Y-9978936D02*
X7353515Y-9997984D01*
X7486848Y-9797984D02*
X7505896Y-9797984D01*
X7505896Y-9797984D02*
X7524944Y-9807508D01*
X7524944Y-9807508D02*
X7534467Y-9817031D01*
X7534467Y-9817031D02*
X7543991Y-9836079D01*
X7543991Y-9836079D02*
X7553515Y-9874174D01*
X7553515Y-9874174D02*
X7553515Y-9921793D01*
X7553515Y-9921793D02*
X7543991Y-9959889D01*
X7543991Y-9959889D02*
X7534467Y-9978936D01*
X7534467Y-9978936D02*
X7524944Y-9988460D01*
X7524944Y-9988460D02*
X7505896Y-9997984D01*
X7505896Y-9997984D02*
X7486848Y-9997984D01*
X7486848Y-9997984D02*
X7467801Y-9988460D01*
X7467801Y-9988460D02*
X7458277Y-9978936D01*
X7458277Y-9978936D02*
X7448753Y-9959889D01*
X7448753Y-9959889D02*
X7439229Y-9921793D01*
X7439229Y-9921793D02*
X7439229Y-9874174D01*
X7439229Y-9874174D02*
X7448753Y-9836079D01*
X7448753Y-9836079D02*
X7458277Y-9817031D01*
X7458277Y-9817031D02*
X7467801Y-9807508D01*
X7467801Y-9807508D02*
X7486848Y-9797984D01*
X7743991Y-9997984D02*
X7629706Y-9997984D01*
X7686848Y-9997984D02*
X7686848Y-9797984D01*
X7686848Y-9797984D02*
X7667801Y-9826555D01*
X7667801Y-9826555D02*
X7648753Y-9845603D01*
X7648753Y-9845603D02*
X7629706Y-9855127D01*
X7934467Y-9997984D02*
X7820182Y-9997984D01*
X7877325Y-9997984D02*
X7877325Y-9797984D01*
X7877325Y-9797984D02*
X7858277Y-9826555D01*
X7858277Y-9826555D02*
X7839229Y-9845603D01*
X7839229Y-9845603D02*
X7820182Y-9855127D01*
X8048753Y-9883698D02*
X8029706Y-9874174D01*
X8029706Y-9874174D02*
X8020182Y-9864650D01*
X8020182Y-9864650D02*
X8010658Y-9845603D01*
X8010658Y-9845603D02*
X8010658Y-9836079D01*
X8010658Y-9836079D02*
X8020182Y-9817031D01*
X8020182Y-9817031D02*
X8029706Y-9807508D01*
X8029706Y-9807508D02*
X8048753Y-9797984D01*
X8048753Y-9797984D02*
X8086848Y-9797984D01*
X8086848Y-9797984D02*
X8105896Y-9807508D01*
X8105896Y-9807508D02*
X8115420Y-9817031D01*
X8115420Y-9817031D02*
X8124944Y-9836079D01*
X8124944Y-9836079D02*
X8124944Y-9845603D01*
X8124944Y-9845603D02*
X8115420Y-9864650D01*
X8115420Y-9864650D02*
X8105896Y-9874174D01*
X8105896Y-9874174D02*
X8086848Y-9883698D01*
X8086848Y-9883698D02*
X8048753Y-9883698D01*
X8048753Y-9883698D02*
X8029706Y-9893222D01*
X8029706Y-9893222D02*
X8020182Y-9902746D01*
X8020182Y-9902746D02*
X8010658Y-9921793D01*
X8010658Y-9921793D02*
X8010658Y-9959889D01*
X8010658Y-9959889D02*
X8020182Y-9978936D01*
X8020182Y-9978936D02*
X8029706Y-9988460D01*
X8029706Y-9988460D02*
X8048753Y-9997984D01*
X8048753Y-9997984D02*
X8086848Y-9997984D01*
X8086848Y-9997984D02*
X8105896Y-9988460D01*
X8105896Y-9988460D02*
X8115420Y-9978936D01*
X8115420Y-9978936D02*
X8124944Y-9959889D01*
X8124944Y-9959889D02*
X8124944Y-9921793D01*
X8124944Y-9921793D02*
X8115420Y-9902746D01*
X8115420Y-9902746D02*
X8105896Y-9893222D01*
X8105896Y-9893222D02*
X8086848Y-9883698D01*
X8201134Y-9797984D02*
X8201134Y-9836079D01*
X8277325Y-9797984D02*
X8277325Y-9836079D01*
X8572563Y-10074174D02*
X8563039Y-10064650D01*
X8563039Y-10064650D02*
X8543991Y-10036079D01*
X8543991Y-10036079D02*
X8534468Y-10017031D01*
X8534468Y-10017031D02*
X8524944Y-9988460D01*
X8524944Y-9988460D02*
X8515420Y-9940841D01*
X8515420Y-9940841D02*
X8515420Y-9902746D01*
X8515420Y-9902746D02*
X8524944Y-9855127D01*
X8524944Y-9855127D02*
X8534468Y-9826555D01*
X8534468Y-9826555D02*
X8543991Y-9807508D01*
X8543991Y-9807508D02*
X8563039Y-9778936D01*
X8563039Y-9778936D02*
X8572563Y-9769412D01*
X8629706Y-9797984D02*
X8753515Y-9797984D01*
X8753515Y-9797984D02*
X8686849Y-9874174D01*
X8686849Y-9874174D02*
X8715420Y-9874174D01*
X8715420Y-9874174D02*
X8734468Y-9883698D01*
X8734468Y-9883698D02*
X8743991Y-9893222D01*
X8743991Y-9893222D02*
X8753515Y-9912270D01*
X8753515Y-9912270D02*
X8753515Y-9959889D01*
X8753515Y-9959889D02*
X8743991Y-9978936D01*
X8743991Y-9978936D02*
X8734468Y-9988460D01*
X8734468Y-9988460D02*
X8715420Y-9997984D01*
X8715420Y-9997984D02*
X8658277Y-9997984D01*
X8658277Y-9997984D02*
X8639230Y-9988460D01*
X8639230Y-9988460D02*
X8629706Y-9978936D01*
X8848753Y-9997984D02*
X8886849Y-9997984D01*
X8886849Y-9997984D02*
X8905896Y-9988460D01*
X8905896Y-9988460D02*
X8915420Y-9978936D01*
X8915420Y-9978936D02*
X8934468Y-9950365D01*
X8934468Y-9950365D02*
X8943991Y-9912270D01*
X8943991Y-9912270D02*
X8943991Y-9836079D01*
X8943991Y-9836079D02*
X8934468Y-9817031D01*
X8934468Y-9817031D02*
X8924944Y-9807508D01*
X8924944Y-9807508D02*
X8905896Y-9797984D01*
X8905896Y-9797984D02*
X8867801Y-9797984D01*
X8867801Y-9797984D02*
X8848753Y-9807508D01*
X8848753Y-9807508D02*
X8839230Y-9817031D01*
X8839230Y-9817031D02*
X8829706Y-9836079D01*
X8829706Y-9836079D02*
X8829706Y-9883698D01*
X8829706Y-9883698D02*
X8839230Y-9902746D01*
X8839230Y-9902746D02*
X8848753Y-9912270D01*
X8848753Y-9912270D02*
X8867801Y-9921793D01*
X8867801Y-9921793D02*
X8905896Y-9921793D01*
X8905896Y-9921793D02*
X8924944Y-9912270D01*
X8924944Y-9912270D02*
X8934468Y-9902746D01*
X8934468Y-9902746D02*
X8943991Y-9883698D01*
X9182087Y-9997984D02*
X9182087Y-9797984D01*
X9267801Y-9997984D02*
X9267801Y-9893222D01*
X9267801Y-9893222D02*
X9258277Y-9874174D01*
X9258277Y-9874174D02*
X9239230Y-9864650D01*
X9239230Y-9864650D02*
X9210658Y-9864650D01*
X9210658Y-9864650D02*
X9191611Y-9874174D01*
X9191611Y-9874174D02*
X9182087Y-9883698D01*
X9391611Y-9997984D02*
X9372563Y-9988460D01*
X9372563Y-9988460D02*
X9363039Y-9978936D01*
X9363039Y-9978936D02*
X9353515Y-9959889D01*
X9353515Y-9959889D02*
X9353515Y-9902746D01*
X9353515Y-9902746D02*
X9363039Y-9883698D01*
X9363039Y-9883698D02*
X9372563Y-9874174D01*
X9372563Y-9874174D02*
X9391611Y-9864650D01*
X9391611Y-9864650D02*
X9420182Y-9864650D01*
X9420182Y-9864650D02*
X9439230Y-9874174D01*
X9439230Y-9874174D02*
X9448753Y-9883698D01*
X9448753Y-9883698D02*
X9458277Y-9902746D01*
X9458277Y-9902746D02*
X9458277Y-9959889D01*
X9458277Y-9959889D02*
X9448753Y-9978936D01*
X9448753Y-9978936D02*
X9439230Y-9988460D01*
X9439230Y-9988460D02*
X9420182Y-9997984D01*
X9420182Y-9997984D02*
X9391611Y-9997984D01*
X9572563Y-9997984D02*
X9553515Y-9988460D01*
X9553515Y-9988460D02*
X9543992Y-9969412D01*
X9543992Y-9969412D02*
X9543992Y-9797984D01*
X9724944Y-9988460D02*
X9705896Y-9997984D01*
X9705896Y-9997984D02*
X9667801Y-9997984D01*
X9667801Y-9997984D02*
X9648753Y-9988460D01*
X9648753Y-9988460D02*
X9639230Y-9969412D01*
X9639230Y-9969412D02*
X9639230Y-9893222D01*
X9639230Y-9893222D02*
X9648753Y-9874174D01*
X9648753Y-9874174D02*
X9667801Y-9864650D01*
X9667801Y-9864650D02*
X9705896Y-9864650D01*
X9705896Y-9864650D02*
X9724944Y-9874174D01*
X9724944Y-9874174D02*
X9734468Y-9893222D01*
X9734468Y-9893222D02*
X9734468Y-9912270D01*
X9734468Y-9912270D02*
X9639230Y-9931317D01*
X9810658Y-9988460D02*
X9829706Y-9997984D01*
X9829706Y-9997984D02*
X9867801Y-9997984D01*
X9867801Y-9997984D02*
X9886849Y-9988460D01*
X9886849Y-9988460D02*
X9896373Y-9969412D01*
X9896373Y-9969412D02*
X9896373Y-9959889D01*
X9896373Y-9959889D02*
X9886849Y-9940841D01*
X9886849Y-9940841D02*
X9867801Y-9931317D01*
X9867801Y-9931317D02*
X9839230Y-9931317D01*
X9839230Y-9931317D02*
X9820182Y-9921793D01*
X9820182Y-9921793D02*
X9810658Y-9902746D01*
X9810658Y-9902746D02*
X9810658Y-9893222D01*
X9810658Y-9893222D02*
X9820182Y-9874174D01*
X9820182Y-9874174D02*
X9839230Y-9864650D01*
X9839230Y-9864650D02*
X9867801Y-9864650D01*
X9867801Y-9864650D02*
X9886849Y-9874174D01*
X9963039Y-10074174D02*
X9972563Y-10064650D01*
X9972563Y-10064650D02*
X9991611Y-10036079D01*
X9991611Y-10036079D02*
X10001134Y-10017031D01*
X10001134Y-10017031D02*
X10010658Y-9988460D01*
X10010658Y-9988460D02*
X10020182Y-9940841D01*
X10020182Y-9940841D02*
X10020182Y-9902746D01*
X10020182Y-9902746D02*
X10010658Y-9855127D01*
X10010658Y-9855127D02*
X10001134Y-9826555D01*
X10001134Y-9826555D02*
X9991611Y-9807508D01*
X9991611Y-9807508D02*
X9972563Y-9778936D01*
X9972563Y-9778936D02*
X9963039Y-9769412D01*
D12*
X4967500Y-10140500D02*
X4967500Y-10200500D01*
X4937500Y-10170500D02*
X4997500Y-10170500D01*
D11*
X5296372Y-10061984D02*
X5315420Y-10061984D01*
X5315420Y-10061984D02*
X5334467Y-10071508D01*
X5334467Y-10071508D02*
X5343991Y-10081031D01*
X5343991Y-10081031D02*
X5353515Y-10100079D01*
X5353515Y-10100079D02*
X5363039Y-10138174D01*
X5363039Y-10138174D02*
X5363039Y-10185793D01*
X5363039Y-10185793D02*
X5353515Y-10223889D01*
X5353515Y-10223889D02*
X5343991Y-10242936D01*
X5343991Y-10242936D02*
X5334467Y-10252460D01*
X5334467Y-10252460D02*
X5315420Y-10261984D01*
X5315420Y-10261984D02*
X5296372Y-10261984D01*
X5296372Y-10261984D02*
X5277324Y-10252460D01*
X5277324Y-10252460D02*
X5267801Y-10242936D01*
X5267801Y-10242936D02*
X5258277Y-10223889D01*
X5258277Y-10223889D02*
X5248753Y-10185793D01*
X5248753Y-10185793D02*
X5248753Y-10138174D01*
X5248753Y-10138174D02*
X5258277Y-10100079D01*
X5258277Y-10100079D02*
X5267801Y-10081031D01*
X5267801Y-10081031D02*
X5277324Y-10071508D01*
X5277324Y-10071508D02*
X5296372Y-10061984D01*
X5448753Y-10242936D02*
X5458277Y-10252460D01*
X5458277Y-10252460D02*
X5448753Y-10261984D01*
X5448753Y-10261984D02*
X5439229Y-10252460D01*
X5439229Y-10252460D02*
X5448753Y-10242936D01*
X5448753Y-10242936D02*
X5448753Y-10261984D01*
X5629705Y-10061984D02*
X5591610Y-10061984D01*
X5591610Y-10061984D02*
X5572563Y-10071508D01*
X5572563Y-10071508D02*
X5563039Y-10081031D01*
X5563039Y-10081031D02*
X5543991Y-10109603D01*
X5543991Y-10109603D02*
X5534467Y-10147698D01*
X5534467Y-10147698D02*
X5534467Y-10223889D01*
X5534467Y-10223889D02*
X5543991Y-10242936D01*
X5543991Y-10242936D02*
X5553515Y-10252460D01*
X5553515Y-10252460D02*
X5572563Y-10261984D01*
X5572563Y-10261984D02*
X5610658Y-10261984D01*
X5610658Y-10261984D02*
X5629705Y-10252460D01*
X5629705Y-10252460D02*
X5639229Y-10242936D01*
X5639229Y-10242936D02*
X5648753Y-10223889D01*
X5648753Y-10223889D02*
X5648753Y-10176270D01*
X5648753Y-10176270D02*
X5639229Y-10157222D01*
X5639229Y-10157222D02*
X5629705Y-10147698D01*
X5629705Y-10147698D02*
X5610658Y-10138174D01*
X5610658Y-10138174D02*
X5572563Y-10138174D01*
X5572563Y-10138174D02*
X5553515Y-10147698D01*
X5553515Y-10147698D02*
X5543991Y-10157222D01*
X5543991Y-10157222D02*
X5534467Y-10176270D01*
X5772562Y-10061984D02*
X5791610Y-10061984D01*
X5791610Y-10061984D02*
X5810658Y-10071508D01*
X5810658Y-10071508D02*
X5820182Y-10081031D01*
X5820182Y-10081031D02*
X5829705Y-10100079D01*
X5829705Y-10100079D02*
X5839229Y-10138174D01*
X5839229Y-10138174D02*
X5839229Y-10185793D01*
X5839229Y-10185793D02*
X5829705Y-10223889D01*
X5829705Y-10223889D02*
X5820182Y-10242936D01*
X5820182Y-10242936D02*
X5810658Y-10252460D01*
X5810658Y-10252460D02*
X5791610Y-10261984D01*
X5791610Y-10261984D02*
X5772562Y-10261984D01*
X5772562Y-10261984D02*
X5753515Y-10252460D01*
X5753515Y-10252460D02*
X5743991Y-10242936D01*
X5743991Y-10242936D02*
X5734467Y-10223889D01*
X5734467Y-10223889D02*
X5724943Y-10185793D01*
X5724943Y-10185793D02*
X5724943Y-10138174D01*
X5724943Y-10138174D02*
X5734467Y-10100079D01*
X5734467Y-10100079D02*
X5743991Y-10081031D01*
X5743991Y-10081031D02*
X5753515Y-10071508D01*
X5753515Y-10071508D02*
X5772562Y-10061984D01*
X5963039Y-10061984D02*
X5982086Y-10061984D01*
X5982086Y-10061984D02*
X6001134Y-10071508D01*
X6001134Y-10071508D02*
X6010658Y-10081031D01*
X6010658Y-10081031D02*
X6020182Y-10100079D01*
X6020182Y-10100079D02*
X6029705Y-10138174D01*
X6029705Y-10138174D02*
X6029705Y-10185793D01*
X6029705Y-10185793D02*
X6020182Y-10223889D01*
X6020182Y-10223889D02*
X6010658Y-10242936D01*
X6010658Y-10242936D02*
X6001134Y-10252460D01*
X6001134Y-10252460D02*
X5982086Y-10261984D01*
X5982086Y-10261984D02*
X5963039Y-10261984D01*
X5963039Y-10261984D02*
X5943991Y-10252460D01*
X5943991Y-10252460D02*
X5934467Y-10242936D01*
X5934467Y-10242936D02*
X5924943Y-10223889D01*
X5924943Y-10223889D02*
X5915420Y-10185793D01*
X5915420Y-10185793D02*
X5915420Y-10138174D01*
X5915420Y-10138174D02*
X5924943Y-10100079D01*
X5924943Y-10100079D02*
X5934467Y-10081031D01*
X5934467Y-10081031D02*
X5943991Y-10071508D01*
X5943991Y-10071508D02*
X5963039Y-10061984D01*
X6115420Y-10261984D02*
X6115420Y-10128650D01*
X6115420Y-10147698D02*
X6124943Y-10138174D01*
X6124943Y-10138174D02*
X6143991Y-10128650D01*
X6143991Y-10128650D02*
X6172563Y-10128650D01*
X6172563Y-10128650D02*
X6191610Y-10138174D01*
X6191610Y-10138174D02*
X6201134Y-10157222D01*
X6201134Y-10157222D02*
X6201134Y-10261984D01*
X6201134Y-10157222D02*
X6210658Y-10138174D01*
X6210658Y-10138174D02*
X6229705Y-10128650D01*
X6229705Y-10128650D02*
X6258277Y-10128650D01*
X6258277Y-10128650D02*
X6277324Y-10138174D01*
X6277324Y-10138174D02*
X6286848Y-10157222D01*
X6286848Y-10157222D02*
X6286848Y-10261984D01*
X6382086Y-10261984D02*
X6382086Y-10128650D01*
X6382086Y-10147698D02*
X6391610Y-10138174D01*
X6391610Y-10138174D02*
X6410658Y-10128650D01*
X6410658Y-10128650D02*
X6439229Y-10128650D01*
X6439229Y-10128650D02*
X6458277Y-10138174D01*
X6458277Y-10138174D02*
X6467801Y-10157222D01*
X6467801Y-10157222D02*
X6467801Y-10261984D01*
X6467801Y-10157222D02*
X6477324Y-10138174D01*
X6477324Y-10138174D02*
X6496372Y-10128650D01*
X6496372Y-10128650D02*
X6524943Y-10128650D01*
X6524943Y-10128650D02*
X6543991Y-10138174D01*
X6543991Y-10138174D02*
X6553515Y-10157222D01*
X6553515Y-10157222D02*
X6553515Y-10261984D01*
X6943991Y-10052460D02*
X6772563Y-10309603D01*
X7201134Y-10061984D02*
X7220182Y-10061984D01*
X7220182Y-10061984D02*
X7239229Y-10071508D01*
X7239229Y-10071508D02*
X7248753Y-10081031D01*
X7248753Y-10081031D02*
X7258277Y-10100079D01*
X7258277Y-10100079D02*
X7267801Y-10138174D01*
X7267801Y-10138174D02*
X7267801Y-10185793D01*
X7267801Y-10185793D02*
X7258277Y-10223889D01*
X7258277Y-10223889D02*
X7248753Y-10242936D01*
X7248753Y-10242936D02*
X7239229Y-10252460D01*
X7239229Y-10252460D02*
X7220182Y-10261984D01*
X7220182Y-10261984D02*
X7201134Y-10261984D01*
X7201134Y-10261984D02*
X7182086Y-10252460D01*
X7182086Y-10252460D02*
X7172563Y-10242936D01*
X7172563Y-10242936D02*
X7163039Y-10223889D01*
X7163039Y-10223889D02*
X7153515Y-10185793D01*
X7153515Y-10185793D02*
X7153515Y-10138174D01*
X7153515Y-10138174D02*
X7163039Y-10100079D01*
X7163039Y-10100079D02*
X7172563Y-10081031D01*
X7172563Y-10081031D02*
X7182086Y-10071508D01*
X7182086Y-10071508D02*
X7201134Y-10061984D01*
X7353515Y-10242936D02*
X7363039Y-10252460D01*
X7363039Y-10252460D02*
X7353515Y-10261984D01*
X7353515Y-10261984D02*
X7343991Y-10252460D01*
X7343991Y-10252460D02*
X7353515Y-10242936D01*
X7353515Y-10242936D02*
X7353515Y-10261984D01*
X7486848Y-10061984D02*
X7505896Y-10061984D01*
X7505896Y-10061984D02*
X7524944Y-10071508D01*
X7524944Y-10071508D02*
X7534467Y-10081031D01*
X7534467Y-10081031D02*
X7543991Y-10100079D01*
X7543991Y-10100079D02*
X7553515Y-10138174D01*
X7553515Y-10138174D02*
X7553515Y-10185793D01*
X7553515Y-10185793D02*
X7543991Y-10223889D01*
X7543991Y-10223889D02*
X7534467Y-10242936D01*
X7534467Y-10242936D02*
X7524944Y-10252460D01*
X7524944Y-10252460D02*
X7505896Y-10261984D01*
X7505896Y-10261984D02*
X7486848Y-10261984D01*
X7486848Y-10261984D02*
X7467801Y-10252460D01*
X7467801Y-10252460D02*
X7458277Y-10242936D01*
X7458277Y-10242936D02*
X7448753Y-10223889D01*
X7448753Y-10223889D02*
X7439229Y-10185793D01*
X7439229Y-10185793D02*
X7439229Y-10138174D01*
X7439229Y-10138174D02*
X7448753Y-10100079D01*
X7448753Y-10100079D02*
X7458277Y-10081031D01*
X7458277Y-10081031D02*
X7467801Y-10071508D01*
X7467801Y-10071508D02*
X7486848Y-10061984D01*
X7629706Y-10081031D02*
X7639229Y-10071508D01*
X7639229Y-10071508D02*
X7658277Y-10061984D01*
X7658277Y-10061984D02*
X7705896Y-10061984D01*
X7705896Y-10061984D02*
X7724944Y-10071508D01*
X7724944Y-10071508D02*
X7734467Y-10081031D01*
X7734467Y-10081031D02*
X7743991Y-10100079D01*
X7743991Y-10100079D02*
X7743991Y-10119127D01*
X7743991Y-10119127D02*
X7734467Y-10147698D01*
X7734467Y-10147698D02*
X7620182Y-10261984D01*
X7620182Y-10261984D02*
X7743991Y-10261984D01*
X7810658Y-10061984D02*
X7934467Y-10061984D01*
X7934467Y-10061984D02*
X7867801Y-10138174D01*
X7867801Y-10138174D02*
X7896372Y-10138174D01*
X7896372Y-10138174D02*
X7915420Y-10147698D01*
X7915420Y-10147698D02*
X7924944Y-10157222D01*
X7924944Y-10157222D02*
X7934467Y-10176270D01*
X7934467Y-10176270D02*
X7934467Y-10223889D01*
X7934467Y-10223889D02*
X7924944Y-10242936D01*
X7924944Y-10242936D02*
X7915420Y-10252460D01*
X7915420Y-10252460D02*
X7896372Y-10261984D01*
X7896372Y-10261984D02*
X7839229Y-10261984D01*
X7839229Y-10261984D02*
X7820182Y-10252460D01*
X7820182Y-10252460D02*
X7810658Y-10242936D01*
X8105896Y-10061984D02*
X8067801Y-10061984D01*
X8067801Y-10061984D02*
X8048753Y-10071508D01*
X8048753Y-10071508D02*
X8039229Y-10081031D01*
X8039229Y-10081031D02*
X8020182Y-10109603D01*
X8020182Y-10109603D02*
X8010658Y-10147698D01*
X8010658Y-10147698D02*
X8010658Y-10223889D01*
X8010658Y-10223889D02*
X8020182Y-10242936D01*
X8020182Y-10242936D02*
X8029706Y-10252460D01*
X8029706Y-10252460D02*
X8048753Y-10261984D01*
X8048753Y-10261984D02*
X8086848Y-10261984D01*
X8086848Y-10261984D02*
X8105896Y-10252460D01*
X8105896Y-10252460D02*
X8115420Y-10242936D01*
X8115420Y-10242936D02*
X8124944Y-10223889D01*
X8124944Y-10223889D02*
X8124944Y-10176270D01*
X8124944Y-10176270D02*
X8115420Y-10157222D01*
X8115420Y-10157222D02*
X8105896Y-10147698D01*
X8105896Y-10147698D02*
X8086848Y-10138174D01*
X8086848Y-10138174D02*
X8048753Y-10138174D01*
X8048753Y-10138174D02*
X8029706Y-10147698D01*
X8029706Y-10147698D02*
X8020182Y-10157222D01*
X8020182Y-10157222D02*
X8010658Y-10176270D01*
X8201134Y-10061984D02*
X8201134Y-10100079D01*
X8277325Y-10061984D02*
X8277325Y-10100079D01*
X8572563Y-10338174D02*
X8563039Y-10328650D01*
X8563039Y-10328650D02*
X8543991Y-10300079D01*
X8543991Y-10300079D02*
X8534468Y-10281031D01*
X8534468Y-10281031D02*
X8524944Y-10252460D01*
X8524944Y-10252460D02*
X8515420Y-10204841D01*
X8515420Y-10204841D02*
X8515420Y-10166746D01*
X8515420Y-10166746D02*
X8524944Y-10119127D01*
X8524944Y-10119127D02*
X8534468Y-10090555D01*
X8534468Y-10090555D02*
X8543991Y-10071508D01*
X8543991Y-10071508D02*
X8563039Y-10042936D01*
X8563039Y-10042936D02*
X8572563Y-10033412D01*
X8686849Y-10061984D02*
X8705896Y-10061984D01*
X8705896Y-10061984D02*
X8724944Y-10071508D01*
X8724944Y-10071508D02*
X8734468Y-10081031D01*
X8734468Y-10081031D02*
X8743991Y-10100079D01*
X8743991Y-10100079D02*
X8753515Y-10138174D01*
X8753515Y-10138174D02*
X8753515Y-10185793D01*
X8753515Y-10185793D02*
X8743991Y-10223889D01*
X8743991Y-10223889D02*
X8734468Y-10242936D01*
X8734468Y-10242936D02*
X8724944Y-10252460D01*
X8724944Y-10252460D02*
X8705896Y-10261984D01*
X8705896Y-10261984D02*
X8686849Y-10261984D01*
X8686849Y-10261984D02*
X8667801Y-10252460D01*
X8667801Y-10252460D02*
X8658277Y-10242936D01*
X8658277Y-10242936D02*
X8648753Y-10223889D01*
X8648753Y-10223889D02*
X8639230Y-10185793D01*
X8639230Y-10185793D02*
X8639230Y-10138174D01*
X8639230Y-10138174D02*
X8648753Y-10100079D01*
X8648753Y-10100079D02*
X8658277Y-10081031D01*
X8658277Y-10081031D02*
X8667801Y-10071508D01*
X8667801Y-10071508D02*
X8686849Y-10061984D01*
X8991611Y-10261984D02*
X8991611Y-10061984D01*
X9077325Y-10261984D02*
X9077325Y-10157222D01*
X9077325Y-10157222D02*
X9067801Y-10138174D01*
X9067801Y-10138174D02*
X9048753Y-10128650D01*
X9048753Y-10128650D02*
X9020182Y-10128650D01*
X9020182Y-10128650D02*
X9001134Y-10138174D01*
X9001134Y-10138174D02*
X8991611Y-10147698D01*
X9201134Y-10261984D02*
X9182087Y-10252460D01*
X9182087Y-10252460D02*
X9172563Y-10242936D01*
X9172563Y-10242936D02*
X9163039Y-10223889D01*
X9163039Y-10223889D02*
X9163039Y-10166746D01*
X9163039Y-10166746D02*
X9172563Y-10147698D01*
X9172563Y-10147698D02*
X9182087Y-10138174D01*
X9182087Y-10138174D02*
X9201134Y-10128650D01*
X9201134Y-10128650D02*
X9229706Y-10128650D01*
X9229706Y-10128650D02*
X9248753Y-10138174D01*
X9248753Y-10138174D02*
X9258277Y-10147698D01*
X9258277Y-10147698D02*
X9267801Y-10166746D01*
X9267801Y-10166746D02*
X9267801Y-10223889D01*
X9267801Y-10223889D02*
X9258277Y-10242936D01*
X9258277Y-10242936D02*
X9248753Y-10252460D01*
X9248753Y-10252460D02*
X9229706Y-10261984D01*
X9229706Y-10261984D02*
X9201134Y-10261984D01*
X9382087Y-10261984D02*
X9363039Y-10252460D01*
X9363039Y-10252460D02*
X9353515Y-10233412D01*
X9353515Y-10233412D02*
X9353515Y-10061984D01*
X9534468Y-10252460D02*
X9515420Y-10261984D01*
X9515420Y-10261984D02*
X9477325Y-10261984D01*
X9477325Y-10261984D02*
X9458277Y-10252460D01*
X9458277Y-10252460D02*
X9448753Y-10233412D01*
X9448753Y-10233412D02*
X9448753Y-10157222D01*
X9448753Y-10157222D02*
X9458277Y-10138174D01*
X9458277Y-10138174D02*
X9477325Y-10128650D01*
X9477325Y-10128650D02*
X9515420Y-10128650D01*
X9515420Y-10128650D02*
X9534468Y-10138174D01*
X9534468Y-10138174D02*
X9543992Y-10157222D01*
X9543992Y-10157222D02*
X9543992Y-10176270D01*
X9543992Y-10176270D02*
X9448753Y-10195317D01*
X9620182Y-10252460D02*
X9639230Y-10261984D01*
X9639230Y-10261984D02*
X9677325Y-10261984D01*
X9677325Y-10261984D02*
X9696373Y-10252460D01*
X9696373Y-10252460D02*
X9705896Y-10233412D01*
X9705896Y-10233412D02*
X9705896Y-10223889D01*
X9705896Y-10223889D02*
X9696373Y-10204841D01*
X9696373Y-10204841D02*
X9677325Y-10195317D01*
X9677325Y-10195317D02*
X9648753Y-10195317D01*
X9648753Y-10195317D02*
X9629706Y-10185793D01*
X9629706Y-10185793D02*
X9620182Y-10166746D01*
X9620182Y-10166746D02*
X9620182Y-10157222D01*
X9620182Y-10157222D02*
X9629706Y-10138174D01*
X9629706Y-10138174D02*
X9648753Y-10128650D01*
X9648753Y-10128650D02*
X9677325Y-10128650D01*
X9677325Y-10128650D02*
X9696373Y-10138174D01*
X9943992Y-10185793D02*
X10096373Y-10185793D01*
X10020182Y-10261984D02*
X10020182Y-10109603D01*
X10429706Y-10128650D02*
X10429706Y-10261984D01*
X10382087Y-10052460D02*
X10334468Y-10195317D01*
X10334468Y-10195317D02*
X10458277Y-10195317D01*
X10677325Y-10252460D02*
X10696373Y-10261984D01*
X10696373Y-10261984D02*
X10734468Y-10261984D01*
X10734468Y-10261984D02*
X10753516Y-10252460D01*
X10753516Y-10252460D02*
X10763039Y-10233412D01*
X10763039Y-10233412D02*
X10763039Y-10223889D01*
X10763039Y-10223889D02*
X10753516Y-10204841D01*
X10753516Y-10204841D02*
X10734468Y-10195317D01*
X10734468Y-10195317D02*
X10705896Y-10195317D01*
X10705896Y-10195317D02*
X10686849Y-10185793D01*
X10686849Y-10185793D02*
X10677325Y-10166746D01*
X10677325Y-10166746D02*
X10677325Y-10157222D01*
X10677325Y-10157222D02*
X10686849Y-10138174D01*
X10686849Y-10138174D02*
X10705896Y-10128650D01*
X10705896Y-10128650D02*
X10734468Y-10128650D01*
X10734468Y-10128650D02*
X10753516Y-10138174D01*
X10877325Y-10261984D02*
X10858277Y-10252460D01*
X10858277Y-10252460D02*
X10848754Y-10233412D01*
X10848754Y-10233412D02*
X10848754Y-10061984D01*
X10982087Y-10261984D02*
X10963039Y-10252460D01*
X10963039Y-10252460D02*
X10953516Y-10242936D01*
X10953516Y-10242936D02*
X10943992Y-10223889D01*
X10943992Y-10223889D02*
X10943992Y-10166746D01*
X10943992Y-10166746D02*
X10953516Y-10147698D01*
X10953516Y-10147698D02*
X10963039Y-10138174D01*
X10963039Y-10138174D02*
X10982087Y-10128650D01*
X10982087Y-10128650D02*
X11010658Y-10128650D01*
X11010658Y-10128650D02*
X11029706Y-10138174D01*
X11029706Y-10138174D02*
X11039230Y-10147698D01*
X11039230Y-10147698D02*
X11048754Y-10166746D01*
X11048754Y-10166746D02*
X11048754Y-10223889D01*
X11048754Y-10223889D02*
X11039230Y-10242936D01*
X11039230Y-10242936D02*
X11029706Y-10252460D01*
X11029706Y-10252460D02*
X11010658Y-10261984D01*
X11010658Y-10261984D02*
X10982087Y-10261984D01*
X11105897Y-10128650D02*
X11182087Y-10128650D01*
X11134468Y-10061984D02*
X11134468Y-10233412D01*
X11134468Y-10233412D02*
X11143992Y-10252460D01*
X11143992Y-10252460D02*
X11163039Y-10261984D01*
X11163039Y-10261984D02*
X11182087Y-10261984D01*
X11239230Y-10252460D02*
X11258277Y-10261984D01*
X11258277Y-10261984D02*
X11296373Y-10261984D01*
X11296373Y-10261984D02*
X11315420Y-10252460D01*
X11315420Y-10252460D02*
X11324944Y-10233412D01*
X11324944Y-10233412D02*
X11324944Y-10223889D01*
X11324944Y-10223889D02*
X11315420Y-10204841D01*
X11315420Y-10204841D02*
X11296373Y-10195317D01*
X11296373Y-10195317D02*
X11267801Y-10195317D01*
X11267801Y-10195317D02*
X11248754Y-10185793D01*
X11248754Y-10185793D02*
X11239230Y-10166746D01*
X11239230Y-10166746D02*
X11239230Y-10157222D01*
X11239230Y-10157222D02*
X11248754Y-10138174D01*
X11248754Y-10138174D02*
X11267801Y-10128650D01*
X11267801Y-10128650D02*
X11296373Y-10128650D01*
X11296373Y-10128650D02*
X11315420Y-10138174D01*
X11391611Y-10338174D02*
X11401135Y-10328650D01*
X11401135Y-10328650D02*
X11420182Y-10300079D01*
X11420182Y-10300079D02*
X11429706Y-10281031D01*
X11429706Y-10281031D02*
X11439230Y-10252460D01*
X11439230Y-10252460D02*
X11448754Y-10204841D01*
X11448754Y-10204841D02*
X11448754Y-10166746D01*
X11448754Y-10166746D02*
X11439230Y-10119127D01*
X11439230Y-10119127D02*
X11429706Y-10090555D01*
X11429706Y-10090555D02*
X11420182Y-10071508D01*
X11420182Y-10071508D02*
X11401135Y-10042936D01*
X11401135Y-10042936D02*
X11391611Y-10033412D01*
D12*
X4982856Y-10469856D02*
X4982856Y-10399144D01*
X4912144Y-10399144D01*
X4912144Y-10469856D01*
X4982856Y-10469856D01*
D11*
X5363039Y-10525984D02*
X5248753Y-10525984D01*
X5305896Y-10525984D02*
X5305896Y-10325984D01*
X5305896Y-10325984D02*
X5286848Y-10354555D01*
X5286848Y-10354555D02*
X5267801Y-10373603D01*
X5267801Y-10373603D02*
X5248753Y-10383127D01*
X5448753Y-10506936D02*
X5458277Y-10516460D01*
X5458277Y-10516460D02*
X5448753Y-10525984D01*
X5448753Y-10525984D02*
X5439229Y-10516460D01*
X5439229Y-10516460D02*
X5448753Y-10506936D01*
X5448753Y-10506936D02*
X5448753Y-10525984D01*
X5582086Y-10325984D02*
X5601134Y-10325984D01*
X5601134Y-10325984D02*
X5620182Y-10335508D01*
X5620182Y-10335508D02*
X5629705Y-10345031D01*
X5629705Y-10345031D02*
X5639229Y-10364079D01*
X5639229Y-10364079D02*
X5648753Y-10402174D01*
X5648753Y-10402174D02*
X5648753Y-10449793D01*
X5648753Y-10449793D02*
X5639229Y-10487889D01*
X5639229Y-10487889D02*
X5629705Y-10506936D01*
X5629705Y-10506936D02*
X5620182Y-10516460D01*
X5620182Y-10516460D02*
X5601134Y-10525984D01*
X5601134Y-10525984D02*
X5582086Y-10525984D01*
X5582086Y-10525984D02*
X5563039Y-10516460D01*
X5563039Y-10516460D02*
X5553515Y-10506936D01*
X5553515Y-10506936D02*
X5543991Y-10487889D01*
X5543991Y-10487889D02*
X5534467Y-10449793D01*
X5534467Y-10449793D02*
X5534467Y-10402174D01*
X5534467Y-10402174D02*
X5543991Y-10364079D01*
X5543991Y-10364079D02*
X5553515Y-10345031D01*
X5553515Y-10345031D02*
X5563039Y-10335508D01*
X5563039Y-10335508D02*
X5582086Y-10325984D01*
X5772562Y-10325984D02*
X5791610Y-10325984D01*
X5791610Y-10325984D02*
X5810658Y-10335508D01*
X5810658Y-10335508D02*
X5820182Y-10345031D01*
X5820182Y-10345031D02*
X5829705Y-10364079D01*
X5829705Y-10364079D02*
X5839229Y-10402174D01*
X5839229Y-10402174D02*
X5839229Y-10449793D01*
X5839229Y-10449793D02*
X5829705Y-10487889D01*
X5829705Y-10487889D02*
X5820182Y-10506936D01*
X5820182Y-10506936D02*
X5810658Y-10516460D01*
X5810658Y-10516460D02*
X5791610Y-10525984D01*
X5791610Y-10525984D02*
X5772562Y-10525984D01*
X5772562Y-10525984D02*
X5753515Y-10516460D01*
X5753515Y-10516460D02*
X5743991Y-10506936D01*
X5743991Y-10506936D02*
X5734467Y-10487889D01*
X5734467Y-10487889D02*
X5724943Y-10449793D01*
X5724943Y-10449793D02*
X5724943Y-10402174D01*
X5724943Y-10402174D02*
X5734467Y-10364079D01*
X5734467Y-10364079D02*
X5743991Y-10345031D01*
X5743991Y-10345031D02*
X5753515Y-10335508D01*
X5753515Y-10335508D02*
X5772562Y-10325984D01*
X5963039Y-10325984D02*
X5982086Y-10325984D01*
X5982086Y-10325984D02*
X6001134Y-10335508D01*
X6001134Y-10335508D02*
X6010658Y-10345031D01*
X6010658Y-10345031D02*
X6020182Y-10364079D01*
X6020182Y-10364079D02*
X6029705Y-10402174D01*
X6029705Y-10402174D02*
X6029705Y-10449793D01*
X6029705Y-10449793D02*
X6020182Y-10487889D01*
X6020182Y-10487889D02*
X6010658Y-10506936D01*
X6010658Y-10506936D02*
X6001134Y-10516460D01*
X6001134Y-10516460D02*
X5982086Y-10525984D01*
X5982086Y-10525984D02*
X5963039Y-10525984D01*
X5963039Y-10525984D02*
X5943991Y-10516460D01*
X5943991Y-10516460D02*
X5934467Y-10506936D01*
X5934467Y-10506936D02*
X5924943Y-10487889D01*
X5924943Y-10487889D02*
X5915420Y-10449793D01*
X5915420Y-10449793D02*
X5915420Y-10402174D01*
X5915420Y-10402174D02*
X5924943Y-10364079D01*
X5924943Y-10364079D02*
X5934467Y-10345031D01*
X5934467Y-10345031D02*
X5943991Y-10335508D01*
X5943991Y-10335508D02*
X5963039Y-10325984D01*
X6115420Y-10525984D02*
X6115420Y-10392650D01*
X6115420Y-10411698D02*
X6124943Y-10402174D01*
X6124943Y-10402174D02*
X6143991Y-10392650D01*
X6143991Y-10392650D02*
X6172563Y-10392650D01*
X6172563Y-10392650D02*
X6191610Y-10402174D01*
X6191610Y-10402174D02*
X6201134Y-10421222D01*
X6201134Y-10421222D02*
X6201134Y-10525984D01*
X6201134Y-10421222D02*
X6210658Y-10402174D01*
X6210658Y-10402174D02*
X6229705Y-10392650D01*
X6229705Y-10392650D02*
X6258277Y-10392650D01*
X6258277Y-10392650D02*
X6277324Y-10402174D01*
X6277324Y-10402174D02*
X6286848Y-10421222D01*
X6286848Y-10421222D02*
X6286848Y-10525984D01*
X6382086Y-10525984D02*
X6382086Y-10392650D01*
X6382086Y-10411698D02*
X6391610Y-10402174D01*
X6391610Y-10402174D02*
X6410658Y-10392650D01*
X6410658Y-10392650D02*
X6439229Y-10392650D01*
X6439229Y-10392650D02*
X6458277Y-10402174D01*
X6458277Y-10402174D02*
X6467801Y-10421222D01*
X6467801Y-10421222D02*
X6467801Y-10525984D01*
X6467801Y-10421222D02*
X6477324Y-10402174D01*
X6477324Y-10402174D02*
X6496372Y-10392650D01*
X6496372Y-10392650D02*
X6524943Y-10392650D01*
X6524943Y-10392650D02*
X6543991Y-10402174D01*
X6543991Y-10402174D02*
X6553515Y-10421222D01*
X6553515Y-10421222D02*
X6553515Y-10525984D01*
X6943991Y-10316460D02*
X6772563Y-10573603D01*
X7201134Y-10325984D02*
X7220182Y-10325984D01*
X7220182Y-10325984D02*
X7239229Y-10335508D01*
X7239229Y-10335508D02*
X7248753Y-10345031D01*
X7248753Y-10345031D02*
X7258277Y-10364079D01*
X7258277Y-10364079D02*
X7267801Y-10402174D01*
X7267801Y-10402174D02*
X7267801Y-10449793D01*
X7267801Y-10449793D02*
X7258277Y-10487889D01*
X7258277Y-10487889D02*
X7248753Y-10506936D01*
X7248753Y-10506936D02*
X7239229Y-10516460D01*
X7239229Y-10516460D02*
X7220182Y-10525984D01*
X7220182Y-10525984D02*
X7201134Y-10525984D01*
X7201134Y-10525984D02*
X7182086Y-10516460D01*
X7182086Y-10516460D02*
X7172563Y-10506936D01*
X7172563Y-10506936D02*
X7163039Y-10487889D01*
X7163039Y-10487889D02*
X7153515Y-10449793D01*
X7153515Y-10449793D02*
X7153515Y-10402174D01*
X7153515Y-10402174D02*
X7163039Y-10364079D01*
X7163039Y-10364079D02*
X7172563Y-10345031D01*
X7172563Y-10345031D02*
X7182086Y-10335508D01*
X7182086Y-10335508D02*
X7201134Y-10325984D01*
X7353515Y-10506936D02*
X7363039Y-10516460D01*
X7363039Y-10516460D02*
X7353515Y-10525984D01*
X7353515Y-10525984D02*
X7343991Y-10516460D01*
X7343991Y-10516460D02*
X7353515Y-10506936D01*
X7353515Y-10506936D02*
X7353515Y-10525984D01*
X7486848Y-10325984D02*
X7505896Y-10325984D01*
X7505896Y-10325984D02*
X7524944Y-10335508D01*
X7524944Y-10335508D02*
X7534467Y-10345031D01*
X7534467Y-10345031D02*
X7543991Y-10364079D01*
X7543991Y-10364079D02*
X7553515Y-10402174D01*
X7553515Y-10402174D02*
X7553515Y-10449793D01*
X7553515Y-10449793D02*
X7543991Y-10487889D01*
X7543991Y-10487889D02*
X7534467Y-10506936D01*
X7534467Y-10506936D02*
X7524944Y-10516460D01*
X7524944Y-10516460D02*
X7505896Y-10525984D01*
X7505896Y-10525984D02*
X7486848Y-10525984D01*
X7486848Y-10525984D02*
X7467801Y-10516460D01*
X7467801Y-10516460D02*
X7458277Y-10506936D01*
X7458277Y-10506936D02*
X7448753Y-10487889D01*
X7448753Y-10487889D02*
X7439229Y-10449793D01*
X7439229Y-10449793D02*
X7439229Y-10402174D01*
X7439229Y-10402174D02*
X7448753Y-10364079D01*
X7448753Y-10364079D02*
X7458277Y-10345031D01*
X7458277Y-10345031D02*
X7467801Y-10335508D01*
X7467801Y-10335508D02*
X7486848Y-10325984D01*
X7620182Y-10325984D02*
X7743991Y-10325984D01*
X7743991Y-10325984D02*
X7677325Y-10402174D01*
X7677325Y-10402174D02*
X7705896Y-10402174D01*
X7705896Y-10402174D02*
X7724944Y-10411698D01*
X7724944Y-10411698D02*
X7734467Y-10421222D01*
X7734467Y-10421222D02*
X7743991Y-10440270D01*
X7743991Y-10440270D02*
X7743991Y-10487889D01*
X7743991Y-10487889D02*
X7734467Y-10506936D01*
X7734467Y-10506936D02*
X7724944Y-10516460D01*
X7724944Y-10516460D02*
X7705896Y-10525984D01*
X7705896Y-10525984D02*
X7648753Y-10525984D01*
X7648753Y-10525984D02*
X7629706Y-10516460D01*
X7629706Y-10516460D02*
X7620182Y-10506936D01*
X7839229Y-10525984D02*
X7877325Y-10525984D01*
X7877325Y-10525984D02*
X7896372Y-10516460D01*
X7896372Y-10516460D02*
X7905896Y-10506936D01*
X7905896Y-10506936D02*
X7924944Y-10478365D01*
X7924944Y-10478365D02*
X7934467Y-10440270D01*
X7934467Y-10440270D02*
X7934467Y-10364079D01*
X7934467Y-10364079D02*
X7924944Y-10345031D01*
X7924944Y-10345031D02*
X7915420Y-10335508D01*
X7915420Y-10335508D02*
X7896372Y-10325984D01*
X7896372Y-10325984D02*
X7858277Y-10325984D01*
X7858277Y-10325984D02*
X7839229Y-10335508D01*
X7839229Y-10335508D02*
X7829706Y-10345031D01*
X7829706Y-10345031D02*
X7820182Y-10364079D01*
X7820182Y-10364079D02*
X7820182Y-10411698D01*
X7820182Y-10411698D02*
X7829706Y-10430746D01*
X7829706Y-10430746D02*
X7839229Y-10440270D01*
X7839229Y-10440270D02*
X7858277Y-10449793D01*
X7858277Y-10449793D02*
X7896372Y-10449793D01*
X7896372Y-10449793D02*
X7915420Y-10440270D01*
X7915420Y-10440270D02*
X7924944Y-10430746D01*
X7924944Y-10430746D02*
X7934467Y-10411698D01*
X8105896Y-10392650D02*
X8105896Y-10525984D01*
X8058277Y-10316460D02*
X8010658Y-10459317D01*
X8010658Y-10459317D02*
X8134467Y-10459317D01*
X8201134Y-10325984D02*
X8201134Y-10364079D01*
X8277325Y-10325984D02*
X8277325Y-10364079D01*
X8572563Y-10602174D02*
X8563039Y-10592650D01*
X8563039Y-10592650D02*
X8543991Y-10564079D01*
X8543991Y-10564079D02*
X8534468Y-10545031D01*
X8534468Y-10545031D02*
X8524944Y-10516460D01*
X8524944Y-10516460D02*
X8515420Y-10468841D01*
X8515420Y-10468841D02*
X8515420Y-10430746D01*
X8515420Y-10430746D02*
X8524944Y-10383127D01*
X8524944Y-10383127D02*
X8534468Y-10354555D01*
X8534468Y-10354555D02*
X8543991Y-10335508D01*
X8543991Y-10335508D02*
X8563039Y-10306936D01*
X8563039Y-10306936D02*
X8572563Y-10297412D01*
X8743991Y-10325984D02*
X8648753Y-10325984D01*
X8648753Y-10325984D02*
X8639230Y-10421222D01*
X8639230Y-10421222D02*
X8648753Y-10411698D01*
X8648753Y-10411698D02*
X8667801Y-10402174D01*
X8667801Y-10402174D02*
X8715420Y-10402174D01*
X8715420Y-10402174D02*
X8734468Y-10411698D01*
X8734468Y-10411698D02*
X8743991Y-10421222D01*
X8743991Y-10421222D02*
X8753515Y-10440270D01*
X8753515Y-10440270D02*
X8753515Y-10487889D01*
X8753515Y-10487889D02*
X8743991Y-10506936D01*
X8743991Y-10506936D02*
X8734468Y-10516460D01*
X8734468Y-10516460D02*
X8715420Y-10525984D01*
X8715420Y-10525984D02*
X8667801Y-10525984D01*
X8667801Y-10525984D02*
X8648753Y-10516460D01*
X8648753Y-10516460D02*
X8639230Y-10506936D01*
X8991611Y-10525984D02*
X8991611Y-10325984D01*
X9077325Y-10525984D02*
X9077325Y-10421222D01*
X9077325Y-10421222D02*
X9067801Y-10402174D01*
X9067801Y-10402174D02*
X9048753Y-10392650D01*
X9048753Y-10392650D02*
X9020182Y-10392650D01*
X9020182Y-10392650D02*
X9001134Y-10402174D01*
X9001134Y-10402174D02*
X8991611Y-10411698D01*
X9201134Y-10525984D02*
X9182087Y-10516460D01*
X9182087Y-10516460D02*
X9172563Y-10506936D01*
X9172563Y-10506936D02*
X9163039Y-10487889D01*
X9163039Y-10487889D02*
X9163039Y-10430746D01*
X9163039Y-10430746D02*
X9172563Y-10411698D01*
X9172563Y-10411698D02*
X9182087Y-10402174D01*
X9182087Y-10402174D02*
X9201134Y-10392650D01*
X9201134Y-10392650D02*
X9229706Y-10392650D01*
X9229706Y-10392650D02*
X9248753Y-10402174D01*
X9248753Y-10402174D02*
X9258277Y-10411698D01*
X9258277Y-10411698D02*
X9267801Y-10430746D01*
X9267801Y-10430746D02*
X9267801Y-10487889D01*
X9267801Y-10487889D02*
X9258277Y-10506936D01*
X9258277Y-10506936D02*
X9248753Y-10516460D01*
X9248753Y-10516460D02*
X9229706Y-10525984D01*
X9229706Y-10525984D02*
X9201134Y-10525984D01*
X9382087Y-10525984D02*
X9363039Y-10516460D01*
X9363039Y-10516460D02*
X9353515Y-10497412D01*
X9353515Y-10497412D02*
X9353515Y-10325984D01*
X9534468Y-10516460D02*
X9515420Y-10525984D01*
X9515420Y-10525984D02*
X9477325Y-10525984D01*
X9477325Y-10525984D02*
X9458277Y-10516460D01*
X9458277Y-10516460D02*
X9448753Y-10497412D01*
X9448753Y-10497412D02*
X9448753Y-10421222D01*
X9448753Y-10421222D02*
X9458277Y-10402174D01*
X9458277Y-10402174D02*
X9477325Y-10392650D01*
X9477325Y-10392650D02*
X9515420Y-10392650D01*
X9515420Y-10392650D02*
X9534468Y-10402174D01*
X9534468Y-10402174D02*
X9543992Y-10421222D01*
X9543992Y-10421222D02*
X9543992Y-10440270D01*
X9543992Y-10440270D02*
X9448753Y-10459317D01*
X9620182Y-10516460D02*
X9639230Y-10525984D01*
X9639230Y-10525984D02*
X9677325Y-10525984D01*
X9677325Y-10525984D02*
X9696373Y-10516460D01*
X9696373Y-10516460D02*
X9705896Y-10497412D01*
X9705896Y-10497412D02*
X9705896Y-10487889D01*
X9705896Y-10487889D02*
X9696373Y-10468841D01*
X9696373Y-10468841D02*
X9677325Y-10459317D01*
X9677325Y-10459317D02*
X9648753Y-10459317D01*
X9648753Y-10459317D02*
X9629706Y-10449793D01*
X9629706Y-10449793D02*
X9620182Y-10430746D01*
X9620182Y-10430746D02*
X9620182Y-10421222D01*
X9620182Y-10421222D02*
X9629706Y-10402174D01*
X9629706Y-10402174D02*
X9648753Y-10392650D01*
X9648753Y-10392650D02*
X9677325Y-10392650D01*
X9677325Y-10392650D02*
X9696373Y-10402174D01*
X9772563Y-10602174D02*
X9782087Y-10592650D01*
X9782087Y-10592650D02*
X9801134Y-10564079D01*
X9801134Y-10564079D02*
X9810658Y-10545031D01*
X9810658Y-10545031D02*
X9820182Y-10516460D01*
X9820182Y-10516460D02*
X9829706Y-10468841D01*
X9829706Y-10468841D02*
X9829706Y-10430746D01*
X9829706Y-10430746D02*
X9820182Y-10383127D01*
X9820182Y-10383127D02*
X9810658Y-10354555D01*
X9810658Y-10354555D02*
X9801134Y-10335508D01*
X9801134Y-10335508D02*
X9782087Y-10306936D01*
X9782087Y-10306936D02*
X9772563Y-10297412D01*
X4897500Y-10798500D02*
X4997500Y-10698500D01*
X4897500Y-10598500D01*
X4797500Y-10698500D01*
X4897500Y-10798500D01*
X5239229Y-10589984D02*
X5363039Y-10589984D01*
X5363039Y-10589984D02*
X5296372Y-10666174D01*
X5296372Y-10666174D02*
X5324944Y-10666174D01*
X5324944Y-10666174D02*
X5343991Y-10675698D01*
X5343991Y-10675698D02*
X5353515Y-10685222D01*
X5353515Y-10685222D02*
X5363039Y-10704270D01*
X5363039Y-10704270D02*
X5363039Y-10751889D01*
X5363039Y-10751889D02*
X5353515Y-10770936D01*
X5353515Y-10770936D02*
X5343991Y-10780460D01*
X5343991Y-10780460D02*
X5324944Y-10789984D01*
X5324944Y-10789984D02*
X5267801Y-10789984D01*
X5267801Y-10789984D02*
X5248753Y-10780460D01*
X5248753Y-10780460D02*
X5239229Y-10770936D01*
X5448753Y-10770936D02*
X5458277Y-10780460D01*
X5458277Y-10780460D02*
X5448753Y-10789984D01*
X5448753Y-10789984D02*
X5439229Y-10780460D01*
X5439229Y-10780460D02*
X5448753Y-10770936D01*
X5448753Y-10770936D02*
X5448753Y-10789984D01*
X5534467Y-10609031D02*
X5543991Y-10599508D01*
X5543991Y-10599508D02*
X5563039Y-10589984D01*
X5563039Y-10589984D02*
X5610658Y-10589984D01*
X5610658Y-10589984D02*
X5629705Y-10599508D01*
X5629705Y-10599508D02*
X5639229Y-10609031D01*
X5639229Y-10609031D02*
X5648753Y-10628079D01*
X5648753Y-10628079D02*
X5648753Y-10647127D01*
X5648753Y-10647127D02*
X5639229Y-10675698D01*
X5639229Y-10675698D02*
X5524944Y-10789984D01*
X5524944Y-10789984D02*
X5648753Y-10789984D01*
X5772562Y-10589984D02*
X5791610Y-10589984D01*
X5791610Y-10589984D02*
X5810658Y-10599508D01*
X5810658Y-10599508D02*
X5820182Y-10609031D01*
X5820182Y-10609031D02*
X5829705Y-10628079D01*
X5829705Y-10628079D02*
X5839229Y-10666174D01*
X5839229Y-10666174D02*
X5839229Y-10713793D01*
X5839229Y-10713793D02*
X5829705Y-10751889D01*
X5829705Y-10751889D02*
X5820182Y-10770936D01*
X5820182Y-10770936D02*
X5810658Y-10780460D01*
X5810658Y-10780460D02*
X5791610Y-10789984D01*
X5791610Y-10789984D02*
X5772562Y-10789984D01*
X5772562Y-10789984D02*
X5753515Y-10780460D01*
X5753515Y-10780460D02*
X5743991Y-10770936D01*
X5743991Y-10770936D02*
X5734467Y-10751889D01*
X5734467Y-10751889D02*
X5724943Y-10713793D01*
X5724943Y-10713793D02*
X5724943Y-10666174D01*
X5724943Y-10666174D02*
X5734467Y-10628079D01*
X5734467Y-10628079D02*
X5743991Y-10609031D01*
X5743991Y-10609031D02*
X5753515Y-10599508D01*
X5753515Y-10599508D02*
X5772562Y-10589984D01*
X5963039Y-10589984D02*
X5982086Y-10589984D01*
X5982086Y-10589984D02*
X6001134Y-10599508D01*
X6001134Y-10599508D02*
X6010658Y-10609031D01*
X6010658Y-10609031D02*
X6020182Y-10628079D01*
X6020182Y-10628079D02*
X6029705Y-10666174D01*
X6029705Y-10666174D02*
X6029705Y-10713793D01*
X6029705Y-10713793D02*
X6020182Y-10751889D01*
X6020182Y-10751889D02*
X6010658Y-10770936D01*
X6010658Y-10770936D02*
X6001134Y-10780460D01*
X6001134Y-10780460D02*
X5982086Y-10789984D01*
X5982086Y-10789984D02*
X5963039Y-10789984D01*
X5963039Y-10789984D02*
X5943991Y-10780460D01*
X5943991Y-10780460D02*
X5934467Y-10770936D01*
X5934467Y-10770936D02*
X5924943Y-10751889D01*
X5924943Y-10751889D02*
X5915420Y-10713793D01*
X5915420Y-10713793D02*
X5915420Y-10666174D01*
X5915420Y-10666174D02*
X5924943Y-10628079D01*
X5924943Y-10628079D02*
X5934467Y-10609031D01*
X5934467Y-10609031D02*
X5943991Y-10599508D01*
X5943991Y-10599508D02*
X5963039Y-10589984D01*
X6115420Y-10789984D02*
X6115420Y-10656650D01*
X6115420Y-10675698D02*
X6124943Y-10666174D01*
X6124943Y-10666174D02*
X6143991Y-10656650D01*
X6143991Y-10656650D02*
X6172563Y-10656650D01*
X6172563Y-10656650D02*
X6191610Y-10666174D01*
X6191610Y-10666174D02*
X6201134Y-10685222D01*
X6201134Y-10685222D02*
X6201134Y-10789984D01*
X6201134Y-10685222D02*
X6210658Y-10666174D01*
X6210658Y-10666174D02*
X6229705Y-10656650D01*
X6229705Y-10656650D02*
X6258277Y-10656650D01*
X6258277Y-10656650D02*
X6277324Y-10666174D01*
X6277324Y-10666174D02*
X6286848Y-10685222D01*
X6286848Y-10685222D02*
X6286848Y-10789984D01*
X6382086Y-10789984D02*
X6382086Y-10656650D01*
X6382086Y-10675698D02*
X6391610Y-10666174D01*
X6391610Y-10666174D02*
X6410658Y-10656650D01*
X6410658Y-10656650D02*
X6439229Y-10656650D01*
X6439229Y-10656650D02*
X6458277Y-10666174D01*
X6458277Y-10666174D02*
X6467801Y-10685222D01*
X6467801Y-10685222D02*
X6467801Y-10789984D01*
X6467801Y-10685222D02*
X6477324Y-10666174D01*
X6477324Y-10666174D02*
X6496372Y-10656650D01*
X6496372Y-10656650D02*
X6524943Y-10656650D01*
X6524943Y-10656650D02*
X6543991Y-10666174D01*
X6543991Y-10666174D02*
X6553515Y-10685222D01*
X6553515Y-10685222D02*
X6553515Y-10789984D01*
X6943991Y-10580460D02*
X6772563Y-10837603D01*
X7201134Y-10589984D02*
X7220182Y-10589984D01*
X7220182Y-10589984D02*
X7239229Y-10599508D01*
X7239229Y-10599508D02*
X7248753Y-10609031D01*
X7248753Y-10609031D02*
X7258277Y-10628079D01*
X7258277Y-10628079D02*
X7267801Y-10666174D01*
X7267801Y-10666174D02*
X7267801Y-10713793D01*
X7267801Y-10713793D02*
X7258277Y-10751889D01*
X7258277Y-10751889D02*
X7248753Y-10770936D01*
X7248753Y-10770936D02*
X7239229Y-10780460D01*
X7239229Y-10780460D02*
X7220182Y-10789984D01*
X7220182Y-10789984D02*
X7201134Y-10789984D01*
X7201134Y-10789984D02*
X7182086Y-10780460D01*
X7182086Y-10780460D02*
X7172563Y-10770936D01*
X7172563Y-10770936D02*
X7163039Y-10751889D01*
X7163039Y-10751889D02*
X7153515Y-10713793D01*
X7153515Y-10713793D02*
X7153515Y-10666174D01*
X7153515Y-10666174D02*
X7163039Y-10628079D01*
X7163039Y-10628079D02*
X7172563Y-10609031D01*
X7172563Y-10609031D02*
X7182086Y-10599508D01*
X7182086Y-10599508D02*
X7201134Y-10589984D01*
X7353515Y-10770936D02*
X7363039Y-10780460D01*
X7363039Y-10780460D02*
X7353515Y-10789984D01*
X7353515Y-10789984D02*
X7343991Y-10780460D01*
X7343991Y-10780460D02*
X7353515Y-10770936D01*
X7353515Y-10770936D02*
X7353515Y-10789984D01*
X7553515Y-10789984D02*
X7439229Y-10789984D01*
X7496372Y-10789984D02*
X7496372Y-10589984D01*
X7496372Y-10589984D02*
X7477325Y-10618555D01*
X7477325Y-10618555D02*
X7458277Y-10637603D01*
X7458277Y-10637603D02*
X7439229Y-10647127D01*
X7629706Y-10609031D02*
X7639229Y-10599508D01*
X7639229Y-10599508D02*
X7658277Y-10589984D01*
X7658277Y-10589984D02*
X7705896Y-10589984D01*
X7705896Y-10589984D02*
X7724944Y-10599508D01*
X7724944Y-10599508D02*
X7734467Y-10609031D01*
X7734467Y-10609031D02*
X7743991Y-10628079D01*
X7743991Y-10628079D02*
X7743991Y-10647127D01*
X7743991Y-10647127D02*
X7734467Y-10675698D01*
X7734467Y-10675698D02*
X7620182Y-10789984D01*
X7620182Y-10789984D02*
X7743991Y-10789984D01*
X7915420Y-10589984D02*
X7877325Y-10589984D01*
X7877325Y-10589984D02*
X7858277Y-10599508D01*
X7858277Y-10599508D02*
X7848753Y-10609031D01*
X7848753Y-10609031D02*
X7829706Y-10637603D01*
X7829706Y-10637603D02*
X7820182Y-10675698D01*
X7820182Y-10675698D02*
X7820182Y-10751889D01*
X7820182Y-10751889D02*
X7829706Y-10770936D01*
X7829706Y-10770936D02*
X7839229Y-10780460D01*
X7839229Y-10780460D02*
X7858277Y-10789984D01*
X7858277Y-10789984D02*
X7896372Y-10789984D01*
X7896372Y-10789984D02*
X7915420Y-10780460D01*
X7915420Y-10780460D02*
X7924944Y-10770936D01*
X7924944Y-10770936D02*
X7934467Y-10751889D01*
X7934467Y-10751889D02*
X7934467Y-10704270D01*
X7934467Y-10704270D02*
X7924944Y-10685222D01*
X7924944Y-10685222D02*
X7915420Y-10675698D01*
X7915420Y-10675698D02*
X7896372Y-10666174D01*
X7896372Y-10666174D02*
X7858277Y-10666174D01*
X7858277Y-10666174D02*
X7839229Y-10675698D01*
X7839229Y-10675698D02*
X7829706Y-10685222D01*
X7829706Y-10685222D02*
X7820182Y-10704270D01*
X8058277Y-10589984D02*
X8077325Y-10589984D01*
X8077325Y-10589984D02*
X8096372Y-10599508D01*
X8096372Y-10599508D02*
X8105896Y-10609031D01*
X8105896Y-10609031D02*
X8115420Y-10628079D01*
X8115420Y-10628079D02*
X8124944Y-10666174D01*
X8124944Y-10666174D02*
X8124944Y-10713793D01*
X8124944Y-10713793D02*
X8115420Y-10751889D01*
X8115420Y-10751889D02*
X8105896Y-10770936D01*
X8105896Y-10770936D02*
X8096372Y-10780460D01*
X8096372Y-10780460D02*
X8077325Y-10789984D01*
X8077325Y-10789984D02*
X8058277Y-10789984D01*
X8058277Y-10789984D02*
X8039229Y-10780460D01*
X8039229Y-10780460D02*
X8029706Y-10770936D01*
X8029706Y-10770936D02*
X8020182Y-10751889D01*
X8020182Y-10751889D02*
X8010658Y-10713793D01*
X8010658Y-10713793D02*
X8010658Y-10666174D01*
X8010658Y-10666174D02*
X8020182Y-10628079D01*
X8020182Y-10628079D02*
X8029706Y-10609031D01*
X8029706Y-10609031D02*
X8039229Y-10599508D01*
X8039229Y-10599508D02*
X8058277Y-10589984D01*
X8201134Y-10589984D02*
X8201134Y-10628079D01*
X8277325Y-10589984D02*
X8277325Y-10628079D01*
X8572563Y-10866174D02*
X8563039Y-10856650D01*
X8563039Y-10856650D02*
X8543991Y-10828079D01*
X8543991Y-10828079D02*
X8534468Y-10809031D01*
X8534468Y-10809031D02*
X8524944Y-10780460D01*
X8524944Y-10780460D02*
X8515420Y-10732841D01*
X8515420Y-10732841D02*
X8515420Y-10694746D01*
X8515420Y-10694746D02*
X8524944Y-10647127D01*
X8524944Y-10647127D02*
X8534468Y-10618555D01*
X8534468Y-10618555D02*
X8543991Y-10599508D01*
X8543991Y-10599508D02*
X8563039Y-10570936D01*
X8563039Y-10570936D02*
X8572563Y-10561412D01*
X8734468Y-10656650D02*
X8734468Y-10789984D01*
X8686849Y-10580460D02*
X8639230Y-10723317D01*
X8639230Y-10723317D02*
X8763039Y-10723317D01*
X8991611Y-10789984D02*
X8991611Y-10589984D01*
X9077325Y-10789984D02*
X9077325Y-10685222D01*
X9077325Y-10685222D02*
X9067801Y-10666174D01*
X9067801Y-10666174D02*
X9048753Y-10656650D01*
X9048753Y-10656650D02*
X9020182Y-10656650D01*
X9020182Y-10656650D02*
X9001134Y-10666174D01*
X9001134Y-10666174D02*
X8991611Y-10675698D01*
X9201134Y-10789984D02*
X9182087Y-10780460D01*
X9182087Y-10780460D02*
X9172563Y-10770936D01*
X9172563Y-10770936D02*
X9163039Y-10751889D01*
X9163039Y-10751889D02*
X9163039Y-10694746D01*
X9163039Y-10694746D02*
X9172563Y-10675698D01*
X9172563Y-10675698D02*
X9182087Y-10666174D01*
X9182087Y-10666174D02*
X9201134Y-10656650D01*
X9201134Y-10656650D02*
X9229706Y-10656650D01*
X9229706Y-10656650D02*
X9248753Y-10666174D01*
X9248753Y-10666174D02*
X9258277Y-10675698D01*
X9258277Y-10675698D02*
X9267801Y-10694746D01*
X9267801Y-10694746D02*
X9267801Y-10751889D01*
X9267801Y-10751889D02*
X9258277Y-10770936D01*
X9258277Y-10770936D02*
X9248753Y-10780460D01*
X9248753Y-10780460D02*
X9229706Y-10789984D01*
X9229706Y-10789984D02*
X9201134Y-10789984D01*
X9382087Y-10789984D02*
X9363039Y-10780460D01*
X9363039Y-10780460D02*
X9353515Y-10761412D01*
X9353515Y-10761412D02*
X9353515Y-10589984D01*
X9534468Y-10780460D02*
X9515420Y-10789984D01*
X9515420Y-10789984D02*
X9477325Y-10789984D01*
X9477325Y-10789984D02*
X9458277Y-10780460D01*
X9458277Y-10780460D02*
X9448753Y-10761412D01*
X9448753Y-10761412D02*
X9448753Y-10685222D01*
X9448753Y-10685222D02*
X9458277Y-10666174D01*
X9458277Y-10666174D02*
X9477325Y-10656650D01*
X9477325Y-10656650D02*
X9515420Y-10656650D01*
X9515420Y-10656650D02*
X9534468Y-10666174D01*
X9534468Y-10666174D02*
X9543992Y-10685222D01*
X9543992Y-10685222D02*
X9543992Y-10704270D01*
X9543992Y-10704270D02*
X9448753Y-10723317D01*
X9620182Y-10780460D02*
X9639230Y-10789984D01*
X9639230Y-10789984D02*
X9677325Y-10789984D01*
X9677325Y-10789984D02*
X9696373Y-10780460D01*
X9696373Y-10780460D02*
X9705896Y-10761412D01*
X9705896Y-10761412D02*
X9705896Y-10751889D01*
X9705896Y-10751889D02*
X9696373Y-10732841D01*
X9696373Y-10732841D02*
X9677325Y-10723317D01*
X9677325Y-10723317D02*
X9648753Y-10723317D01*
X9648753Y-10723317D02*
X9629706Y-10713793D01*
X9629706Y-10713793D02*
X9620182Y-10694746D01*
X9620182Y-10694746D02*
X9620182Y-10685222D01*
X9620182Y-10685222D02*
X9629706Y-10666174D01*
X9629706Y-10666174D02*
X9648753Y-10656650D01*
X9648753Y-10656650D02*
X9677325Y-10656650D01*
X9677325Y-10656650D02*
X9696373Y-10666174D01*
X9772563Y-10866174D02*
X9782087Y-10856650D01*
X9782087Y-10856650D02*
X9801134Y-10828079D01*
X9801134Y-10828079D02*
X9810658Y-10809031D01*
X9810658Y-10809031D02*
X9820182Y-10780460D01*
X9820182Y-10780460D02*
X9829706Y-10732841D01*
X9829706Y-10732841D02*
X9829706Y-10694746D01*
X9829706Y-10694746D02*
X9820182Y-10647127D01*
X9820182Y-10647127D02*
X9810658Y-10618555D01*
X9810658Y-10618555D02*
X9801134Y-10599508D01*
X9801134Y-10599508D02*
X9782087Y-10570936D01*
X9782087Y-10570936D02*
X9772563Y-10561412D01*
M02*
