M48
; DRILL file KiCad 10.0.2 date 2026-07-28T18:36:04
; FORMAT={-:-/ absolute / metric / decimal}
; #@! TF.CreationDate,2026-07-28T18:36:04-05:00
; #@! TF.GenerationSoftware,Kicad,Pcbnew,10.0.2
; #@! TF.FileFunction,Plated,1,4,PTH
FMAT,2
METRIC
; #@! TA.AperFunction,Plated,PTH,ComponentDrill
T1C0.200
; #@! TA.AperFunction,Plated,PTH,ViaDrill
T2C0.300
; #@! TA.AperFunction,Plated,PTH,ComponentDrill
T3C0.600
; #@! TA.AperFunction,Plated,PTH,ComponentDrill
T4C1.000
; #@! TA.AperFunction,Plated,PTH,ComponentDrill
T5C3.200
%
G90
G05
T1
X87.35Y-44.32
X87.35Y-45.72
X88.05Y-43.62
X88.05Y-45.02
X88.05Y-46.42
X88.75Y-44.32
X88.75Y-45.72
X89.45Y-43.62
X89.45Y-45.02
X89.45Y-46.42
X90.15Y-44.32
X90.15Y-45.72
T2
X63.5Y-83.0
X64.25Y-63.0
X64.25Y-65.75
X64.739Y-77.985
X64.75Y-73.75
X67.0Y-68.5
X68.5Y-81.0
X68.75Y-62.0
X69.25Y-72.75
X69.25Y-75.0
X69.75Y-67.0
X69.75Y-72.0
X70.0Y-81.0
X70.5Y-75.0
X70.75Y-63.5
X70.75Y-80.0
X71.5Y-70.5
X72.0Y-79.75
X72.5Y-40.75
X72.75Y-79.75
X74.0Y-70.5
X74.0Y-80.5
X74.5Y-65.75
X75.0Y-72.5
X75.0Y-73.5
X75.0Y-81.0
X75.5Y-77.0
X76.5Y-81.0
X77.0Y-38.5
X79.75Y-52.75
X80.0Y-36.5
X80.0Y-54.25
X80.0Y-82.0
X80.75Y-74.0
X83.5Y-71.0
X84.5Y-60.75
X100.5Y-36.75
X101.5Y-55.75
X104.25Y-67.25
T4
X94.0Y-65.0
X96.54Y-65.0
X99.08Y-65.0
X101.62Y-65.0
X104.16Y-65.0
T5
X55.0Y-34.0
X55.0Y-85.0
X135.0Y-34.0
X135.0Y-85.0
T3
G00X68.0Y-82.27
M15
G01X68.0Y-83.37
M16
G05
G00X68.0Y-86.6
M15
G01X68.0Y-87.4
M16
G05
G00X76.64Y-82.27
M15
G01X76.64Y-83.37
M16
G05
G00X76.64Y-86.6
M15
G01X76.64Y-87.4
M16
G05
M30
