G04 #@! TF.GenerationSoftware,KiCad,Pcbnew,10.0.2*
G04 #@! TF.CreationDate,2026-07-28T18:36:04-05:00*
G04 #@! TF.ProjectId,PCBv2,50434276-322e-46b6-9963-61645f706362,v2*
G04 #@! TF.SameCoordinates,Original*
G04 #@! TF.FileFunction,Legend,Top*
G04 #@! TF.FilePolarity,Positive*
%FSLAX46Y46*%
G04 Gerber Fmt 4.6, Leading zero omitted, Abs format (unit mm)*
G04 Created by KiCad (PCBNEW 10.0.2) date 2026-07-28 18:36:04*
%MOMM*%
%LPD*%
G01*
G04 APERTURE LIST*
G04 Aperture macros list*
%AMRoundRect*
0 Rectangle with rounded corners*
0 $1 Rounding radius*
0 $2 $3 $4 $5 $6 $7 $8 $9 X,Y pos of 4 corners*
0 Add a 4 corners polygon primitive as box body*
4,1,4,$2,$3,$4,$5,$6,$7,$8,$9,$2,$3,0*
0 Add four circle primitives for the rounded corners*
1,1,$1+$1,$2,$3*
1,1,$1+$1,$4,$5*
1,1,$1+$1,$6,$7*
1,1,$1+$1,$8,$9*
0 Add four rect primitives between the rounded corners*
20,1,$1+$1,$2,$3,$4,$5,0*
20,1,$1+$1,$4,$5,$6,$7,0*
20,1,$1+$1,$6,$7,$8,$9,0*
20,1,$1+$1,$8,$9,$2,$3,0*%
G04 Aperture macros list end*
%ADD10C,0.150000*%
%ADD11C,0.120000*%
%ADD12C,0.152400*%
%ADD13C,0.127000*%
%ADD14C,0.200000*%
%ADD15RoundRect,0.250000X0.350000X0.450000X-0.350000X0.450000X-0.350000X-0.450000X0.350000X-0.450000X0*%
%ADD16R,2.794000X1.244600*%
%ADD17C,5.600000*%
%ADD18RoundRect,0.250000X0.337500X0.475000X-0.337500X0.475000X-0.337500X-0.475000X0.337500X-0.475000X0*%
%ADD19RoundRect,0.250000X-0.337500X-0.475000X0.337500X-0.475000X0.337500X0.475000X-0.337500X0.475000X0*%
%ADD20R,0.203200X0.508000*%
%ADD21R,1.003300X0.457200*%
%ADD22RoundRect,0.250000X-0.350000X-0.450000X0.350000X-0.450000X0.350000X0.450000X-0.350000X0.450000X0*%
%ADD23RoundRect,0.250000X0.450000X-0.350000X0.450000X0.350000X-0.450000X0.350000X-0.450000X-0.350000X0*%
%ADD24RoundRect,0.250000X0.475000X-0.337500X0.475000X0.337500X-0.475000X0.337500X-0.475000X-0.337500X0*%
%ADD25RoundRect,0.250000X-0.450000X0.350000X-0.450000X-0.350000X0.450000X-0.350000X0.450000X0.350000X0*%
%ADD26RoundRect,0.250000X-0.475000X0.337500X-0.475000X-0.337500X0.475000X-0.337500X0.475000X0.337500X0*%
%ADD27R,1.700000X1.700000*%
%ADD28C,1.700000*%
%ADD29RoundRect,0.102000X-0.750000X-0.450000X0.750000X-0.450000X0.750000X0.450000X-0.750000X0.450000X0*%
%ADD30RoundRect,0.102000X-0.450000X-0.750000X0.450000X-0.750000X0.450000X0.750000X-0.450000X0.750000X0*%
%ADD31RoundRect,0.102000X-0.450000X-0.450000X0.450000X-0.450000X0.450000X0.450000X-0.450000X0.450000X0*%
%ADD32C,0.650000*%
%ADD33RoundRect,0.102000X-0.300000X-0.575000X0.300000X-0.575000X0.300000X0.575000X-0.300000X0.575000X0*%
%ADD34RoundRect,0.102000X-0.150000X-0.575000X0.150000X-0.575000X0.150000X0.575000X-0.150000X0.575000X0*%
%ADD35O,1.204000X2.304000*%
%ADD36O,1.204000X2.004000*%
%ADD37R,0.939800X1.752600*%
G04 APERTURE END LIST*
D10*
X74508333Y-37354819D02*
X74175000Y-36878628D01*
X73936905Y-37354819D02*
X73936905Y-36354819D01*
X73936905Y-36354819D02*
X74317857Y-36354819D01*
X74317857Y-36354819D02*
X74413095Y-36402438D01*
X74413095Y-36402438D02*
X74460714Y-36450057D01*
X74460714Y-36450057D02*
X74508333Y-36545295D01*
X74508333Y-36545295D02*
X74508333Y-36688152D01*
X74508333Y-36688152D02*
X74460714Y-36783390D01*
X74460714Y-36783390D02*
X74413095Y-36831009D01*
X74413095Y-36831009D02*
X74317857Y-36878628D01*
X74317857Y-36878628D02*
X73936905Y-36878628D01*
X74841667Y-36354819D02*
X75460714Y-36354819D01*
X75460714Y-36354819D02*
X75127381Y-36735771D01*
X75127381Y-36735771D02*
X75270238Y-36735771D01*
X75270238Y-36735771D02*
X75365476Y-36783390D01*
X75365476Y-36783390D02*
X75413095Y-36831009D01*
X75413095Y-36831009D02*
X75460714Y-36926247D01*
X75460714Y-36926247D02*
X75460714Y-37164342D01*
X75460714Y-37164342D02*
X75413095Y-37259580D01*
X75413095Y-37259580D02*
X75365476Y-37307200D01*
X75365476Y-37307200D02*
X75270238Y-37354819D01*
X75270238Y-37354819D02*
X74984524Y-37354819D01*
X74984524Y-37354819D02*
X74889286Y-37307200D01*
X74889286Y-37307200D02*
X74841667Y-37259580D01*
X64454819Y-71680766D02*
X64454819Y-72156956D01*
X64454819Y-72156956D02*
X63454819Y-72156956D01*
X64454819Y-70823623D02*
X64454819Y-71395051D01*
X64454819Y-71109337D02*
X63454819Y-71109337D01*
X63454819Y-71109337D02*
X63597676Y-71204575D01*
X63597676Y-71204575D02*
X63692914Y-71299813D01*
X63692914Y-71299813D02*
X63740533Y-71395051D01*
X134095238Y-37454819D02*
X134714285Y-37454819D01*
X134714285Y-37454819D02*
X134380952Y-37835771D01*
X134380952Y-37835771D02*
X134523809Y-37835771D01*
X134523809Y-37835771D02*
X134619047Y-37883390D01*
X134619047Y-37883390D02*
X134666666Y-37931009D01*
X134666666Y-37931009D02*
X134714285Y-38026247D01*
X134714285Y-38026247D02*
X134714285Y-38264342D01*
X134714285Y-38264342D02*
X134666666Y-38359580D01*
X134666666Y-38359580D02*
X134619047Y-38407200D01*
X134619047Y-38407200D02*
X134523809Y-38454819D01*
X134523809Y-38454819D02*
X134238095Y-38454819D01*
X134238095Y-38454819D02*
X134142857Y-38407200D01*
X134142857Y-38407200D02*
X134095238Y-38359580D01*
X135142857Y-38454819D02*
X135142857Y-37454819D01*
X135142857Y-37454819D02*
X135476190Y-38169104D01*
X135476190Y-38169104D02*
X135809523Y-37454819D01*
X135809523Y-37454819D02*
X135809523Y-38454819D01*
X54095238Y-37454819D02*
X54714285Y-37454819D01*
X54714285Y-37454819D02*
X54380952Y-37835771D01*
X54380952Y-37835771D02*
X54523809Y-37835771D01*
X54523809Y-37835771D02*
X54619047Y-37883390D01*
X54619047Y-37883390D02*
X54666666Y-37931009D01*
X54666666Y-37931009D02*
X54714285Y-38026247D01*
X54714285Y-38026247D02*
X54714285Y-38264342D01*
X54714285Y-38264342D02*
X54666666Y-38359580D01*
X54666666Y-38359580D02*
X54619047Y-38407200D01*
X54619047Y-38407200D02*
X54523809Y-38454819D01*
X54523809Y-38454819D02*
X54238095Y-38454819D01*
X54238095Y-38454819D02*
X54142857Y-38407200D01*
X54142857Y-38407200D02*
X54095238Y-38359580D01*
X55142857Y-38454819D02*
X55142857Y-37454819D01*
X55142857Y-37454819D02*
X55476190Y-38169104D01*
X55476190Y-38169104D02*
X55809523Y-37454819D01*
X55809523Y-37454819D02*
X55809523Y-38454819D01*
X134095238Y-80704819D02*
X134714285Y-80704819D01*
X134714285Y-80704819D02*
X134380952Y-81085771D01*
X134380952Y-81085771D02*
X134523809Y-81085771D01*
X134523809Y-81085771D02*
X134619047Y-81133390D01*
X134619047Y-81133390D02*
X134666666Y-81181009D01*
X134666666Y-81181009D02*
X134714285Y-81276247D01*
X134714285Y-81276247D02*
X134714285Y-81514342D01*
X134714285Y-81514342D02*
X134666666Y-81609580D01*
X134666666Y-81609580D02*
X134619047Y-81657200D01*
X134619047Y-81657200D02*
X134523809Y-81704819D01*
X134523809Y-81704819D02*
X134238095Y-81704819D01*
X134238095Y-81704819D02*
X134142857Y-81657200D01*
X134142857Y-81657200D02*
X134095238Y-81609580D01*
X135142857Y-81704819D02*
X135142857Y-80704819D01*
X135142857Y-80704819D02*
X135476190Y-81419104D01*
X135476190Y-81419104D02*
X135809523Y-80704819D01*
X135809523Y-80704819D02*
X135809523Y-81704819D01*
X66295833Y-61609580D02*
X66248214Y-61657200D01*
X66248214Y-61657200D02*
X66105357Y-61704819D01*
X66105357Y-61704819D02*
X66010119Y-61704819D01*
X66010119Y-61704819D02*
X65867262Y-61657200D01*
X65867262Y-61657200D02*
X65772024Y-61561961D01*
X65772024Y-61561961D02*
X65724405Y-61466723D01*
X65724405Y-61466723D02*
X65676786Y-61276247D01*
X65676786Y-61276247D02*
X65676786Y-61133390D01*
X65676786Y-61133390D02*
X65724405Y-60942914D01*
X65724405Y-60942914D02*
X65772024Y-60847676D01*
X65772024Y-60847676D02*
X65867262Y-60752438D01*
X65867262Y-60752438D02*
X66010119Y-60704819D01*
X66010119Y-60704819D02*
X66105357Y-60704819D01*
X66105357Y-60704819D02*
X66248214Y-60752438D01*
X66248214Y-60752438D02*
X66295833Y-60800057D01*
X66772024Y-61704819D02*
X66962500Y-61704819D01*
X66962500Y-61704819D02*
X67057738Y-61657200D01*
X67057738Y-61657200D02*
X67105357Y-61609580D01*
X67105357Y-61609580D02*
X67200595Y-61466723D01*
X67200595Y-61466723D02*
X67248214Y-61276247D01*
X67248214Y-61276247D02*
X67248214Y-60895295D01*
X67248214Y-60895295D02*
X67200595Y-60800057D01*
X67200595Y-60800057D02*
X67152976Y-60752438D01*
X67152976Y-60752438D02*
X67057738Y-60704819D01*
X67057738Y-60704819D02*
X66867262Y-60704819D01*
X66867262Y-60704819D02*
X66772024Y-60752438D01*
X66772024Y-60752438D02*
X66724405Y-60800057D01*
X66724405Y-60800057D02*
X66676786Y-60895295D01*
X66676786Y-60895295D02*
X66676786Y-61133390D01*
X66676786Y-61133390D02*
X66724405Y-61228628D01*
X66724405Y-61228628D02*
X66772024Y-61276247D01*
X66772024Y-61276247D02*
X66867262Y-61323866D01*
X66867262Y-61323866D02*
X67057738Y-61323866D01*
X67057738Y-61323866D02*
X67152976Y-61276247D01*
X67152976Y-61276247D02*
X67200595Y-61228628D01*
X67200595Y-61228628D02*
X67248214Y-61133390D01*
X63833333Y-75359580D02*
X63785714Y-75407200D01*
X63785714Y-75407200D02*
X63642857Y-75454819D01*
X63642857Y-75454819D02*
X63547619Y-75454819D01*
X63547619Y-75454819D02*
X63404762Y-75407200D01*
X63404762Y-75407200D02*
X63309524Y-75311961D01*
X63309524Y-75311961D02*
X63261905Y-75216723D01*
X63261905Y-75216723D02*
X63214286Y-75026247D01*
X63214286Y-75026247D02*
X63214286Y-74883390D01*
X63214286Y-74883390D02*
X63261905Y-74692914D01*
X63261905Y-74692914D02*
X63309524Y-74597676D01*
X63309524Y-74597676D02*
X63404762Y-74502438D01*
X63404762Y-74502438D02*
X63547619Y-74454819D01*
X63547619Y-74454819D02*
X63642857Y-74454819D01*
X63642857Y-74454819D02*
X63785714Y-74502438D01*
X63785714Y-74502438D02*
X63833333Y-74550057D01*
X64166667Y-74454819D02*
X64785714Y-74454819D01*
X64785714Y-74454819D02*
X64452381Y-74835771D01*
X64452381Y-74835771D02*
X64595238Y-74835771D01*
X64595238Y-74835771D02*
X64690476Y-74883390D01*
X64690476Y-74883390D02*
X64738095Y-74931009D01*
X64738095Y-74931009D02*
X64785714Y-75026247D01*
X64785714Y-75026247D02*
X64785714Y-75264342D01*
X64785714Y-75264342D02*
X64738095Y-75359580D01*
X64738095Y-75359580D02*
X64690476Y-75407200D01*
X64690476Y-75407200D02*
X64595238Y-75454819D01*
X64595238Y-75454819D02*
X64309524Y-75454819D01*
X64309524Y-75454819D02*
X64214286Y-75407200D01*
X64214286Y-75407200D02*
X64166667Y-75359580D01*
X66295833Y-67789580D02*
X66248214Y-67837200D01*
X66248214Y-67837200D02*
X66105357Y-67884819D01*
X66105357Y-67884819D02*
X66010119Y-67884819D01*
X66010119Y-67884819D02*
X65867262Y-67837200D01*
X65867262Y-67837200D02*
X65772024Y-67741961D01*
X65772024Y-67741961D02*
X65724405Y-67646723D01*
X65724405Y-67646723D02*
X65676786Y-67456247D01*
X65676786Y-67456247D02*
X65676786Y-67313390D01*
X65676786Y-67313390D02*
X65724405Y-67122914D01*
X65724405Y-67122914D02*
X65772024Y-67027676D01*
X65772024Y-67027676D02*
X65867262Y-66932438D01*
X65867262Y-66932438D02*
X66010119Y-66884819D01*
X66010119Y-66884819D02*
X66105357Y-66884819D01*
X66105357Y-66884819D02*
X66248214Y-66932438D01*
X66248214Y-66932438D02*
X66295833Y-66980057D01*
X66867262Y-67313390D02*
X66772024Y-67265771D01*
X66772024Y-67265771D02*
X66724405Y-67218152D01*
X66724405Y-67218152D02*
X66676786Y-67122914D01*
X66676786Y-67122914D02*
X66676786Y-67075295D01*
X66676786Y-67075295D02*
X66724405Y-66980057D01*
X66724405Y-66980057D02*
X66772024Y-66932438D01*
X66772024Y-66932438D02*
X66867262Y-66884819D01*
X66867262Y-66884819D02*
X67057738Y-66884819D01*
X67057738Y-66884819D02*
X67152976Y-66932438D01*
X67152976Y-66932438D02*
X67200595Y-66980057D01*
X67200595Y-66980057D02*
X67248214Y-67075295D01*
X67248214Y-67075295D02*
X67248214Y-67122914D01*
X67248214Y-67122914D02*
X67200595Y-67218152D01*
X67200595Y-67218152D02*
X67152976Y-67265771D01*
X67152976Y-67265771D02*
X67057738Y-67313390D01*
X67057738Y-67313390D02*
X66867262Y-67313390D01*
X66867262Y-67313390D02*
X66772024Y-67361009D01*
X66772024Y-67361009D02*
X66724405Y-67408628D01*
X66724405Y-67408628D02*
X66676786Y-67503866D01*
X66676786Y-67503866D02*
X66676786Y-67694342D01*
X66676786Y-67694342D02*
X66724405Y-67789580D01*
X66724405Y-67789580D02*
X66772024Y-67837200D01*
X66772024Y-67837200D02*
X66867262Y-67884819D01*
X66867262Y-67884819D02*
X67057738Y-67884819D01*
X67057738Y-67884819D02*
X67152976Y-67837200D01*
X67152976Y-67837200D02*
X67200595Y-67789580D01*
X67200595Y-67789580D02*
X67248214Y-67694342D01*
X67248214Y-67694342D02*
X67248214Y-67503866D01*
X67248214Y-67503866D02*
X67200595Y-67408628D01*
X67200595Y-67408628D02*
X67152976Y-67361009D01*
X67152976Y-67361009D02*
X67057738Y-67313390D01*
X71590645Y-72429818D02*
X71590645Y-73239341D01*
X71590645Y-73239341D02*
X71638264Y-73334579D01*
X71638264Y-73334579D02*
X71685883Y-73382199D01*
X71685883Y-73382199D02*
X71781121Y-73429818D01*
X71781121Y-73429818D02*
X71971597Y-73429818D01*
X71971597Y-73429818D02*
X72066835Y-73382199D01*
X72066835Y-73382199D02*
X72114454Y-73334579D01*
X72114454Y-73334579D02*
X72162073Y-73239341D01*
X72162073Y-73239341D02*
X72162073Y-72429818D01*
X72590645Y-72525056D02*
X72638264Y-72477437D01*
X72638264Y-72477437D02*
X72733502Y-72429818D01*
X72733502Y-72429818D02*
X72971597Y-72429818D01*
X72971597Y-72429818D02*
X73066835Y-72477437D01*
X73066835Y-72477437D02*
X73114454Y-72525056D01*
X73114454Y-72525056D02*
X73162073Y-72620294D01*
X73162073Y-72620294D02*
X73162073Y-72715532D01*
X73162073Y-72715532D02*
X73114454Y-72858389D01*
X73114454Y-72858389D02*
X72543026Y-73429818D01*
X72543026Y-73429818D02*
X73162073Y-73429818D01*
X70746000Y-69854618D02*
X70746000Y-70092713D01*
X70507905Y-69997475D02*
X70746000Y-70092713D01*
X70746000Y-70092713D02*
X70984095Y-69997475D01*
X70603143Y-70283189D02*
X70746000Y-70092713D01*
X70746000Y-70092713D02*
X70888857Y-70283189D01*
X70746000Y-69854618D02*
X70746000Y-70092713D01*
X70507905Y-69997475D02*
X70746000Y-70092713D01*
X70746000Y-70092713D02*
X70984095Y-69997475D01*
X70603143Y-70283189D02*
X70746000Y-70092713D01*
X70746000Y-70092713D02*
X70888857Y-70283189D01*
X68138133Y-80109580D02*
X68090514Y-80157200D01*
X68090514Y-80157200D02*
X67947657Y-80204819D01*
X67947657Y-80204819D02*
X67852419Y-80204819D01*
X67852419Y-80204819D02*
X67709562Y-80157200D01*
X67709562Y-80157200D02*
X67614324Y-80061961D01*
X67614324Y-80061961D02*
X67566705Y-79966723D01*
X67566705Y-79966723D02*
X67519086Y-79776247D01*
X67519086Y-79776247D02*
X67519086Y-79633390D01*
X67519086Y-79633390D02*
X67566705Y-79442914D01*
X67566705Y-79442914D02*
X67614324Y-79347676D01*
X67614324Y-79347676D02*
X67709562Y-79252438D01*
X67709562Y-79252438D02*
X67852419Y-79204819D01*
X67852419Y-79204819D02*
X67947657Y-79204819D01*
X67947657Y-79204819D02*
X68090514Y-79252438D01*
X68090514Y-79252438D02*
X68138133Y-79300057D01*
X69138133Y-80204819D02*
X68804800Y-79728628D01*
X68566705Y-80204819D02*
X68566705Y-79204819D01*
X68566705Y-79204819D02*
X68947657Y-79204819D01*
X68947657Y-79204819D02*
X69042895Y-79252438D01*
X69042895Y-79252438D02*
X69090514Y-79300057D01*
X69090514Y-79300057D02*
X69138133Y-79395295D01*
X69138133Y-79395295D02*
X69138133Y-79538152D01*
X69138133Y-79538152D02*
X69090514Y-79633390D01*
X69090514Y-79633390D02*
X69042895Y-79681009D01*
X69042895Y-79681009D02*
X68947657Y-79728628D01*
X68947657Y-79728628D02*
X68566705Y-79728628D01*
X69519086Y-79300057D02*
X69566705Y-79252438D01*
X69566705Y-79252438D02*
X69661943Y-79204819D01*
X69661943Y-79204819D02*
X69900038Y-79204819D01*
X69900038Y-79204819D02*
X69995276Y-79252438D01*
X69995276Y-79252438D02*
X70042895Y-79300057D01*
X70042895Y-79300057D02*
X70090514Y-79395295D01*
X70090514Y-79395295D02*
X70090514Y-79490533D01*
X70090514Y-79490533D02*
X70042895Y-79633390D01*
X70042895Y-79633390D02*
X69471467Y-80204819D01*
X69471467Y-80204819D02*
X70090514Y-80204819D01*
X83857142Y-69454819D02*
X83523809Y-68978628D01*
X83285714Y-69454819D02*
X83285714Y-68454819D01*
X83285714Y-68454819D02*
X83666666Y-68454819D01*
X83666666Y-68454819D02*
X83761904Y-68502438D01*
X83761904Y-68502438D02*
X83809523Y-68550057D01*
X83809523Y-68550057D02*
X83857142Y-68645295D01*
X83857142Y-68645295D02*
X83857142Y-68788152D01*
X83857142Y-68788152D02*
X83809523Y-68883390D01*
X83809523Y-68883390D02*
X83761904Y-68931009D01*
X83761904Y-68931009D02*
X83666666Y-68978628D01*
X83666666Y-68978628D02*
X83285714Y-68978628D01*
X84809523Y-69454819D02*
X84238095Y-69454819D01*
X84523809Y-69454819D02*
X84523809Y-68454819D01*
X84523809Y-68454819D02*
X84428571Y-68597676D01*
X84428571Y-68597676D02*
X84333333Y-68692914D01*
X84333333Y-68692914D02*
X84238095Y-68740533D01*
X85428571Y-68454819D02*
X85523809Y-68454819D01*
X85523809Y-68454819D02*
X85619047Y-68502438D01*
X85619047Y-68502438D02*
X85666666Y-68550057D01*
X85666666Y-68550057D02*
X85714285Y-68645295D01*
X85714285Y-68645295D02*
X85761904Y-68835771D01*
X85761904Y-68835771D02*
X85761904Y-69073866D01*
X85761904Y-69073866D02*
X85714285Y-69264342D01*
X85714285Y-69264342D02*
X85666666Y-69359580D01*
X85666666Y-69359580D02*
X85619047Y-69407200D01*
X85619047Y-69407200D02*
X85523809Y-69454819D01*
X85523809Y-69454819D02*
X85428571Y-69454819D01*
X85428571Y-69454819D02*
X85333333Y-69407200D01*
X85333333Y-69407200D02*
X85285714Y-69359580D01*
X85285714Y-69359580D02*
X85238095Y-69264342D01*
X85238095Y-69264342D02*
X85190476Y-69073866D01*
X85190476Y-69073866D02*
X85190476Y-68835771D01*
X85190476Y-68835771D02*
X85238095Y-68645295D01*
X85238095Y-68645295D02*
X85285714Y-68550057D01*
X85285714Y-68550057D02*
X85333333Y-68502438D01*
X85333333Y-68502438D02*
X85428571Y-68454819D01*
X80333333Y-73204819D02*
X80000000Y-72728628D01*
X79761905Y-73204819D02*
X79761905Y-72204819D01*
X79761905Y-72204819D02*
X80142857Y-72204819D01*
X80142857Y-72204819D02*
X80238095Y-72252438D01*
X80238095Y-72252438D02*
X80285714Y-72300057D01*
X80285714Y-72300057D02*
X80333333Y-72395295D01*
X80333333Y-72395295D02*
X80333333Y-72538152D01*
X80333333Y-72538152D02*
X80285714Y-72633390D01*
X80285714Y-72633390D02*
X80238095Y-72681009D01*
X80238095Y-72681009D02*
X80142857Y-72728628D01*
X80142857Y-72728628D02*
X79761905Y-72728628D01*
X80904762Y-72633390D02*
X80809524Y-72585771D01*
X80809524Y-72585771D02*
X80761905Y-72538152D01*
X80761905Y-72538152D02*
X80714286Y-72442914D01*
X80714286Y-72442914D02*
X80714286Y-72395295D01*
X80714286Y-72395295D02*
X80761905Y-72300057D01*
X80761905Y-72300057D02*
X80809524Y-72252438D01*
X80809524Y-72252438D02*
X80904762Y-72204819D01*
X80904762Y-72204819D02*
X81095238Y-72204819D01*
X81095238Y-72204819D02*
X81190476Y-72252438D01*
X81190476Y-72252438D02*
X81238095Y-72300057D01*
X81238095Y-72300057D02*
X81285714Y-72395295D01*
X81285714Y-72395295D02*
X81285714Y-72442914D01*
X81285714Y-72442914D02*
X81238095Y-72538152D01*
X81238095Y-72538152D02*
X81190476Y-72585771D01*
X81190476Y-72585771D02*
X81095238Y-72633390D01*
X81095238Y-72633390D02*
X80904762Y-72633390D01*
X80904762Y-72633390D02*
X80809524Y-72681009D01*
X80809524Y-72681009D02*
X80761905Y-72728628D01*
X80761905Y-72728628D02*
X80714286Y-72823866D01*
X80714286Y-72823866D02*
X80714286Y-73014342D01*
X80714286Y-73014342D02*
X80761905Y-73109580D01*
X80761905Y-73109580D02*
X80809524Y-73157200D01*
X80809524Y-73157200D02*
X80904762Y-73204819D01*
X80904762Y-73204819D02*
X81095238Y-73204819D01*
X81095238Y-73204819D02*
X81190476Y-73157200D01*
X81190476Y-73157200D02*
X81238095Y-73109580D01*
X81238095Y-73109580D02*
X81285714Y-73014342D01*
X81285714Y-73014342D02*
X81285714Y-72823866D01*
X81285714Y-72823866D02*
X81238095Y-72728628D01*
X81238095Y-72728628D02*
X81190476Y-72681009D01*
X81190476Y-72681009D02*
X81095238Y-72633390D01*
X70833333Y-65954819D02*
X70500000Y-65478628D01*
X70261905Y-65954819D02*
X70261905Y-64954819D01*
X70261905Y-64954819D02*
X70642857Y-64954819D01*
X70642857Y-64954819D02*
X70738095Y-65002438D01*
X70738095Y-65002438D02*
X70785714Y-65050057D01*
X70785714Y-65050057D02*
X70833333Y-65145295D01*
X70833333Y-65145295D02*
X70833333Y-65288152D01*
X70833333Y-65288152D02*
X70785714Y-65383390D01*
X70785714Y-65383390D02*
X70738095Y-65431009D01*
X70738095Y-65431009D02*
X70642857Y-65478628D01*
X70642857Y-65478628D02*
X70261905Y-65478628D01*
X71738095Y-64954819D02*
X71261905Y-64954819D01*
X71261905Y-64954819D02*
X71214286Y-65431009D01*
X71214286Y-65431009D02*
X71261905Y-65383390D01*
X71261905Y-65383390D02*
X71357143Y-65335771D01*
X71357143Y-65335771D02*
X71595238Y-65335771D01*
X71595238Y-65335771D02*
X71690476Y-65383390D01*
X71690476Y-65383390D02*
X71738095Y-65431009D01*
X71738095Y-65431009D02*
X71785714Y-65526247D01*
X71785714Y-65526247D02*
X71785714Y-65764342D01*
X71785714Y-65764342D02*
X71738095Y-65859580D01*
X71738095Y-65859580D02*
X71690476Y-65907200D01*
X71690476Y-65907200D02*
X71595238Y-65954819D01*
X71595238Y-65954819D02*
X71357143Y-65954819D01*
X71357143Y-65954819D02*
X71261905Y-65907200D01*
X71261905Y-65907200D02*
X71214286Y-65859580D01*
X78954819Y-86666666D02*
X78478628Y-86999999D01*
X78954819Y-87238094D02*
X77954819Y-87238094D01*
X77954819Y-87238094D02*
X77954819Y-86857142D01*
X77954819Y-86857142D02*
X78002438Y-86761904D01*
X78002438Y-86761904D02*
X78050057Y-86714285D01*
X78050057Y-86714285D02*
X78145295Y-86666666D01*
X78145295Y-86666666D02*
X78288152Y-86666666D01*
X78288152Y-86666666D02*
X78383390Y-86714285D01*
X78383390Y-86714285D02*
X78431009Y-86761904D01*
X78431009Y-86761904D02*
X78478628Y-86857142D01*
X78478628Y-86857142D02*
X78478628Y-87238094D01*
X78050057Y-86285713D02*
X78002438Y-86238094D01*
X78002438Y-86238094D02*
X77954819Y-86142856D01*
X77954819Y-86142856D02*
X77954819Y-85904761D01*
X77954819Y-85904761D02*
X78002438Y-85809523D01*
X78002438Y-85809523D02*
X78050057Y-85761904D01*
X78050057Y-85761904D02*
X78145295Y-85714285D01*
X78145295Y-85714285D02*
X78240533Y-85714285D01*
X78240533Y-85714285D02*
X78383390Y-85761904D01*
X78383390Y-85761904D02*
X78954819Y-86333332D01*
X78954819Y-86333332D02*
X78954819Y-85714285D01*
X63833333Y-77359580D02*
X63785714Y-77407200D01*
X63785714Y-77407200D02*
X63642857Y-77454819D01*
X63642857Y-77454819D02*
X63547619Y-77454819D01*
X63547619Y-77454819D02*
X63404762Y-77407200D01*
X63404762Y-77407200D02*
X63309524Y-77311961D01*
X63309524Y-77311961D02*
X63261905Y-77216723D01*
X63261905Y-77216723D02*
X63214286Y-77026247D01*
X63214286Y-77026247D02*
X63214286Y-76883390D01*
X63214286Y-76883390D02*
X63261905Y-76692914D01*
X63261905Y-76692914D02*
X63309524Y-76597676D01*
X63309524Y-76597676D02*
X63404762Y-76502438D01*
X63404762Y-76502438D02*
X63547619Y-76454819D01*
X63547619Y-76454819D02*
X63642857Y-76454819D01*
X63642857Y-76454819D02*
X63785714Y-76502438D01*
X63785714Y-76502438D02*
X63833333Y-76550057D01*
X64214286Y-76550057D02*
X64261905Y-76502438D01*
X64261905Y-76502438D02*
X64357143Y-76454819D01*
X64357143Y-76454819D02*
X64595238Y-76454819D01*
X64595238Y-76454819D02*
X64690476Y-76502438D01*
X64690476Y-76502438D02*
X64738095Y-76550057D01*
X64738095Y-76550057D02*
X64785714Y-76645295D01*
X64785714Y-76645295D02*
X64785714Y-76740533D01*
X64785714Y-76740533D02*
X64738095Y-76883390D01*
X64738095Y-76883390D02*
X64166667Y-77454819D01*
X64166667Y-77454819D02*
X64785714Y-77454819D01*
X72833333Y-65784580D02*
X72785714Y-65832200D01*
X72785714Y-65832200D02*
X72642857Y-65879819D01*
X72642857Y-65879819D02*
X72547619Y-65879819D01*
X72547619Y-65879819D02*
X72404762Y-65832200D01*
X72404762Y-65832200D02*
X72309524Y-65736961D01*
X72309524Y-65736961D02*
X72261905Y-65641723D01*
X72261905Y-65641723D02*
X72214286Y-65451247D01*
X72214286Y-65451247D02*
X72214286Y-65308390D01*
X72214286Y-65308390D02*
X72261905Y-65117914D01*
X72261905Y-65117914D02*
X72309524Y-65022676D01*
X72309524Y-65022676D02*
X72404762Y-64927438D01*
X72404762Y-64927438D02*
X72547619Y-64879819D01*
X72547619Y-64879819D02*
X72642857Y-64879819D01*
X72642857Y-64879819D02*
X72785714Y-64927438D01*
X72785714Y-64927438D02*
X72833333Y-64975057D01*
X73690476Y-65213152D02*
X73690476Y-65879819D01*
X73452381Y-64832200D02*
X73214286Y-65546485D01*
X73214286Y-65546485D02*
X73833333Y-65546485D01*
X61833333Y-84954819D02*
X61500000Y-84478628D01*
X61261905Y-84954819D02*
X61261905Y-83954819D01*
X61261905Y-83954819D02*
X61642857Y-83954819D01*
X61642857Y-83954819D02*
X61738095Y-84002438D01*
X61738095Y-84002438D02*
X61785714Y-84050057D01*
X61785714Y-84050057D02*
X61833333Y-84145295D01*
X61833333Y-84145295D02*
X61833333Y-84288152D01*
X61833333Y-84288152D02*
X61785714Y-84383390D01*
X61785714Y-84383390D02*
X61738095Y-84431009D01*
X61738095Y-84431009D02*
X61642857Y-84478628D01*
X61642857Y-84478628D02*
X61261905Y-84478628D01*
X62785714Y-84954819D02*
X62214286Y-84954819D01*
X62500000Y-84954819D02*
X62500000Y-83954819D01*
X62500000Y-83954819D02*
X62404762Y-84097676D01*
X62404762Y-84097676D02*
X62309524Y-84192914D01*
X62309524Y-84192914D02*
X62214286Y-84240533D01*
X86604819Y-59142857D02*
X86128628Y-59476190D01*
X86604819Y-59714285D02*
X85604819Y-59714285D01*
X85604819Y-59714285D02*
X85604819Y-59333333D01*
X85604819Y-59333333D02*
X85652438Y-59238095D01*
X85652438Y-59238095D02*
X85700057Y-59190476D01*
X85700057Y-59190476D02*
X85795295Y-59142857D01*
X85795295Y-59142857D02*
X85938152Y-59142857D01*
X85938152Y-59142857D02*
X86033390Y-59190476D01*
X86033390Y-59190476D02*
X86081009Y-59238095D01*
X86081009Y-59238095D02*
X86128628Y-59333333D01*
X86128628Y-59333333D02*
X86128628Y-59714285D01*
X86604819Y-58190476D02*
X86604819Y-58761904D01*
X86604819Y-58476190D02*
X85604819Y-58476190D01*
X85604819Y-58476190D02*
X85747676Y-58571428D01*
X85747676Y-58571428D02*
X85842914Y-58666666D01*
X85842914Y-58666666D02*
X85890533Y-58761904D01*
X86604819Y-57238095D02*
X86604819Y-57809523D01*
X86604819Y-57523809D02*
X85604819Y-57523809D01*
X85604819Y-57523809D02*
X85747676Y-57619047D01*
X85747676Y-57619047D02*
X85842914Y-57714285D01*
X85842914Y-57714285D02*
X85890533Y-57809523D01*
X81359580Y-75666666D02*
X81407200Y-75714285D01*
X81407200Y-75714285D02*
X81454819Y-75857142D01*
X81454819Y-75857142D02*
X81454819Y-75952380D01*
X81454819Y-75952380D02*
X81407200Y-76095237D01*
X81407200Y-76095237D02*
X81311961Y-76190475D01*
X81311961Y-76190475D02*
X81216723Y-76238094D01*
X81216723Y-76238094D02*
X81026247Y-76285713D01*
X81026247Y-76285713D02*
X80883390Y-76285713D01*
X80883390Y-76285713D02*
X80692914Y-76238094D01*
X80692914Y-76238094D02*
X80597676Y-76190475D01*
X80597676Y-76190475D02*
X80502438Y-76095237D01*
X80502438Y-76095237D02*
X80454819Y-75952380D01*
X80454819Y-75952380D02*
X80454819Y-75857142D01*
X80454819Y-75857142D02*
X80502438Y-75714285D01*
X80502438Y-75714285D02*
X80550057Y-75666666D01*
X80454819Y-74809523D02*
X80454819Y-74999999D01*
X80454819Y-74999999D02*
X80502438Y-75095237D01*
X80502438Y-75095237D02*
X80550057Y-75142856D01*
X80550057Y-75142856D02*
X80692914Y-75238094D01*
X80692914Y-75238094D02*
X80883390Y-75285713D01*
X80883390Y-75285713D02*
X81264342Y-75285713D01*
X81264342Y-75285713D02*
X81359580Y-75238094D01*
X81359580Y-75238094D02*
X81407200Y-75190475D01*
X81407200Y-75190475D02*
X81454819Y-75095237D01*
X81454819Y-75095237D02*
X81454819Y-74904761D01*
X81454819Y-74904761D02*
X81407200Y-74809523D01*
X81407200Y-74809523D02*
X81359580Y-74761904D01*
X81359580Y-74761904D02*
X81264342Y-74714285D01*
X81264342Y-74714285D02*
X81026247Y-74714285D01*
X81026247Y-74714285D02*
X80931009Y-74761904D01*
X80931009Y-74761904D02*
X80883390Y-74809523D01*
X80883390Y-74809523D02*
X80835771Y-74904761D01*
X80835771Y-74904761D02*
X80835771Y-75095237D01*
X80835771Y-75095237D02*
X80883390Y-75190475D01*
X80883390Y-75190475D02*
X80931009Y-75238094D01*
X80931009Y-75238094D02*
X81026247Y-75285713D01*
X54095238Y-80704819D02*
X54714285Y-80704819D01*
X54714285Y-80704819D02*
X54380952Y-81085771D01*
X54380952Y-81085771D02*
X54523809Y-81085771D01*
X54523809Y-81085771D02*
X54619047Y-81133390D01*
X54619047Y-81133390D02*
X54666666Y-81181009D01*
X54666666Y-81181009D02*
X54714285Y-81276247D01*
X54714285Y-81276247D02*
X54714285Y-81514342D01*
X54714285Y-81514342D02*
X54666666Y-81609580D01*
X54666666Y-81609580D02*
X54619047Y-81657200D01*
X54619047Y-81657200D02*
X54523809Y-81704819D01*
X54523809Y-81704819D02*
X54238095Y-81704819D01*
X54238095Y-81704819D02*
X54142857Y-81657200D01*
X54142857Y-81657200D02*
X54095238Y-81609580D01*
X55142857Y-81704819D02*
X55142857Y-80704819D01*
X55142857Y-80704819D02*
X55476190Y-81419104D01*
X55476190Y-81419104D02*
X55809523Y-80704819D01*
X55809523Y-80704819D02*
X55809523Y-81704819D01*
X91074819Y-65333333D02*
X91789104Y-65333333D01*
X91789104Y-65333333D02*
X91931961Y-65380952D01*
X91931961Y-65380952D02*
X92027200Y-65476190D01*
X92027200Y-65476190D02*
X92074819Y-65619047D01*
X92074819Y-65619047D02*
X92074819Y-65714285D01*
X91170057Y-64904761D02*
X91122438Y-64857142D01*
X91122438Y-64857142D02*
X91074819Y-64761904D01*
X91074819Y-64761904D02*
X91074819Y-64523809D01*
X91074819Y-64523809D02*
X91122438Y-64428571D01*
X91122438Y-64428571D02*
X91170057Y-64380952D01*
X91170057Y-64380952D02*
X91265295Y-64333333D01*
X91265295Y-64333333D02*
X91360533Y-64333333D01*
X91360533Y-64333333D02*
X91503390Y-64380952D01*
X91503390Y-64380952D02*
X92074819Y-64952380D01*
X92074819Y-64952380D02*
X92074819Y-64333333D01*
X82913095Y-27879819D02*
X82913095Y-28689342D01*
X82913095Y-28689342D02*
X82960714Y-28784580D01*
X82960714Y-28784580D02*
X83008333Y-28832200D01*
X83008333Y-28832200D02*
X83103571Y-28879819D01*
X83103571Y-28879819D02*
X83294047Y-28879819D01*
X83294047Y-28879819D02*
X83389285Y-28832200D01*
X83389285Y-28832200D02*
X83436904Y-28784580D01*
X83436904Y-28784580D02*
X83484523Y-28689342D01*
X83484523Y-28689342D02*
X83484523Y-27879819D01*
X84484523Y-28879819D02*
X83913095Y-28879819D01*
X84198809Y-28879819D02*
X84198809Y-27879819D01*
X84198809Y-27879819D02*
X84103571Y-28022676D01*
X84103571Y-28022676D02*
X84008333Y-28117914D01*
X84008333Y-28117914D02*
X83913095Y-28165533D01*
X65986666Y-86454819D02*
X65986666Y-87169104D01*
X65986666Y-87169104D02*
X65939047Y-87311961D01*
X65939047Y-87311961D02*
X65843809Y-87407200D01*
X65843809Y-87407200D02*
X65700952Y-87454819D01*
X65700952Y-87454819D02*
X65605714Y-87454819D01*
X66986666Y-87454819D02*
X66415238Y-87454819D01*
X66700952Y-87454819D02*
X66700952Y-86454819D01*
X66700952Y-86454819D02*
X66605714Y-86597676D01*
X66605714Y-86597676D02*
X66510476Y-86692914D01*
X66510476Y-86692914D02*
X66415238Y-86740533D01*
X103954819Y-54142857D02*
X103478628Y-54476190D01*
X103954819Y-54714285D02*
X102954819Y-54714285D01*
X102954819Y-54714285D02*
X102954819Y-54333333D01*
X102954819Y-54333333D02*
X103002438Y-54238095D01*
X103002438Y-54238095D02*
X103050057Y-54190476D01*
X103050057Y-54190476D02*
X103145295Y-54142857D01*
X103145295Y-54142857D02*
X103288152Y-54142857D01*
X103288152Y-54142857D02*
X103383390Y-54190476D01*
X103383390Y-54190476D02*
X103431009Y-54238095D01*
X103431009Y-54238095D02*
X103478628Y-54333333D01*
X103478628Y-54333333D02*
X103478628Y-54714285D01*
X103954819Y-53190476D02*
X103954819Y-53761904D01*
X103954819Y-53476190D02*
X102954819Y-53476190D01*
X102954819Y-53476190D02*
X103097676Y-53571428D01*
X103097676Y-53571428D02*
X103192914Y-53666666D01*
X103192914Y-53666666D02*
X103240533Y-53761904D01*
X103050057Y-52809523D02*
X103002438Y-52761904D01*
X103002438Y-52761904D02*
X102954819Y-52666666D01*
X102954819Y-52666666D02*
X102954819Y-52428571D01*
X102954819Y-52428571D02*
X103002438Y-52333333D01*
X103002438Y-52333333D02*
X103050057Y-52285714D01*
X103050057Y-52285714D02*
X103145295Y-52238095D01*
X103145295Y-52238095D02*
X103240533Y-52238095D01*
X103240533Y-52238095D02*
X103383390Y-52285714D01*
X103383390Y-52285714D02*
X103954819Y-52857142D01*
X103954819Y-52857142D02*
X103954819Y-52238095D01*
X76833333Y-73204819D02*
X76500000Y-72728628D01*
X76261905Y-73204819D02*
X76261905Y-72204819D01*
X76261905Y-72204819D02*
X76642857Y-72204819D01*
X76642857Y-72204819D02*
X76738095Y-72252438D01*
X76738095Y-72252438D02*
X76785714Y-72300057D01*
X76785714Y-72300057D02*
X76833333Y-72395295D01*
X76833333Y-72395295D02*
X76833333Y-72538152D01*
X76833333Y-72538152D02*
X76785714Y-72633390D01*
X76785714Y-72633390D02*
X76738095Y-72681009D01*
X76738095Y-72681009D02*
X76642857Y-72728628D01*
X76642857Y-72728628D02*
X76261905Y-72728628D01*
X77166667Y-72204819D02*
X77833333Y-72204819D01*
X77833333Y-72204819D02*
X77404762Y-73204819D01*
X76833333Y-67704819D02*
X76500000Y-67228628D01*
X76261905Y-67704819D02*
X76261905Y-66704819D01*
X76261905Y-66704819D02*
X76642857Y-66704819D01*
X76642857Y-66704819D02*
X76738095Y-66752438D01*
X76738095Y-66752438D02*
X76785714Y-66800057D01*
X76785714Y-66800057D02*
X76833333Y-66895295D01*
X76833333Y-66895295D02*
X76833333Y-67038152D01*
X76833333Y-67038152D02*
X76785714Y-67133390D01*
X76785714Y-67133390D02*
X76738095Y-67181009D01*
X76738095Y-67181009D02*
X76642857Y-67228628D01*
X76642857Y-67228628D02*
X76261905Y-67228628D01*
X77309524Y-67704819D02*
X77500000Y-67704819D01*
X77500000Y-67704819D02*
X77595238Y-67657200D01*
X77595238Y-67657200D02*
X77642857Y-67609580D01*
X77642857Y-67609580D02*
X77738095Y-67466723D01*
X77738095Y-67466723D02*
X77785714Y-67276247D01*
X77785714Y-67276247D02*
X77785714Y-66895295D01*
X77785714Y-66895295D02*
X77738095Y-66800057D01*
X77738095Y-66800057D02*
X77690476Y-66752438D01*
X77690476Y-66752438D02*
X77595238Y-66704819D01*
X77595238Y-66704819D02*
X77404762Y-66704819D01*
X77404762Y-66704819D02*
X77309524Y-66752438D01*
X77309524Y-66752438D02*
X77261905Y-66800057D01*
X77261905Y-66800057D02*
X77214286Y-66895295D01*
X77214286Y-66895295D02*
X77214286Y-67133390D01*
X77214286Y-67133390D02*
X77261905Y-67228628D01*
X77261905Y-67228628D02*
X77309524Y-67276247D01*
X77309524Y-67276247D02*
X77404762Y-67323866D01*
X77404762Y-67323866D02*
X77595238Y-67323866D01*
X77595238Y-67323866D02*
X77690476Y-67276247D01*
X77690476Y-67276247D02*
X77738095Y-67228628D01*
X77738095Y-67228628D02*
X77785714Y-67133390D01*
X77704819Y-78416666D02*
X77228628Y-78749999D01*
X77704819Y-78988094D02*
X76704819Y-78988094D01*
X76704819Y-78988094D02*
X76704819Y-78607142D01*
X76704819Y-78607142D02*
X76752438Y-78511904D01*
X76752438Y-78511904D02*
X76800057Y-78464285D01*
X76800057Y-78464285D02*
X76895295Y-78416666D01*
X76895295Y-78416666D02*
X77038152Y-78416666D01*
X77038152Y-78416666D02*
X77133390Y-78464285D01*
X77133390Y-78464285D02*
X77181009Y-78511904D01*
X77181009Y-78511904D02*
X77228628Y-78607142D01*
X77228628Y-78607142D02*
X77228628Y-78988094D01*
X76704819Y-77559523D02*
X76704819Y-77749999D01*
X76704819Y-77749999D02*
X76752438Y-77845237D01*
X76752438Y-77845237D02*
X76800057Y-77892856D01*
X76800057Y-77892856D02*
X76942914Y-77988094D01*
X76942914Y-77988094D02*
X77133390Y-78035713D01*
X77133390Y-78035713D02*
X77514342Y-78035713D01*
X77514342Y-78035713D02*
X77609580Y-77988094D01*
X77609580Y-77988094D02*
X77657200Y-77940475D01*
X77657200Y-77940475D02*
X77704819Y-77845237D01*
X77704819Y-77845237D02*
X77704819Y-77654761D01*
X77704819Y-77654761D02*
X77657200Y-77559523D01*
X77657200Y-77559523D02*
X77609580Y-77511904D01*
X77609580Y-77511904D02*
X77514342Y-77464285D01*
X77514342Y-77464285D02*
X77276247Y-77464285D01*
X77276247Y-77464285D02*
X77181009Y-77511904D01*
X77181009Y-77511904D02*
X77133390Y-77559523D01*
X77133390Y-77559523D02*
X77085771Y-77654761D01*
X77085771Y-77654761D02*
X77085771Y-77845237D01*
X77085771Y-77845237D02*
X77133390Y-77940475D01*
X77133390Y-77940475D02*
X77181009Y-77988094D01*
X77181009Y-77988094D02*
X77276247Y-78035713D01*
X74545833Y-42929580D02*
X74498214Y-42977200D01*
X74498214Y-42977200D02*
X74355357Y-43024819D01*
X74355357Y-43024819D02*
X74260119Y-43024819D01*
X74260119Y-43024819D02*
X74117262Y-42977200D01*
X74117262Y-42977200D02*
X74022024Y-42881961D01*
X74022024Y-42881961D02*
X73974405Y-42786723D01*
X73974405Y-42786723D02*
X73926786Y-42596247D01*
X73926786Y-42596247D02*
X73926786Y-42453390D01*
X73926786Y-42453390D02*
X73974405Y-42262914D01*
X73974405Y-42262914D02*
X74022024Y-42167676D01*
X74022024Y-42167676D02*
X74117262Y-42072438D01*
X74117262Y-42072438D02*
X74260119Y-42024819D01*
X74260119Y-42024819D02*
X74355357Y-42024819D01*
X74355357Y-42024819D02*
X74498214Y-42072438D01*
X74498214Y-42072438D02*
X74545833Y-42120057D01*
X75498214Y-43024819D02*
X74926786Y-43024819D01*
X75212500Y-43024819D02*
X75212500Y-42024819D01*
X75212500Y-42024819D02*
X75117262Y-42167676D01*
X75117262Y-42167676D02*
X75022024Y-42262914D01*
X75022024Y-42262914D02*
X74926786Y-42310533D01*
X71238095Y-76654817D02*
X71238095Y-77464340D01*
X71238095Y-77464340D02*
X71285714Y-77559578D01*
X71285714Y-77559578D02*
X71333333Y-77607198D01*
X71333333Y-77607198D02*
X71428571Y-77654817D01*
X71428571Y-77654817D02*
X71619047Y-77654817D01*
X71619047Y-77654817D02*
X71714285Y-77607198D01*
X71714285Y-77607198D02*
X71761904Y-77559578D01*
X71761904Y-77559578D02*
X71809523Y-77464340D01*
X71809523Y-77464340D02*
X71809523Y-76654817D01*
X72190476Y-76654817D02*
X72809523Y-76654817D01*
X72809523Y-76654817D02*
X72476190Y-77035769D01*
X72476190Y-77035769D02*
X72619047Y-77035769D01*
X72619047Y-77035769D02*
X72714285Y-77083388D01*
X72714285Y-77083388D02*
X72761904Y-77131007D01*
X72761904Y-77131007D02*
X72809523Y-77226245D01*
X72809523Y-77226245D02*
X72809523Y-77464340D01*
X72809523Y-77464340D02*
X72761904Y-77559578D01*
X72761904Y-77559578D02*
X72714285Y-77607198D01*
X72714285Y-77607198D02*
X72619047Y-77654817D01*
X72619047Y-77654817D02*
X72333333Y-77654817D01*
X72333333Y-77654817D02*
X72238095Y-77607198D01*
X72238095Y-77607198D02*
X72190476Y-77559578D01*
X73322080Y-61916666D02*
X73369700Y-61964285D01*
X73369700Y-61964285D02*
X73417319Y-62107142D01*
X73417319Y-62107142D02*
X73417319Y-62202380D01*
X73417319Y-62202380D02*
X73369700Y-62345237D01*
X73369700Y-62345237D02*
X73274461Y-62440475D01*
X73274461Y-62440475D02*
X73179223Y-62488094D01*
X73179223Y-62488094D02*
X72988747Y-62535713D01*
X72988747Y-62535713D02*
X72845890Y-62535713D01*
X72845890Y-62535713D02*
X72655414Y-62488094D01*
X72655414Y-62488094D02*
X72560176Y-62440475D01*
X72560176Y-62440475D02*
X72464938Y-62345237D01*
X72464938Y-62345237D02*
X72417319Y-62202380D01*
X72417319Y-62202380D02*
X72417319Y-62107142D01*
X72417319Y-62107142D02*
X72464938Y-61964285D01*
X72464938Y-61964285D02*
X72512557Y-61916666D01*
X72417319Y-61583332D02*
X72417319Y-60916666D01*
X72417319Y-60916666D02*
X73417319Y-61345237D01*
G04 #@! TO.C,R3*
D11*
X74939564Y-37765000D02*
X74485436Y-37765000D01*
X74939564Y-39235000D02*
X74485436Y-39235000D01*
G04 #@! TO.C,L1*
D12*
X65476000Y-70958050D02*
X65476000Y-72070150D01*
X68524000Y-72070150D02*
X68524000Y-70958050D01*
G04 #@! TO.C,C9*
D11*
X66723752Y-62265000D02*
X66201248Y-62265000D01*
X66723752Y-63735000D02*
X66201248Y-63735000D01*
G04 #@! TO.C,C3*
X66701248Y-74265000D02*
X67223752Y-74265000D01*
X66701248Y-75735000D02*
X67223752Y-75735000D01*
G04 #@! TO.C,C8*
X66723752Y-65015000D02*
X66201248Y-65015000D01*
X66723752Y-66485000D02*
X66201248Y-66485000D01*
G04 #@! TO.C,CR1*
D12*
X74617600Y-80750000D02*
G75*
G02*
X74465200Y-80750000I-76200J0D01*
G01*
X74465200Y-80750000D02*
G75*
G02*
X74617600Y-80750000I76200J0D01*
G01*
G04 #@! TO.C,U2*
X71374650Y-74600599D02*
X73330450Y-74600599D01*
X73330450Y-71349399D02*
X71374650Y-71349399D01*
G04 #@! TO.C,CR2*
X70014100Y-80750000D02*
G75*
G02*
X69861700Y-80750000I-76200J0D01*
G01*
X69861700Y-80750000D02*
G75*
G02*
X70014100Y-80750000I76200J0D01*
G01*
G04 #@! TO.C,R10*
D11*
X80772936Y-68265000D02*
X81227064Y-68265000D01*
X80772936Y-69735000D02*
X81227064Y-69735000D01*
G04 #@! TO.C,R8*
X81227064Y-70265000D02*
X80772936Y-70265000D01*
X81227064Y-71735000D02*
X80772936Y-71735000D01*
G04 #@! TO.C,R5*
X70265000Y-68227064D02*
X70265000Y-67772936D01*
X71735000Y-68227064D02*
X71735000Y-67772936D01*
G04 #@! TO.C,R2*
X77765000Y-83727064D02*
X77765000Y-83272936D01*
X79235000Y-83727064D02*
X79235000Y-83272936D01*
G04 #@! TO.C,C2*
X66701248Y-76265000D02*
X67223752Y-76265000D01*
X66701248Y-77735000D02*
X67223752Y-77735000D01*
G04 #@! TO.C,C4*
X72765000Y-68223752D02*
X72765000Y-67701248D01*
X74235000Y-68223752D02*
X74235000Y-67701248D01*
G04 #@! TO.C,R1*
X65227064Y-83765000D02*
X64772936Y-83765000D01*
X65227064Y-85235000D02*
X64772936Y-85235000D01*
G04 #@! TO.C,R11*
X83765000Y-58272936D02*
X83765000Y-58727064D01*
X85235000Y-58272936D02*
X85235000Y-58727064D01*
G04 #@! TO.C,C6*
X78515000Y-75201248D02*
X78515000Y-75723752D01*
X79985000Y-75201248D02*
X79985000Y-75723752D01*
G04 #@! TO.C,J2*
X92620000Y-66380000D02*
X92620000Y-65000000D01*
X94000000Y-66380000D02*
X92620000Y-66380000D01*
X95270000Y-63620000D02*
X105540000Y-63620000D01*
X95270000Y-66380000D02*
X95270000Y-63620000D01*
X95270000Y-66380000D02*
X105540000Y-66380000D01*
X105540000Y-66380000D02*
X105540000Y-63620000D01*
G04 #@! TO.C,U1*
D13*
X81250000Y-29810000D02*
X99250000Y-29810000D01*
X81250000Y-36530000D02*
X81250000Y-29810000D01*
X81250000Y-54580000D02*
X81250000Y-55310000D01*
X81250000Y-55310000D02*
X82495000Y-55310000D01*
X99250000Y-29810000D02*
X99250000Y-36530000D01*
X99250000Y-54580000D02*
X99250000Y-55310000D01*
X99250000Y-55310000D02*
X98005000Y-55310000D01*
D14*
X80150000Y-37300000D02*
G75*
G02*
X79950000Y-37300000I-100000J0D01*
G01*
X79950000Y-37300000D02*
G75*
G02*
X80150000Y-37300000I100000J0D01*
G01*
G04 #@! TO.C,J1*
D13*
X67850000Y-84250000D02*
X67850000Y-85750000D01*
X67850000Y-88250000D02*
X67850000Y-89600000D01*
X76790000Y-84250000D02*
X76790000Y-85750000D01*
X76790000Y-88250000D02*
X76790000Y-89600000D01*
D14*
X69220000Y-81100000D02*
G75*
G02*
X69020000Y-81100000I-100000J0D01*
G01*
X69020000Y-81100000D02*
G75*
G02*
X69220000Y-81100000I100000J0D01*
G01*
G04 #@! TO.C,R12*
D11*
X100765000Y-53727064D02*
X100765000Y-53272936D01*
X102235000Y-53727064D02*
X102235000Y-53272936D01*
G04 #@! TO.C,R7*
X77227064Y-70265000D02*
X76772936Y-70265000D01*
X77227064Y-71735000D02*
X76772936Y-71735000D01*
G04 #@! TO.C,R9*
X77227064Y-68265000D02*
X76772936Y-68265000D01*
X77227064Y-69735000D02*
X76772936Y-69735000D01*
G04 #@! TO.C,R6*
X76265000Y-75272936D02*
X76265000Y-75727064D01*
X77735000Y-75272936D02*
X77735000Y-75727064D01*
G04 #@! TO.C,C1*
X74488748Y-40015000D02*
X75011252Y-40015000D01*
X74488748Y-41485000D02*
X75011252Y-41485000D01*
G04 #@! TO.C,U3*
D12*
X69917200Y-78371600D02*
X74082800Y-78371600D01*
X74082800Y-75628400D02*
X69917200Y-75628400D01*
X69155200Y-77000000D02*
G75*
G02*
X68901200Y-77000000I-127000J0D01*
G01*
X68901200Y-77000000D02*
G75*
G02*
X69155200Y-77000000I127000J0D01*
G01*
G04 #@! TO.C,C7*
D11*
X73223752Y-63015000D02*
X72701248Y-63015000D01*
X73223752Y-64485000D02*
X72701248Y-64485000D01*
G04 #@! TD*
%LPC*%
D15*
G04 #@! TO.C,R3*
X75712500Y-38500000D03*
X73712500Y-38500000D03*
G04 #@! TD*
D16*
G04 #@! TO.C,L1*
X67000000Y-73000000D03*
X67000000Y-70028200D03*
G04 #@! TD*
D17*
G04 #@! TO.C,3M*
X135000000Y-34000000D03*
G04 #@! TD*
G04 #@! TO.C,3M*
X55000000Y-34000000D03*
G04 #@! TD*
G04 #@! TO.C,3M*
X135000000Y-85000000D03*
G04 #@! TD*
D18*
G04 #@! TO.C,C9*
X67500000Y-63000000D03*
X65425000Y-63000000D03*
G04 #@! TD*
D19*
G04 #@! TO.C,C3*
X65925000Y-75000000D03*
X68000000Y-75000000D03*
G04 #@! TD*
D18*
G04 #@! TO.C,C8*
X67500000Y-65750000D03*
X65425000Y-65750000D03*
G04 #@! TD*
D20*
G04 #@! TO.C,CR1*
X73284100Y-80750000D03*
X72674500Y-80750000D03*
G04 #@! TD*
D21*
G04 #@! TO.C,U2*
X71000000Y-72000000D03*
X71000000Y-72649998D03*
X71000000Y-73300000D03*
X71000000Y-73949998D03*
X73705100Y-73949998D03*
X73705100Y-73300000D03*
X73705100Y-72649998D03*
X73705100Y-72000000D03*
G04 #@! TD*
D20*
G04 #@! TO.C,CR2*
X71195200Y-80750000D03*
X71804800Y-80750000D03*
G04 #@! TD*
D22*
G04 #@! TO.C,R10*
X80000000Y-69000000D03*
X82000000Y-69000000D03*
G04 #@! TD*
D15*
G04 #@! TO.C,R8*
X82000000Y-71000000D03*
X80000000Y-71000000D03*
G04 #@! TD*
D23*
G04 #@! TO.C,R5*
X71000000Y-69000000D03*
X71000000Y-67000000D03*
G04 #@! TD*
G04 #@! TO.C,R2*
X78500000Y-84500000D03*
X78500000Y-82500000D03*
G04 #@! TD*
D19*
G04 #@! TO.C,C2*
X65925000Y-77000000D03*
X68000000Y-77000000D03*
G04 #@! TD*
D24*
G04 #@! TO.C,C4*
X73500000Y-69000000D03*
X73500000Y-66925000D03*
G04 #@! TD*
D15*
G04 #@! TO.C,R1*
X66000000Y-84500000D03*
X64000000Y-84500000D03*
G04 #@! TD*
D25*
G04 #@! TO.C,R11*
X84500000Y-57500000D03*
X84500000Y-59500000D03*
G04 #@! TD*
D26*
G04 #@! TO.C,C6*
X79250000Y-74425000D03*
X79250000Y-76500000D03*
G04 #@! TD*
D17*
G04 #@! TO.C,3M*
X55000000Y-85000000D03*
G04 #@! TD*
D27*
G04 #@! TO.C,J2*
X94000000Y-65000000D03*
D28*
X96540000Y-65000000D03*
X99080000Y-65000000D03*
X101620000Y-65000000D03*
X104160000Y-65000000D03*
G04 #@! TD*
D29*
G04 #@! TO.C,U1*
X81500000Y-37300000D03*
X81500000Y-38570000D03*
X81500000Y-39840000D03*
X81500000Y-41110000D03*
X81500000Y-42380000D03*
X81500000Y-43650000D03*
X81500000Y-44920000D03*
X81500000Y-46190000D03*
X81500000Y-47460000D03*
X81500000Y-48730000D03*
X81500000Y-50000000D03*
X81500000Y-51270000D03*
X81500000Y-52540000D03*
X81500000Y-53810000D03*
D30*
X83265000Y-55060000D03*
X84535000Y-55060000D03*
X85805000Y-55060000D03*
X87075000Y-55060000D03*
X88345000Y-55060000D03*
X89615000Y-55060000D03*
X90885000Y-55060000D03*
X92155000Y-55060000D03*
X93425000Y-55060000D03*
X94695000Y-55060000D03*
X95965000Y-55060000D03*
X97235000Y-55060000D03*
D29*
X99000000Y-53810000D03*
X99000000Y-52540000D03*
X99000000Y-51270000D03*
X99000000Y-50000000D03*
X99000000Y-48730000D03*
X99000000Y-47460000D03*
X99000000Y-46190000D03*
X99000000Y-44920000D03*
X99000000Y-43650000D03*
X99000000Y-42380000D03*
X99000000Y-41110000D03*
X99000000Y-39840000D03*
X99000000Y-38570000D03*
X99000000Y-37300000D03*
D31*
X88750000Y-45020000D03*
X87350000Y-45020000D03*
X90150000Y-45020000D03*
X87350000Y-46420000D03*
X88750000Y-46420000D03*
X90150000Y-46420000D03*
X87350000Y-43620000D03*
X88750000Y-43620000D03*
X90150000Y-43620000D03*
G04 #@! TD*
D32*
G04 #@! TO.C,J1*
X69430000Y-83320000D03*
X75210000Y-83320000D03*
D33*
X69120000Y-82255000D03*
X69920000Y-82255000D03*
D34*
X71070000Y-82255000D03*
X72070000Y-82255000D03*
X72570000Y-82255000D03*
X73570000Y-82255000D03*
D33*
X75520000Y-82255000D03*
X74720000Y-82255000D03*
D34*
X74070000Y-82255000D03*
X73070000Y-82255000D03*
X71570000Y-82255000D03*
X70570000Y-82255000D03*
D35*
X68000000Y-82820000D03*
X76640000Y-82820000D03*
D36*
X68000000Y-87000000D03*
X76640000Y-87000000D03*
G04 #@! TD*
D23*
G04 #@! TO.C,R12*
X101500000Y-54500000D03*
X101500000Y-52500000D03*
G04 #@! TD*
D15*
G04 #@! TO.C,R7*
X78000000Y-71000000D03*
X76000000Y-71000000D03*
G04 #@! TD*
G04 #@! TO.C,R9*
X78000000Y-69000000D03*
X76000000Y-69000000D03*
G04 #@! TD*
D25*
G04 #@! TO.C,R6*
X77000000Y-74500000D03*
X77000000Y-76500000D03*
G04 #@! TD*
D19*
G04 #@! TO.C,C1*
X73712500Y-40750000D03*
X75787500Y-40750000D03*
G04 #@! TD*
D37*
G04 #@! TO.C,U3*
X69968000Y-77000000D03*
X74032000Y-77000000D03*
G04 #@! TD*
D18*
G04 #@! TO.C,C7*
X74000000Y-63750000D03*
X71925000Y-63750000D03*
G04 #@! TD*
%LPD*%
M02*
