G04 #@! TF.GenerationSoftware,KiCad,Pcbnew,10.0.2*
G04 #@! TF.CreationDate,2026-07-28T18:36:04-05:00*
G04 #@! TF.ProjectId,PCBv2,50434276-322e-46b6-9963-61645f706362,v2*
G04 #@! TF.SameCoordinates,Original*
G04 #@! TF.FileFunction,Copper,L4,Bot*
G04 #@! TF.FilePolarity,Positive*
%FSLAX46Y46*%
G04 Gerber Fmt 4.6, Leading zero omitted, Abs format (unit mm)*
G04 Created by KiCad (PCBNEW 10.0.2) date 2026-07-28 18:36:04*
%MOMM*%
%LPD*%
G01*
G04 APERTURE LIST*
G04 #@! TA.AperFunction,ComponentPad*
%ADD10C,5.600000*%
G04 #@! TD*
G04 #@! TA.AperFunction,ComponentPad*
%ADD11R,1.700000X1.700000*%
G04 #@! TD*
G04 #@! TA.AperFunction,ComponentPad*
%ADD12C,1.700000*%
G04 #@! TD*
G04 #@! TA.AperFunction,ComponentPad*
%ADD13C,0.400000*%
G04 #@! TD*
G04 #@! TA.AperFunction,ComponentPad*
%ADD14O,1.000000X2.100000*%
G04 #@! TD*
G04 #@! TA.AperFunction,ComponentPad*
%ADD15O,1.000000X1.800000*%
G04 #@! TD*
G04 #@! TA.AperFunction,ViaPad*
%ADD16C,0.600000*%
G04 #@! TD*
G04 #@! TA.AperFunction,Conductor*
%ADD17C,0.200000*%
G04 #@! TD*
G04 APERTURE END LIST*
D10*
G04 #@! TO.P,3M,1*
G04 #@! TO.N,N/C*
X135000000Y-34000000D03*
G04 #@! TD*
G04 #@! TO.P,3M,1*
G04 #@! TO.N,N/C*
X55000000Y-34000000D03*
G04 #@! TD*
G04 #@! TO.P,3M,1*
G04 #@! TO.N,N/C*
X135000000Y-85000000D03*
G04 #@! TD*
G04 #@! TO.P,3M,1*
G04 #@! TO.N,N/C*
X55000000Y-85000000D03*
G04 #@! TD*
D11*
G04 #@! TO.P,J2,1,Pin_1_1*
G04 #@! TO.N,/sensor_TX*
X94000000Y-65000000D03*
D12*
G04 #@! TO.P,J2,2,Pin_2_2*
G04 #@! TO.N,/sensor_RX*
X96540000Y-65000000D03*
G04 #@! TO.P,J2,3,Pin_3_3*
G04 #@! TO.N,unconnected-(J2-Pin_3-Pad3)*
X99080000Y-65000000D03*
G04 #@! TO.P,J2,4,Pin_4_4*
G04 #@! TO.N,GND*
X101620000Y-65000000D03*
G04 #@! TO.P,J2,5,Pin_5_5*
G04 #@! TO.N,+5V*
X104160000Y-65000000D03*
G04 #@! TD*
D13*
G04 #@! TO.P,U1,41_10*
G04 #@! TO.N,GND*
X88750000Y-44320000D03*
G04 #@! TO.P,U1,41_11*
X87350000Y-44320000D03*
G04 #@! TO.P,U1,41_12*
X90150000Y-44320000D03*
G04 #@! TO.P,U1,41_13*
X87350000Y-45720000D03*
G04 #@! TO.P,U1,41_14*
X88750000Y-45720000D03*
G04 #@! TO.P,U1,41_15*
X90150000Y-45720000D03*
G04 #@! TO.P,U1,41_16*
X88050000Y-43620000D03*
G04 #@! TO.P,U1,41_17*
X89450000Y-43620000D03*
G04 #@! TO.P,U1,41_18*
X88050000Y-45020000D03*
G04 #@! TO.P,U1,41_19*
X89450000Y-45020000D03*
G04 #@! TO.P,U1,41_20*
X88050000Y-46420000D03*
G04 #@! TO.P,U1,41_21*
X89450000Y-46420000D03*
G04 #@! TD*
D14*
G04 #@! TO.P,J1,SH1,SHIELD_SH1*
G04 #@! TO.N,GND*
X68000000Y-82820000D03*
G04 #@! TO.P,J1,SH2,SHIELD__1_SH2*
X76640000Y-82820000D03*
D15*
G04 #@! TO.P,J1,SH3,SHIELD__2_SH3*
X68000000Y-87000000D03*
G04 #@! TO.P,J1,SH4,SHIELD__3_SH4*
X76640000Y-87000000D03*
G04 #@! TD*
D16*
G04 #@! TO.N,+3V3*
X101500000Y-55750000D03*
X68750000Y-62000000D03*
X77000000Y-38500000D03*
X67000000Y-68500000D03*
X70750000Y-63500000D03*
G04 #@! TO.N,/BST*
X69250000Y-72750000D03*
X80750000Y-74000000D03*
G04 #@! TO.N,GND*
X68500000Y-81000000D03*
X100500000Y-36750000D03*
X70500000Y-75000000D03*
X74000000Y-80500000D03*
X80000000Y-82000000D03*
X64750000Y-73750000D03*
X64250000Y-65750000D03*
X64738845Y-77985440D03*
X69750000Y-67000000D03*
X80000000Y-36500000D03*
X64250000Y-63000000D03*
X63500000Y-83000000D03*
X72500000Y-40750000D03*
X84500000Y-60750000D03*
X76500000Y-81000000D03*
X70750000Y-80000000D03*
X83500000Y-71000000D03*
X74500000Y-65750000D03*
G04 #@! TO.N,+5V*
X104250000Y-67250000D03*
X75000000Y-72500000D03*
X74000000Y-70500000D03*
X75000000Y-81000000D03*
X70000000Y-81000000D03*
X69750000Y-72000000D03*
X71500000Y-70500000D03*
X75000000Y-73500000D03*
X69250000Y-75000000D03*
X75500000Y-77000000D03*
G04 #@! TO.N,/USB_D-*
X72750000Y-79750000D03*
G04 #@! TO.N,/USB_D+*
X80000000Y-54250000D03*
X72000000Y-79750000D03*
X79750000Y-52750000D03*
G04 #@! TD*
G04 #@! TO.N,/BST*
D17*
X80650000Y-74100000D02*
X80750000Y-74000000D01*
X69250000Y-72750000D02*
X70600000Y-74100000D01*
X70600000Y-74100000D02*
X80650000Y-74100000D01*
G04 #@! TO.N,/USB_D+*
X72000000Y-79750000D02*
X72150000Y-79600000D01*
G04 #@! TD*
M02*
