G04 #@! TF.GenerationSoftware,KiCad,Pcbnew,10.0.2*
G04 #@! TF.CreationDate,2026-07-28T18:36:04-05:00*
G04 #@! TF.ProjectId,PCBv2,50434276-322e-46b6-9963-61645f706362,v2*
G04 #@! TF.SameCoordinates,Original*
G04 #@! TF.FileFunction,Copper,L3,Inr*
G04 #@! TF.FilePolarity,Positive*
%FSLAX46Y46*%
G04 Gerber Fmt 4.6, Leading zero omitted, Abs format (unit mm)*
G04 Created by KiCad (PCBNEW 10.0.2) date 2026-07-28 18:36:04*
%MOMM*%
%LPD*%
G01*
G04 APERTURE LIST*
G04 #@! TA.AperFunction,ComponentPad*
%ADD10C,5.600000*%
G04 #@! TD*
G04 #@! TA.AperFunction,ComponentPad*
%ADD11R,1.700000X1.700000*%
G04 #@! TD*
G04 #@! TA.AperFunction,ComponentPad*
%ADD12C,1.700000*%
G04 #@! TD*
G04 #@! TA.AperFunction,ComponentPad*
%ADD13C,0.400000*%
G04 #@! TD*
G04 #@! TA.AperFunction,ComponentPad*
%ADD14O,1.000000X2.100000*%
G04 #@! TD*
G04 #@! TA.AperFunction,ComponentPad*
%ADD15O,1.000000X1.800000*%
G04 #@! TD*
G04 #@! TA.AperFunction,ViaPad*
%ADD16C,0.600000*%
G04 #@! TD*
G04 #@! TA.AperFunction,Conductor*
%ADD17C,0.200000*%
G04 #@! TD*
G04 APERTURE END LIST*
D10*
G04 #@! TO.N,N/C*
G04 #@! TO.C,3M*
X135000000Y-34000000D03*
G04 #@! TD*
G04 #@! TO.N,N/C*
G04 #@! TO.C,3M*
X55000000Y-34000000D03*
G04 #@! TD*
G04 #@! TO.N,N/C*
G04 #@! TO.C,3M*
X135000000Y-85000000D03*
G04 #@! TD*
G04 #@! TO.N,N/C*
G04 #@! TO.C,3M*
X55000000Y-85000000D03*
G04 #@! TD*
D11*
G04 #@! TO.N,/sensor_TX*
G04 #@! TO.C,J2*
X94000000Y-65000000D03*
D12*
G04 #@! TO.N,/sensor_RX*
X96540000Y-65000000D03*
G04 #@! TO.N,unconnected-(J2-Pin_3-Pad3)*
X99080000Y-65000000D03*
G04 #@! TO.N,GND*
X101620000Y-65000000D03*
G04 #@! TO.N,+5V*
X104160000Y-65000000D03*
G04 #@! TD*
D13*
G04 #@! TO.N,GND*
G04 #@! TO.C,U1*
X88750000Y-44320000D03*
X87350000Y-44320000D03*
X90150000Y-44320000D03*
X87350000Y-45720000D03*
X88750000Y-45720000D03*
X90150000Y-45720000D03*
X88050000Y-43620000D03*
X89450000Y-43620000D03*
X88050000Y-45020000D03*
X89450000Y-45020000D03*
X88050000Y-46420000D03*
X89450000Y-46420000D03*
G04 #@! TD*
D14*
G04 #@! TO.N,GND*
G04 #@! TO.C,J1*
X68000000Y-82820000D03*
X76640000Y-82820000D03*
D15*
X68000000Y-87000000D03*
X76640000Y-87000000D03*
G04 #@! TD*
D16*
G04 #@! TO.N,+3V3*
X101500000Y-55750000D03*
X68750000Y-62000000D03*
X77000000Y-38500000D03*
X67000000Y-68500000D03*
X70750000Y-63500000D03*
G04 #@! TO.N,/BST*
X69250000Y-72750000D03*
X80750000Y-74000000D03*
G04 #@! TO.N,GND*
X68500000Y-81000000D03*
X100500000Y-36750000D03*
X70500000Y-75000000D03*
X74000000Y-80500000D03*
X80000000Y-82000000D03*
X64750000Y-73750000D03*
X64250000Y-65750000D03*
X64738845Y-77985440D03*
X69750000Y-67000000D03*
X80000000Y-36500000D03*
X64250000Y-63000000D03*
X63500000Y-83000000D03*
X72500000Y-40750000D03*
X84500000Y-60750000D03*
X76500000Y-81000000D03*
X70750000Y-80000000D03*
X83500000Y-71000000D03*
X74500000Y-65750000D03*
G04 #@! TO.N,+5V*
X104250000Y-67250000D03*
X75000000Y-72500000D03*
X74000000Y-70500000D03*
X75000000Y-81000000D03*
X70000000Y-81000000D03*
X69750000Y-72000000D03*
X71500000Y-70500000D03*
X75000000Y-73500000D03*
X69250000Y-75000000D03*
X75500000Y-77000000D03*
G04 #@! TO.N,/USB_D-*
X72750000Y-79750000D03*
G04 #@! TO.N,/USB_D+*
X80000000Y-54250000D03*
X72000000Y-79750000D03*
X79750000Y-52750000D03*
G04 #@! TD*
G04 #@! TO.N,+3V3*
D17*
X67000000Y-67250000D02*
X67000000Y-68500000D01*
X68750000Y-62000000D02*
X95250000Y-62000000D01*
X77000000Y-38500000D02*
X77000000Y-53750000D01*
X77000000Y-53750000D02*
X68750000Y-62000000D01*
X70750000Y-63500000D02*
X67000000Y-67250000D01*
X95250000Y-62000000D02*
X101500000Y-55750000D01*
G04 #@! TO.N,+5V*
X76500000Y-73000000D02*
X76500000Y-76000000D01*
X69850000Y-74400000D02*
X69850000Y-72100000D01*
X93250000Y-78250000D02*
X76750000Y-78250000D01*
X75000000Y-72500000D02*
X75000000Y-71500000D01*
X104250000Y-67250000D02*
X93250000Y-78250000D01*
X75000000Y-71500000D02*
X74000000Y-70500000D01*
X75000000Y-72500000D02*
X76000000Y-72500000D01*
X75000000Y-73500000D02*
X74500000Y-73500000D01*
X75500000Y-74000000D02*
X75500000Y-77000000D01*
X74500000Y-73500000D02*
X71500000Y-70500000D01*
X69250000Y-75000000D02*
X69850000Y-74400000D01*
X76500000Y-76000000D02*
X75500000Y-77000000D01*
X76750000Y-78250000D02*
X75500000Y-77000000D01*
X75500000Y-80500000D02*
X75500000Y-77000000D01*
X75000000Y-81000000D02*
X75500000Y-80500000D01*
X76000000Y-72500000D02*
X76500000Y-73000000D01*
X70000000Y-81000000D02*
X75000000Y-81000000D01*
X69850000Y-72100000D02*
X69750000Y-72000000D01*
X75000000Y-73500000D02*
X75500000Y-74000000D01*
G04 #@! TD*
M02*
